<svg width="94" height="91" viewBox="0 0 94 91" fill="none" xmlns="http://www.w3.org/2000/svg">
<path d="M66.0572 76.3015L47 70.9695L27.9428 76.3015C27.7777 76.6214 27.7227 76.9414 27.7227 77.3146V88.3341H66.2773V77.3146C66.2773 76.9414 66.2223 76.6214 66.0572 76.3015Z" fill="#646D73"/>
<path d="M66.2773 88.3341V77.3146C66.2773 76.9414 66.2223 76.6214 66.0572 76.3015L47 70.9695V88.3341H66.2773Z" fill="#474F54"/>
<path d="M91.2461 5.33203H77.1746C77.1988 4.43145 77.293 3.58313 77.293 2.66602C77.293 1.17287 76.0814 0 74.5391 0H19.4609C17.9186 0 16.707 1.17287 16.707 2.66602C16.707 3.58313 16.8012 4.43145 16.8251 5.33203H2.75391C1.23173 5.33203 0 6.52445 0 7.99805V14.7516C0 29.6376 12.3177 41.7301 27.4974 42.5086C30.6598 46.7237 34.413 49.8518 38.6832 51.6141C38.0223 64.5709 30.3664 73.582 28.549 75.4484C28.2734 75.6615 28.0531 75.9815 27.943 76.3014H66.0572C65.9469 75.9815 65.7267 75.6615 65.4512 75.4484C63.5785 73.582 55.9777 64.6242 55.3168 51.6141C59.5879 49.8515 63.3637 46.7226 66.5287 42.5059C81.6954 41.7148 94 29.6292 94 14.7516V7.99805C94 6.52445 92.7683 5.33203 91.2461 5.33203ZM5.50781 14.7516V10.6641H17.0614C17.7761 19.4758 19.7499 28.8083 23.8984 36.7391C13.4996 34.4721 5.50781 25.4948 5.50781 14.7516ZM88.4922 14.7516C88.4922 25.4892 80.5075 34.4623 70.1165 36.7345C74.2321 28.8038 76.2169 19.5616 76.9386 10.6641H88.4922V14.7516Z" fill="#FED843"/>
<path d="M91.2461 5.33203H77.1746C77.1988 4.43145 77.293 3.58313 77.293 2.66602C77.293 1.17287 76.0814 0 74.5391 0H47V76.3014H66.0572C65.9469 75.9815 65.7267 75.6615 65.4512 75.4484C63.5785 73.582 55.9777 64.6242 55.3168 51.6141C59.5879 49.8515 63.3637 46.7226 66.5287 42.5059C81.6954 41.7148 94 29.6292 94 14.7516V7.99805C94 6.52445 92.7683 5.33203 91.2461 5.33203ZM88.4922 14.7516C88.4922 25.4892 80.5075 34.4623 70.1165 36.7345C74.2325 28.8038 76.2173 19.5616 76.9386 10.6641H88.4922V14.7516Z" fill="#FABE2C"/>
<path d="M51.3945 33.911L47 31.7005L42.6055 33.911C41.6857 34.3692 40.5615 34.2936 39.7172 33.7026C38.8727 33.109 38.4478 32.1041 38.6198 31.1095L39.4267 26.3736L35.9038 23.0073C35.1369 22.2836 34.9024 21.2106 35.2153 20.2841C35.538 19.3259 36.3932 18.623 37.4259 18.4721L42.3205 17.7586L44.5365 13.4706C45.4725 11.6638 48.5275 11.6638 49.4634 13.4706L51.6794 17.7586L56.574 18.4721C57.6067 18.6231 58.4619 19.3261 58.7847 20.2841C59.1074 21.2447 58.8438 22.2992 58.0962 23.0073L54.5732 26.3736L55.3801 31.1095C55.5523 32.1041 55.1273 33.109 54.2828 33.7026C53.4439 34.2911 52.3218 34.378 51.3945 33.911Z" fill="#FABE2C"/>
<path d="M51.3945 33.911C52.322 34.3781 53.4441 34.2912 54.2828 33.7027C55.1273 33.1091 55.5522 32.1042 55.3801 31.1096L54.5732 26.3737L58.0962 23.0074C58.8438 22.2993 59.1074 21.2448 58.7847 20.2842C58.4619 19.326 57.6068 18.623 56.574 18.4721L51.6794 17.7587L49.4635 13.4707C48.9955 12.5673 47.9978 12.1155 47 12.1155V31.7006L51.3945 33.911Z" fill="#FF9100"/>
<path d="M69.0312 91H24.9688C23.4466 91 22.2148 89.8076 22.2148 88.334C22.2148 86.8604 23.4466 85.668 24.9688 85.668H69.0312C70.5534 85.668 71.7852 86.8604 71.7852 88.334C71.7852 89.8076 70.5534 91 69.0312 91Z" fill="#474F54"/>
<path d="M69.0312 85.668H47V91H69.0312C70.5534 91 71.7852 89.8076 71.7852 88.334C71.7852 86.8604 70.5534 85.668 69.0312 85.668Z" fill="#32393F"/>
</svg>
