<svg width="50" height="50" viewBox="0 0 50 50" fill="none" xmlns="http://www.w3.org/2000/svg">
<g clip-path="url(#clip0)">
<path d="M49.2676 31.8755C49.6721 31.8755 50 31.5476 50 31.1431V27.248C50 26.3058 49.2333 25.5391 48.291 25.5391H41.4414V14.4789C41.4414 13.5366 40.6747 12.7699 39.7324 12.7699H33.5869V1.70898C33.5869 0.766699 32.8202 0 31.8779 0H18.1221C17.1798 0 16.4131 0.766699 16.4131 1.70898V12.7699H10.2676C9.32529 12.7699 8.55859 13.5366 8.55859 14.4789V25.5391H1.70898C0.766699 25.5391 0 26.3058 0 27.248V35.6277C0 36.0322 0.32793 36.3602 0.732422 36.3602C1.13691 36.3602 1.46484 36.0322 1.46484 35.6277V27.248C1.46484 27.1135 1.57441 27.0039 1.70898 27.0039L24.2676 27.0047V44.9251H21.2273V31.9151C21.2273 31.242 20.6798 30.6944 20.0066 30.6944H5.72578C5.05264 30.6944 4.50508 31.242 4.50508 31.9151V44.9252H1.70898C1.57441 44.9252 1.46484 44.8156 1.46484 44.6811V39.1434C1.46484 38.7389 1.13691 38.4109 0.732422 38.4109C0.32793 38.4109 0 38.7389 0 39.1434V44.6811C0 45.6233 0.766699 46.39 1.70898 46.39H2.4541V48.7793C2.4541 49.4524 3.00166 50 3.6748 50H6.48633C7.15947 50 7.70703 49.4524 7.70703 48.7793V46.39H18.0255V48.7793C18.0255 49.4524 18.573 50 19.2462 50H22.0577C22.7309 50 23.2784 49.4524 23.2784 48.7793V46.39H26.7218V48.7793C26.7218 49.4524 27.2693 50 27.9425 50H30.754C31.4271 50 31.9747 49.4524 31.9747 48.7793V46.39H42.2932V48.7793C42.2932 49.4524 42.8407 50 43.5139 50H46.3254C46.9985 50 47.5461 49.4524 47.5461 48.7793V46.39H48.2912C49.2335 46.39 50.0002 45.6233 50.0002 44.6811V34.6629C50.0002 34.2584 49.6723 33.9305 49.2678 33.9305C48.8633 33.9305 48.5354 34.2584 48.5354 34.6629V44.6811C48.5354 44.8156 48.4258 44.9252 48.2912 44.9252H45.4951V31.9151C45.4951 31.242 44.9476 30.6944 44.2744 30.6944H29.9934C29.3202 30.6944 28.7727 31.242 28.7727 31.9151V44.9252H25.7324V27.0047L48.291 27.0039C48.4256 27.0039 48.5352 27.1135 48.5352 27.248V31.1431C48.5352 31.5476 48.8631 31.8755 49.2676 31.8755ZM30.5097 48.5352H28.1864V46.39H30.5097V48.5352ZM44.0301 37.7928H30.2375V35.6436H44.0301V37.7928ZM44.0301 39.2576V41.4068H30.2375V39.2576H44.0301ZM35.5459 42.8717H38.7217V44.9252H35.5459V42.8717ZM46.0811 48.5352H43.7578V46.39H46.0811V48.5352ZM40.1865 44.9252V42.8717H44.0301V44.9252H40.1865ZM44.0301 32.1593V34.1787H30.2375V32.1593H44.0301ZM30.2375 42.8717H34.0811V44.9252H30.2375V42.8717ZM39.9766 14.4789V25.5391H25.7324V14.2348H30.3877V17.2322C30.3877 17.9054 30.9353 18.4529 31.6084 18.4529H34.1006C34.7737 18.4529 35.3213 17.9054 35.3213 17.2322V14.2348H39.7324C39.867 14.2348 39.9766 14.3443 39.9766 14.4789ZM31.8525 14.2348H33.8564V16.9881H31.8525V14.2348ZM23.998 1.46484H26.002V4.21816H23.998V1.46484ZM17.8779 1.70898C17.8779 1.57441 17.9875 1.46484 18.1221 1.46484H22.5332V4.4623C22.5332 5.13545 23.0808 5.68301 23.7539 5.68301H26.2461C26.9192 5.68301 27.4668 5.13545 27.4668 4.4623V1.46484H31.8779C32.0125 1.46484 32.1221 1.57441 32.1221 1.70898V12.7699H17.8779V1.70898ZM16.1436 14.2348H18.1475V16.9881H16.1436V14.2348ZM10.0234 14.4789C10.0234 14.3443 10.133 14.2348 10.2676 14.2348H14.6787V17.2322C14.6787 17.9054 15.2263 18.4529 15.8994 18.4529H18.3916C19.0647 18.4529 19.6123 17.9054 19.6123 17.2322V14.2348H24.2676V25.5391H10.0234V14.4789ZM11.2783 44.9252V42.8717H14.4541V44.9252H11.2783ZM19.7625 37.7928H5.96992V35.6436H19.7625V37.7928ZM19.7625 39.2576V41.4068H5.96992V39.2576H19.7625ZM15.9189 42.8717H19.7625V44.9252H15.9189V42.8717ZM19.7625 32.1593V34.1787H5.96992V32.1593H19.7625ZM5.96992 42.8717H9.81348V44.9252H5.96992V42.8717ZM6.24209 48.5352H3.91895V46.39H6.24219V48.5352H6.24209ZM21.8135 48.5352H19.4902V46.39H21.8135V48.5352Z" fill="#284C7D"/>
</g>
<defs>
<clipPath id="clip0">
<rect width="50" height="50" fill="white"/>
</clipPath>
</defs>
</svg>
