<svg width="28" height="30" viewBox="0 0 28 30" fill="none" xmlns="http://www.w3.org/2000/svg">
<path d="M27.5529 15.9687C27.3097 15.9687 27.1125 16.1658 27.1125 16.409V28.3083C27.1125 28.7555 26.7487 29.1193 26.3014 29.1193H15.9321C15.4848 29.1193 15.121 28.7555 15.121 28.3083V27.138C15.121 26.8948 14.9239 26.6976 14.6807 26.6976C14.4375 26.6976 14.2404 26.8948 14.2404 27.138V28.3083C14.2404 28.602 14.3157 28.8784 14.448 29.1193H1.03428C0.953359 29.1193 0.8875 29.0535 0.8875 28.9725V18.3496C0.8875 18.1065 0.690332 17.9093 0.447168 17.9093C0.204004 17.9093 0.00683594 18.1064 0.00683594 18.3496V28.9726C0.00683594 29.5391 0.467734 30 1.03422 30H26.3014C27.2342 30 27.9931 29.2411 27.9931 28.3083V16.409C27.9931 16.1658 27.796 15.9687 27.5529 15.9687Z" fill="white"/>
<path d="M26.3023 9.45596H22.0459V5.89651C22.0462 5.78085 21.9986 5.6667 21.9169 5.58508L16.4608 0.129009C16.3792 0.0472708 16.2651 -0.000248771 16.1494 -1.43959e-05H1.0352C0.468711 -1.43959e-05 0.0078125 0.460884 0.0078125 1.02737V16.5883C0.0078125 16.8315 0.20498 17.0287 0.448145 17.0287C0.691309 17.0287 0.888477 16.8315 0.888477 16.5883V1.02737C0.888477 0.946451 0.954336 0.880591 1.03525 0.880591H15.7091V4.72229C15.7091 5.61251 16.4334 6.33678 17.3236 6.33678H21.1653V9.4559H15.9331C15.0003 9.4559 14.2413 10.2148 14.2413 11.1476V11.2165H7.264C7.02084 11.2165 6.82367 11.4136 6.82367 11.6569C6.82367 11.9 7.02084 12.0972 7.264 12.0972H14.2413V15.0881H7.264C7.02084 15.0881 6.82367 15.2852 6.82367 15.5284C6.82367 15.7715 7.02084 15.9687 7.264 15.9687H14.2413V18.9596H7.264C7.02084 18.9596 6.82367 19.1567 6.82367 19.3999C6.82367 19.6431 7.02084 19.8402 7.264 19.8402H14.2413V22.8312H7.264C7.02084 22.8312 6.82367 23.0283 6.82367 23.2715C6.82367 23.5147 7.02084 23.7118 7.264 23.7118H14.2413V25.3768C14.2413 25.62 14.4385 25.8172 14.6817 25.8172C14.9249 25.8172 15.122 25.62 15.122 25.3768V11.1476C15.122 10.7004 15.4859 10.3366 15.9331 10.3366H26.3024C26.7497 10.3366 27.1135 10.7004 27.1135 11.1476V14.6477C27.1135 14.8909 27.3107 15.0881 27.5539 15.0881C27.797 15.0881 27.9942 14.8909 27.9942 14.6477V11.1476C27.9941 10.2149 27.2352 9.45596 26.3023 9.45596ZM16.5897 4.72229V1.50333L20.5426 5.45618H17.3236C16.9189 5.45618 16.5897 5.127 16.5897 4.72229Z" fill="white"/>
<path d="M25.8379 12.5134C25.8379 11.9469 25.377 11.486 24.8105 11.486H17.4997C16.9332 11.486 16.4723 11.9469 16.4723 12.5134V14.9996C16.4723 15.566 16.9332 16.0269 17.4997 16.0269H24.8105C25.377 16.0269 25.8379 15.566 25.8379 14.9996V12.5134ZM24.9573 14.9995C24.9573 15.0804 24.8915 15.1463 24.8105 15.1463H17.4997C17.4188 15.1463 17.3529 15.0804 17.3529 14.9995V12.5134C17.3529 12.4325 17.4188 12.3666 17.4997 12.3666H24.8105C24.8915 12.3666 24.9573 12.4325 24.9573 12.5134V14.9995Z" fill="white"/>
<path d="M16.4723 19.643C16.4723 20.1851 16.9133 20.6261 17.4554 20.6261H18.2938C18.8358 20.6261 19.2769 20.1851 19.2769 19.643V18.8046C19.2769 18.2625 18.8358 17.8215 18.2938 17.8215H17.4554C16.9133 17.8215 16.4723 18.2625 16.4723 18.8046V19.643ZM17.3529 18.8046C17.3529 18.7482 17.3989 18.7022 17.4554 18.7022H18.2938C18.3503 18.7022 18.3963 18.7482 18.3963 18.8046V19.6431C18.3963 19.6995 18.3503 19.7455 18.2938 19.7455H17.4554C17.3989 19.7455 17.3529 19.6995 17.3529 19.6431V18.8046Z" fill="white"/>
<path d="M22.5574 18.8046C22.5574 18.2625 22.1164 17.8216 21.5743 17.8216H20.7359C20.1938 17.8216 19.7528 18.2626 19.7528 18.8046V19.6431C19.7528 20.1851 20.1938 20.6262 20.7359 20.6262H21.5743C22.1164 20.6262 22.5574 20.1851 22.5574 19.6431V18.8046ZM21.6767 19.643C21.6767 19.6995 21.6307 19.7455 21.5743 19.7455H20.7359C20.6794 19.7455 20.6334 19.6995 20.6334 19.643V18.8046C20.6334 18.7481 20.6794 18.7021 20.7359 18.7021H21.5743C21.6308 18.7021 21.6768 18.7481 21.6768 18.8046V19.643H21.6767Z" fill="white"/>
<path d="M25.838 18.8046C25.838 18.2625 25.397 17.8216 24.855 17.8216H24.0165C23.4745 17.8216 23.0334 18.2626 23.0334 18.8046V19.6431C23.0334 20.1851 23.4745 20.6262 24.0165 20.6262H24.855C25.397 20.6262 25.838 20.1851 25.838 19.6431V18.8046ZM24.9574 19.643C24.9574 19.6995 24.9114 19.7455 24.855 19.7455H24.0165C23.96 19.7455 23.9141 19.6995 23.9141 19.643V18.8046C23.9141 18.7481 23.96 18.7021 24.0165 18.7021H24.855C24.9114 18.7021 24.9574 18.7481 24.9574 18.8046V19.643Z" fill="white"/>
<path d="M16.4723 23.2331C16.4723 23.7751 16.9133 24.2162 17.4554 24.2162H18.2938C18.8358 24.2162 19.2769 23.7751 19.2769 23.2331V22.3947C19.2769 21.8526 18.8358 21.4116 18.2938 21.4116H17.4554C16.9133 21.4116 16.4723 21.8526 16.4723 22.3947V23.2331ZM17.3529 22.3947C17.3529 22.3382 17.3989 22.2922 17.4554 22.2922H18.2938C18.3503 22.2922 18.3963 22.3381 18.3963 22.3947V23.2331C18.3963 23.2896 18.3503 23.3356 18.2938 23.3356H17.4554C17.3989 23.3356 17.3529 23.2896 17.3529 23.2331V22.3947Z" fill="white"/>
<path d="M22.5574 22.3947C22.5574 21.8526 22.1164 21.4116 21.5743 21.4116H20.7359C20.1938 21.4116 19.7528 21.8526 19.7528 22.3947V23.2331C19.7528 23.7751 20.1938 24.2162 20.7359 24.2162H21.5743C22.1164 24.2162 22.5574 23.7751 22.5574 23.2331V22.3947ZM21.6767 23.2331C21.6767 23.2896 21.6307 23.3356 21.5743 23.3356H20.7359C20.6794 23.3356 20.6334 23.2896 20.6334 23.2331V22.3947C20.6334 22.3382 20.6794 22.2922 20.7359 22.2922H21.5743C21.6308 22.2922 21.6768 22.3381 21.6768 22.3947V23.2331H21.6767Z" fill="white"/>
<path d="M16.4723 26.8232C16.4723 27.3652 16.9133 27.8062 17.4554 27.8062H18.2938C18.8358 27.8062 19.2769 27.3652 19.2769 26.8232V25.9847C19.2769 25.4427 18.8358 25.0017 18.2938 25.0017H17.4554C16.9133 25.0017 16.4723 25.4426 16.4723 25.9847V26.8232ZM17.3529 25.9848C17.3529 25.9283 17.3989 25.8823 17.4554 25.8823H18.2938C18.3503 25.8823 18.3963 25.9283 18.3963 25.9848V26.8232C18.3963 26.8797 18.3503 26.9257 18.2938 26.9257H17.4554C17.3989 26.9257 17.3529 26.8797 17.3529 26.8232V25.9848Z" fill="white"/>
<path d="M21.5743 25.0017H20.7359C20.1938 25.0017 19.7528 25.4427 19.7528 25.9848V26.8232C19.7528 27.3653 20.1938 27.8063 20.7359 27.8063H21.5743C22.1164 27.8063 22.5574 27.3653 22.5574 26.8232V25.9848C22.5574 25.4427 22.1164 25.0017 21.5743 25.0017ZM21.6767 26.8232C21.6767 26.8797 21.6307 26.9257 21.5743 26.9257H20.7359C20.6794 26.9257 20.6334 26.8797 20.6334 26.8232V25.9848C20.6334 25.9283 20.6794 25.8823 20.7359 25.8823H21.5743C21.6308 25.8823 21.6768 25.9282 21.6768 25.9848V26.8232H21.6767Z" fill="white"/>
<path d="M24.7718 21.4116H24.0997C23.5117 21.4116 23.0334 21.8899 23.0334 22.4778V26.74C23.0334 27.328 23.5117 27.8063 24.0997 27.8063H24.7718C25.3597 27.8063 25.838 27.328 25.838 26.74V22.4778C25.838 21.8899 25.3597 21.4116 24.7718 21.4116ZM24.9574 26.74C24.9574 26.8424 24.8742 26.9257 24.7718 26.9257H24.0997C23.9973 26.9257 23.9141 26.8424 23.9141 26.74V22.4778C23.9141 22.3754 23.9973 22.2922 24.0997 22.2922H24.7718C24.8742 22.2922 24.9574 22.3755 24.9574 22.4778V26.74Z" fill="white"/>
<path d="M3.52395 8.22567H5.28159C5.52475 8.22567 5.72192 8.02856 5.72192 7.78534C5.72192 7.54218 5.52481 7.34501 5.28159 7.34501H3.52395C3.28079 7.34501 3.08362 7.54218 3.08362 7.78534C3.08362 8.0285 3.28079 8.22567 3.52395 8.22567Z" fill="white"/>
<path d="M7.26296 8.22567H15.7374C15.9806 8.22567 16.1777 8.02856 16.1777 7.78534C16.1777 7.54218 15.9806 7.34501 15.7374 7.34501H7.26296C7.0198 7.34501 6.82263 7.54218 6.82263 7.78534C6.82269 8.0285 7.0198 8.22567 7.26296 8.22567Z" fill="white"/>
<path d="M3.52395 12.0971H5.28159C5.52475 12.0971 5.72192 11.9 5.72192 11.6568C5.72192 11.4137 5.52481 11.2165 5.28159 11.2165H3.52395C3.28079 11.2165 3.08362 11.4136 3.08362 11.6568C3.08362 11.9 3.28079 12.0971 3.52395 12.0971Z" fill="white"/>
<path d="M3.52395 15.9687H5.28159C5.52475 15.9687 5.72192 15.7715 5.72192 15.5283C5.72192 15.2852 5.52481 15.088 5.28159 15.088H3.52395C3.28079 15.088 3.08362 15.2852 3.08362 15.5283C3.08362 15.7715 3.28079 15.9687 3.52395 15.9687Z" fill="white"/>
<path d="M3.52395 19.8402H5.28159C5.52475 19.8402 5.72192 19.643 5.72192 19.3998C5.72192 19.1567 5.52481 18.9595 5.28159 18.9595H3.52395C3.28079 18.9595 3.08362 19.1567 3.08362 19.3998C3.08362 19.6431 3.28079 19.8402 3.52395 19.8402Z" fill="white"/>
<path d="M3.52395 23.7117H5.28159C5.52475 23.7117 5.72192 23.5146 5.72192 23.2714C5.72192 23.0281 5.52481 22.831 5.28159 22.831H3.52395C3.28079 22.831 3.08362 23.0281 3.08362 23.2714C3.08362 23.5146 3.28079 23.7117 3.52395 23.7117Z" fill="white"/>
</svg>
