<svg width="50" height="39" viewBox="0 0 50 39" fill="none" xmlns="http://www.w3.org/2000/svg">
<path d="M48.8452 13.0727C48.7481 12.7267 48.4661 12.4919 48.1476 12.4919H45.7177L45.1423 10.2536C45.1371 10.2339 45.1314 10.2143 45.1251 10.195C44.5562 8.46714 43.087 7.30617 41.4692 7.30617H31.6424C31.6424 6.32804 31.6424 3.62763 31.6424 2.64749C31.6424 1.18759 30.6015 0 29.3219 0H3.08055C1.80097 0 0.760055 1.18759 0.760055 2.64749V4.10037V26.5165C0.299413 26.9147 0 27.5436 0 28.2525V31.0275C0 32.2111 0.844039 33.1741 1.88144 33.1741H4.43572C4.79509 36.2351 7.09752 38.604 9.8771 38.604C12.6567 38.604 14.9592 36.2349 15.3185 33.1741H31.9762C32.3356 36.2351 34.638 38.604 37.4176 38.604C40.1972 38.604 42.4997 36.2349 42.859 33.1741H46.5199C47.5573 33.1741 48.4013 32.2111 48.4013 31.0275V27.3541V25.2533C48.4013 21.8978 47.7173 20.1757 46.1474 14.1631H47.6131L48.5699 17.5728C48.6934 18.013 49.1064 18.2546 49.4908 18.1137C49.8759 17.973 50.0883 17.5027 49.9649 17.0631L48.8452 13.0727ZM41.4693 8.97743C42.4275 8.97743 43.2932 9.63947 43.6747 10.5709C41.4194 10.5709 34.1084 10.5709 31.6424 10.5709V8.97743H41.4693ZM30.1776 31.5028H15.3201C15.1586 30.1224 14.5761 28.769 13.6075 27.7442H30.1776V31.5028ZM2.22489 2.64749C2.22489 2.10924 2.60878 1.67126 3.08055 1.67126H29.3219C29.7937 1.67126 30.1776 2.10924 30.1776 2.64749V3.26474H17.9102C17.5056 3.26474 17.1777 3.63877 17.1777 4.10037C17.1777 4.56197 17.5056 4.936 17.9102 4.936H30.1776V26.0729C28.3102 26.0729 3.34237 26.0729 2.22499 26.0729V4.936H14.4923C14.8969 4.936 15.2247 4.56197 15.2247 4.10037C15.2247 3.63877 14.8969 3.26474 14.4923 3.26474H2.22489V2.64749ZM1.46484 31.0275V28.2525C1.46484 27.9721 1.66474 27.7441 1.91044 27.7441H6.14684C5.18357 28.7629 4.59636 30.115 4.43406 31.5027H1.88144C1.65556 31.5028 1.46484 31.2852 1.46484 31.0275ZM9.8771 36.9327C7.6567 36.9327 5.85026 34.8718 5.85026 32.3385C5.85026 29.7998 7.661 27.7442 9.8771 27.7442C12.0844 27.7442 13.9039 29.7915 13.9039 32.3385C13.9039 34.8718 12.0975 36.9327 9.8771 36.9327ZM31.6424 12.2422H33.8415V18.7265C33.8415 19.821 34.6219 20.7114 35.5812 20.7114H36.6826C36.9904 20.7114 37.2921 20.8325 37.5319 21.0524L37.895 21.3851C38.2105 21.6741 38.6715 21.6166 38.9248 21.2569C39.1781 20.8972 39.1277 20.3712 38.8125 20.082L38.4493 19.7493C37.9503 19.2921 37.3229 19.0403 36.6826 19.0403H35.5812C35.4296 19.0403 35.3064 18.8996 35.3064 18.7266V12.2423H44.127C46.1232 20.0068 46.6028 21.1365 46.8392 23.4011H42.9119C42.6042 23.4011 42.3025 23.28 42.0626 23.0601L41.478 22.5243C41.1626 22.2354 40.7016 22.2928 40.4482 22.6524C40.1949 23.0122 40.2453 23.5382 40.5605 23.8273L41.1452 24.3631C41.6443 24.8204 42.2718 25.0723 42.9119 25.0723H46.9347C46.9353 25.1327 46.9365 25.193 46.9365 25.2533V26.5185H45.7911C44.9103 26.5185 44.1938 27.3361 44.1938 28.3408V31.5027H42.8608C42.4975 28.3982 40.1572 26.0728 37.4178 26.0728C34.6413 26.0728 32.3329 28.4411 31.9747 31.5027H31.6426C31.6424 28.0198 31.6424 14.2414 31.6424 12.2422ZM37.4176 36.9327C35.1972 36.9327 33.3908 34.8718 33.3908 32.3385C33.3908 29.8052 35.1972 27.7442 37.4176 27.7442C39.638 27.7442 41.4444 29.8052 41.4444 32.3385C41.4444 34.8718 39.6381 36.9327 37.4176 36.9327ZM46.9365 31.0275C46.9365 31.2852 46.7458 31.5028 46.5199 31.5028H45.6586V28.3409C45.6586 28.259 45.7192 28.1899 45.791 28.1899H46.9364V31.0275H46.9365Z" fill="#284C7D"/>
</svg>
