<svg width="55" height="55" viewBox="0 0 55 55" fill="none" xmlns="http://www.w3.org/2000/svg">
<path d="M53.9237 26.4435C53.9235 26.4435 53.9234 26.4435 53.9232 26.4435C53.3302 26.4435 52.8494 26.924 52.8491 27.5171C52.8456 34.2827 50.2091 40.6435 45.4248 45.4276C40.6373 50.2152 34.2719 52.8519 27.5012 52.8519C20.7305 52.8519 14.3653 50.2151 9.57763 45.4275C4.79005 40.6401 2.15338 34.2745 2.15338 27.5039C2.15338 20.7332 4.78994 14.3678 9.57763 9.58021C17.2607 1.89707 28.9666 -0.0402803 38.7064 4.75911C39.2381 5.02122 39.8823 4.80241 40.1445 4.27045C40.4067 3.73839 40.1879 3.0945 39.6559 2.83229C29.0905 -2.37391 16.3927 -0.27242 8.05879 8.06126C2.86548 13.2546 0.00537109 20.1593 0.00537109 27.5039C0.00537109 34.8483 2.86548 41.7532 8.05868 46.9466C13.2521 52.1399 20.157 54.9999 27.5014 54.9999C34.8458 54.9999 41.7507 52.1398 46.944 46.9466C52.1334 41.757 54.9935 34.8571 54.9973 27.5182C54.9975 26.9249 54.517 26.4438 53.9237 26.4435Z" fill="#2D313A"/>
<path d="M43.3458 5.02825L43.3177 5.00859C42.832 4.66841 42.1622 4.78657 41.822 5.27261C41.482 5.75845 41.6003 6.42807 42.0862 6.76825L42.1113 6.78597C42.2991 6.91788 42.5144 6.98125 42.7276 6.98125C43.0656 6.98125 43.3983 6.82206 43.6074 6.52452C43.9484 6.03901 43.8313 5.36929 43.3458 5.02825Z" fill="#2D313A"/>
<path d="M48.5327 26.4219C47.9396 26.4219 47.4586 26.9027 47.4586 27.4959L47.4585 27.5616C47.4558 28.1547 47.9345 28.6377 48.5277 28.6403C48.5294 28.6403 48.5309 28.6404 48.5327 28.6404C49.1235 28.6404 49.604 28.1627 49.6066 27.5711L49.6067 27.4958C49.6067 26.9027 49.1258 26.4219 48.5327 26.4219Z" fill="#2D313A"/>
<path d="M48.3018 30.8022C47.7216 30.6796 47.1519 31.0515 47.0296 31.632C45.0977 40.811 36.8761 47.4733 27.4807 47.4733C16.465 47.4733 7.5031 38.5114 7.5031 27.4957C7.5031 20.3616 11.2622 13.8808 17.2755 10.315C17.2057 10.7659 17.4304 11.2291 17.8611 11.4419C18.0142 11.5175 18.1765 11.5534 18.3362 11.5534C18.7319 11.5534 19.1126 11.3337 19.3 10.9549L20.4898 8.54716C20.7526 8.01542 20.5345 7.37132 20.0028 7.10846L17.595 5.91854C17.063 5.65568 16.4191 5.87386 16.1561 6.4056C15.8933 6.93733 16.1113 7.58144 16.6431 7.8443L16.9834 8.01241C9.85531 11.8473 5.35498 19.2805 5.35498 27.4955C5.35498 39.6956 15.2804 49.6212 27.4807 49.6212C32.587 49.6212 37.5691 47.8402 41.5092 44.6062C45.3952 41.4166 48.1022 36.9661 49.1318 32.0743C49.2538 31.494 48.8823 30.9243 48.3018 30.8022Z" fill="#2D313A"/>
<path d="M27.4999 24.0669C25.9799 24.0669 24.6879 25.0593 24.2357 26.4299H15.3629C14.7699 26.4299 14.2888 26.9107 14.2888 27.504C14.2888 28.097 14.7697 28.5781 15.3629 28.5781H24.2357C24.5763 29.6105 25.3933 30.4276 26.4258 30.7682V42.4948C26.4258 43.0879 26.9067 43.5689 27.4998 43.5689C28.0929 43.5689 28.5739 43.088 28.5739 42.4948V30.7681C29.9445 30.3159 30.9368 29.0239 30.9368 27.5039C30.9368 25.6087 29.395 24.0669 27.4999 24.0669ZM27.4999 28.7928C26.7892 28.7928 26.211 28.2147 26.211 27.504C26.211 26.7933 26.7892 26.2151 27.4999 26.2151C28.2106 26.2151 28.7887 26.7933 28.7887 27.504C28.7887 28.2147 28.2106 28.7928 27.4999 28.7928Z" fill="#2D313A"/>
<path d="M32.4409 20.0721H30.3478C31.8402 18.5739 33.515 16.4072 33.515 14.2271C33.515 12.1014 32.0867 10.6731 29.961 10.6731C28.0013 10.6731 26.407 12.2674 26.407 14.2271C26.407 14.8202 26.8879 15.3011 27.481 15.3011C28.074 15.3011 28.555 14.8203 28.555 14.2271C28.555 13.4518 29.1858 12.8211 29.9611 12.8211C31.3671 12.8211 31.3671 13.8794 31.3671 14.2271C31.367 16.4575 28.1022 19.3535 26.8448 20.2808C26.471 20.5558 26.3159 21.0398 26.4606 21.4809C26.6054 21.9218 27.017 22.2201 27.4811 22.2201H32.4412C33.0342 22.2201 33.5152 21.7393 33.5152 21.1461C33.515 20.5529 33.034 20.0721 32.4409 20.0721Z" fill="#2D313A"/>
<path d="M43.5949 15.3768H43.428V11.7471C43.428 11.154 42.9471 10.6731 42.3539 10.6731C41.7608 10.6731 41.2799 11.1539 41.2799 11.7471V15.3768H38.3849V11.7471C38.3849 11.154 37.904 10.6731 37.3108 10.6731C36.7178 10.6731 36.2368 11.1539 36.2368 11.7471V16.4508C36.2368 17.0439 36.7177 17.5248 37.3108 17.5248H41.2799V21.1649C41.2799 21.758 41.7608 22.2389 42.3539 22.2389C42.9471 22.2389 43.428 21.7581 43.428 21.1649V17.5248H43.5949C44.1879 17.5248 44.6689 17.044 44.6689 16.4508C44.6689 15.8575 44.1879 15.3768 43.5949 15.3768Z" fill="#2D313A"/>
<path d="M51.173 15.4039C50.728 15.4039 50.303 15.4906 49.913 15.6465V11.7471C49.913 11.154 49.4321 10.6731 48.8389 10.6731C48.2458 10.6731 47.7649 11.1539 47.7649 11.7471V21.1462C47.7649 21.7393 48.2458 22.2202 48.8389 22.2202C49.4321 22.2202 49.913 21.7394 49.913 21.1462V19.8332V18.812C49.913 18.1171 50.4783 17.5519 51.173 17.5519C51.868 17.5519 52.4332 18.1172 52.4332 18.812V21.1462C52.4332 21.7393 52.9141 22.2202 53.5072 22.2202C54.1004 22.2202 54.5813 21.7394 54.5813 21.1462V18.812C54.5812 16.9327 53.0522 15.4039 51.173 15.4039Z" fill="#2D313A"/>
</svg>
