<svg width="50" height="50" viewBox="0 0 50 50" fill="none" xmlns="http://www.w3.org/2000/svg">
<path d="M8.06444 45.9677C8.06444 46.4131 7.70335 46.7742 7.25799 46.7742C6.81263 46.7742 6.45154 46.4131 6.45154 45.9677C6.45154 45.5224 6.81263 45.1613 7.25799 45.1613C7.70335 45.1613 8.06444 45.5224 8.06444 45.9677Z" fill="#2D313A"/>
<path d="M32.258 45.9677C32.258 46.4131 31.897 46.7742 31.4516 46.7742C31.0062 46.7742 30.6451 46.4131 30.6451 45.9677C30.6451 45.5224 31.0062 45.1613 31.4516 45.1613C31.897 45.1613 32.258 45.5224 32.258 45.9677Z" fill="#2D313A"/>
<path d="M25.8065 45.9677C25.8065 46.4131 25.4454 46.7742 25.0001 46.7742C24.5547 46.7742 24.1936 46.4131 24.1936 45.9677C24.1936 45.5224 24.5547 45.1613 25.0001 45.1613C25.4454 45.1613 25.8065 45.5224 25.8065 45.9677Z" fill="#2D313A"/>
<path d="M11.2903 34.6774H6.11772L3.22583 37.5693V41.129H11.2903V34.6774ZM9.67744 39.5161H4.83873V38.2372L6.78556 36.2903H9.67744V39.5161Z" fill="#2D313A"/>
<path d="M50 9.67742V5.40063L46.3993 0H10.0523L6.45161 5.40063V9.67742H8.06452V31.4516H4.50479L0 35.9564V45.1613C0 46.495 1.08564 47.5806 2.41935 47.5806H3.5676C4.19213 49.0026 5.60893 50 7.25806 50C8.9072 50 10.324 49.0026 10.9485 47.5806H21.3095C21.9341 49.0026 23.3509 50 25 50C26.3235 50 27.4902 49.3499 28.2258 48.3623C28.9614 49.3499 30.1281 50 31.4516 50C33.1007 50 34.5175 49.0026 35.1421 47.5806H36.2903C37.624 47.5806 38.7097 46.495 38.7097 45.1613V43.3999C38.9629 43.4905 39.2322 43.5484 39.5161 43.5484H47.5806C48.9144 43.5484 50 42.4627 50 41.129V33.0645C50 32.0147 49.3235 31.1275 48.3871 30.7936V9.67742H50ZM10.9154 1.6129H45.5362L47.687 4.83871H46.7742V6.45161H48.3871V8.06452H8.06452V6.45161H9.67742V4.83871H8.76465L10.9154 1.6129ZM5.17263 33.0645H12.9032V42.7419H9.65261C8.98083 42.2418 8.15745 41.9355 7.25806 41.9355C6.35868 41.9355 5.5353 42.2418 4.86352 42.7419H1.6129V36.6242L5.17263 33.0645ZM19.3548 12.9032H22.5806V14.5161H19.3548V12.9032ZM24.1935 16.129V12.9032H29.0323V16.129H25.8065V27.4194H24.1935V24.1935H17.7419V27.4194H12.9032V12.9032H17.7419V16.129H24.1935ZM33.871 17.7419H37.0968V19.3548H33.871V17.7419ZM38.7097 20.9677V17.7419H43.5484V30.6452H39.5161C39.2322 30.6452 38.9629 30.703 38.7097 30.7936V27.4194H27.4194V17.7419H32.2581V20.9677H38.7097ZM41.9355 32.2581H45.1613V33.871H41.9355V32.2581ZM33.8462 42.7419C33.1744 42.2418 32.351 41.9355 31.4516 41.9355C30.1281 41.9355 28.9614 42.5856 28.2258 43.5732C27.4902 42.5856 26.3235 41.9355 25 41.9355C24.0998 41.9355 23.2772 42.2418 22.6055 42.7419H14.5161V29.0323H37.0968V42.7419H33.8462ZM22.5806 27.4194H19.3548V25.8065H22.5806V27.4194ZM2.41935 45.9677C1.97518 45.9677 1.6129 45.6055 1.6129 45.1613V44.3548H3.5676C3.34985 44.8498 3.22581 45.3936 3.22581 45.9677H2.41935ZM7.25806 48.3871C5.92435 48.3871 4.83871 47.3015 4.83871 45.9677C4.83871 44.634 5.92435 43.5484 7.25806 43.5484C8.59178 43.5484 9.67742 44.634 9.67742 45.9677C9.67742 47.3015 8.59178 48.3871 7.25806 48.3871ZM10.9485 44.3548H12.9032V45.9677H11.2903C11.2903 45.3936 11.1663 44.8498 10.9485 44.3548ZM14.5161 45.9677V44.3548H21.3095C21.0918 44.8498 20.9677 45.3936 20.9677 45.9677H14.5161ZM25 48.3871C23.6663 48.3871 22.5806 47.3015 22.5806 45.9677C22.5806 44.634 23.6663 43.5484 25 43.5484C26.3337 43.5484 27.4194 44.634 27.4194 45.9677C27.4194 47.3015 26.3337 48.3871 25 48.3871ZM31.4516 48.3871C30.1179 48.3871 29.0323 47.3015 29.0323 45.9677C29.0323 44.634 30.1179 43.5484 31.4516 43.5484C32.7853 43.5484 33.871 44.634 33.871 45.9677C33.871 47.3015 32.7853 48.3871 31.4516 48.3871ZM36.2903 45.9677H35.4839C35.4839 45.3936 35.3598 44.8498 35.1421 44.3548H37.0968V45.1613C37.0968 45.6055 36.7345 45.9677 36.2903 45.9677ZM45.1613 41.9355H41.9355V40.3226H45.1613V41.9355ZM48.3871 41.129C48.3871 41.5732 48.0248 41.9355 47.5806 41.9355H46.7742V38.7097H40.3226V41.9355H39.5161C39.0719 41.9355 38.7097 41.5732 38.7097 41.129V33.0645C38.7097 32.6203 39.0719 32.2581 39.5161 32.2581H40.3226V35.4839H46.7742V32.2581H47.5806C48.0248 32.2581 48.3871 32.6203 48.3871 33.0645V41.129ZM46.7742 30.6452H45.1613V16.129H30.6452V11.2903H11.2903V29.0323H12.9032V31.4516H9.67742V9.67742H46.7742V30.6452Z" fill="#2D313A"/>
<path d="M20.1613 30.6452V41.129H31.4516V30.6452H20.1613ZM29.8387 39.5161H21.7742V32.2581H29.8387V39.5161Z" fill="#2D313A"/>
<path d="M11.2903 4.83871H45.1612V6.45161H11.2903V4.83871Z" fill="#2D313A"/>
</svg>
