<svg width="40" height="40" viewBox="0 0 40 40" fill="none" xmlns="http://www.w3.org/2000/svg">
<g clip-path="url(#clip0)">
<path d="M39.9267 9.48497C39.789 8.97302 39.4532 8.53657 38.9936 8.27196C38.5337 8.00606 37.9869 7.93413 37.474 8.0718C36.9617 8.2098 36.5253 8.54535 36.2607 9.00491L35.9274 9.58489C35.6107 9.40296 35.2062 9.51003 35.021 9.82508L33.3279 12.711L32.7479 12.3777C32.5943 12.2889 32.4114 12.2648 32.2402 12.311C32.0687 12.3575 31.9229 12.4701 31.8347 12.6244C31.654 12.943 31.764 13.3479 32.0814 13.5308L32.6613 13.8641L26.9956 23.6824L25.5958 27.422L24.9293 28.6682C24.539 29.3471 24.5807 30.1911 25.036 30.828L23.5363 32.6675L23.1164 31.6147C22.927 31.1453 22.4886 30.8238 21.9844 30.7844C21.48 30.7447 20.9967 30.994 20.7366 31.4278L20.4967 31.8344L20.2702 29.1681C20.2181 28.5374 19.7296 28.0303 19.1015 27.9542C18.473 27.8783 17.878 28.2549 17.6772 28.855L16.0375 33.7741C15.923 34.122 16.1104 34.497 16.4574 34.6142C16.5225 34.6444 16.5925 34.6626 16.6641 34.6672C16.9505 34.6682 17.2056 34.4856 17.2974 34.2142L18.9303 29.2951L19.1636 32.001C19.2118 32.5784 19.6268 33.0584 20.1911 33.1893C20.7555 33.3201 21.3394 33.0714 21.6365 32.5745L21.8832 32.1676L22.2966 33.2143C22.472 33.6553 22.8687 33.9701 23.3384 34.04C23.808 34.11 24.2793 33.9248 24.5761 33.5541L26.1292 31.588C26.3011 31.6329 26.4781 31.6553 26.6559 31.6547C27.3702 31.6602 28.0335 31.284 28.3955 30.6679L29.062 29.5548L31.6016 26.4687L37.3272 16.5303L37.9072 16.8636C38.0618 16.9521 38.1744 17.0983 38.2203 17.2704C38.2665 17.4413 38.2424 17.6236 38.1539 17.7769L35.4877 22.3962C35.3871 22.5478 35.3529 22.734 35.3933 22.9117C35.4337 23.0891 35.5446 23.2424 35.7009 23.3358C35.8545 23.425 36.0374 23.4491 36.2086 23.4028C36.3801 23.3563 36.5259 23.2437 36.6141 23.0894L39.2803 18.4701C39.5462 18.0102 39.6182 17.4634 39.4802 16.9505C39.3422 16.4382 39.0066 16.0018 38.5471 15.7372L37.9671 15.4039L39.6335 12.5177C39.8154 12.201 39.7083 11.7968 39.3936 11.6112L39.7269 11.0313C39.9999 10.5642 40.0722 10.0064 39.9267 9.48497ZM37.4138 9.67146C37.502 9.51719 37.6484 9.40426 37.8206 9.35837C37.9918 9.31606 38.1728 9.33982 38.327 9.42509C38.4816 9.51329 38.5942 9.65975 38.6405 9.83159C38.6828 10.0028 38.659 10.1837 38.5737 10.338L38.2405 10.918L37.0805 10.2514L37.4138 9.67146ZM28.3287 28.2819L27.9955 28.0886L27.009 27.5151L27.9554 24.9823L30.055 26.1953L28.3287 28.2819ZM26.3291 30.208C26.0476 30.0117 25.961 29.6342 26.1292 29.3348L26.4625 28.7551L27.6222 29.4217L27.2889 29.9948C27.1955 30.1569 27.0386 30.2721 26.856 30.3128C26.6734 30.3532 26.4824 30.3154 26.3291 30.208ZM30.815 25.1024L28.5087 23.7693L33.8412 14.5307L36.1474 15.8638L30.815 25.1024ZM36.814 14.7106L34.5077 13.3775L35.8408 11.0713L38.1471 12.4044L36.814 14.7106Z" fill="#284C7D"/>
<path d="M10.518 29.8751L8.15874 32.2282L6.74557 30.8151C6.48553 30.5566 6.06568 30.5566 5.80563 30.8151C5.67935 30.9404 5.6084 31.1106 5.6084 31.2883C5.6084 31.466 5.67935 31.6365 5.80563 31.7615L7.2188 33.1747C7.46876 33.4227 7.80659 33.5616 8.15874 33.5613C8.51285 33.5633 8.85361 33.4243 9.10519 33.1747L11.458 30.8151C11.6845 30.5504 11.6692 30.1563 11.4232 29.9103C11.1768 29.6639 10.7826 29.6486 10.518 29.8751Z" fill="#284C7D"/>
<path d="M2.66602 31.668C2.66602 34.7973 5.20269 37.3336 8.33172 37.3336C11.4607 37.3336 13.9974 34.7973 13.9974 31.668C13.9974 31.2999 13.699 31.0014 13.3309 31.0014C12.9628 31.0014 12.6643 31.2999 12.6643 31.668C12.6643 34.0608 10.7245 36.0005 8.33172 36.0005C5.9389 36.0005 3.99912 34.0608 3.99912 31.668C3.99912 29.2751 5.9389 27.3354 8.33172 27.3354C9.26971 27.3328 10.1826 27.6371 10.9312 28.2021C11.2258 28.4231 11.6437 28.3632 11.8643 28.0686C12.0853 27.7741 12.0258 27.3565 11.7312 27.1355C10.0144 25.848 7.71724 25.641 5.79797 26.6005C3.87837 27.5603 2.66602 29.5222 2.66602 31.668Z" fill="#284C7D"/>
<path d="M23.996 5.33897C24.3641 5.33897 24.6625 5.04084 24.6625 4.67241C24.6625 4.30431 24.3641 4.00586 23.996 4.00586H6.66558C6.29748 4.00586 5.99902 4.30431 5.99902 4.67241V7.33862C5.99902 7.70705 6.29748 8.00518 6.66558 8.00518H23.996C24.3641 8.00518 24.6625 7.70705 24.6625 7.33862C24.6625 6.97052 24.3641 6.67207 23.996 6.67207H7.33213V5.33897H23.996Z" fill="#284C7D"/>
<path d="M8.66558 9.33838C8.29747 9.33838 7.99902 9.63683 7.99902 10.0049C7.99902 10.3733 8.29747 10.6715 8.66558 10.6715H21.9966C22.3647 10.6715 22.6632 10.3733 22.6632 10.0049C22.6632 9.63683 22.3647 9.33838 21.9966 9.33838H8.66558Z" fill="#284C7D"/>
<path d="M25.9958 14.0044H11.3316C10.9635 14.0044 10.665 14.3028 10.665 14.6709C10.665 15.0394 10.9635 15.3375 11.3316 15.3375H25.9958C26.3639 15.3375 26.6623 15.0394 26.6623 14.6709C26.6623 14.3028 26.3639 14.0044 25.9958 14.0044Z" fill="#284C7D"/>
<path d="M19.3302 18.67C19.3302 18.3019 19.0317 18.0034 18.6636 18.0034H5.33257C4.96447 18.0034 4.66602 18.3019 4.66602 18.67C4.66602 19.0384 4.96447 19.3365 5.33257 19.3365H18.6636C19.0317 19.3365 19.3302 19.0384 19.3302 18.67Z" fill="#284C7D"/>
<path d="M25.9955 18.0034H21.3296C20.9615 18.0034 20.6631 18.3019 20.6631 18.67C20.6631 19.0384 20.9615 19.3365 21.3296 19.3365H25.9955C26.3636 19.3365 26.6621 19.0384 26.6621 18.67C26.6621 18.3019 26.3636 18.0034 25.9955 18.0034Z" fill="#284C7D"/>
<path d="M11.9981 22.6696C12.3662 22.6696 12.6647 22.3714 12.6647 22.003C12.6647 21.6349 12.3662 21.3364 11.9981 21.3364H5.33257C4.96447 21.3364 4.66602 21.6349 4.66602 22.003C4.66602 22.3714 4.96447 22.6696 5.33257 22.6696H11.9981Z" fill="#284C7D"/>
<path d="M14.6646 22.6696H19.3305C19.6986 22.6696 19.997 22.3714 19.997 22.003C19.997 21.6349 19.6986 21.3364 19.3305 21.3364H14.6646C14.2965 21.3364 13.998 21.6349 13.998 22.003C13.998 22.3714 14.2965 22.6696 14.6646 22.6696Z" fill="#284C7D"/>
<path d="M29.9949 30.6683C29.6268 30.6683 29.3283 30.9667 29.3283 31.3348V38.0004C29.3283 38.3688 29.0299 38.6669 28.6618 38.6669H1.99966C1.63156 38.6669 1.33311 38.3688 1.33311 38.0004V2.0065C1.33311 1.63839 1.63156 1.33994 1.99966 1.33994H28.6618C29.0299 1.33994 29.3283 1.63839 29.3283 2.0065V14.5245C29.3283 14.8926 29.6268 15.1911 29.9949 15.1911C30.363 15.1911 30.6614 14.8926 30.6614 14.5245V2.0065C30.6614 0.902191 29.7661 0.00683594 28.6618 0.00683594H1.99966C0.895355 0.00683594 0 0.902191 0 2.0065V38.0004C0 39.105 0.895355 40 1.99966 40H28.6618C29.7661 40 30.6614 39.105 30.6614 38.0004V31.3348C30.6614 30.9667 30.363 30.6683 29.9949 30.6683Z" fill="#284C7D"/>
</g>
<defs>
<clipPath id="clip0">
<rect width="40" height="40" fill="white"/>
</clipPath>
</defs>
</svg>
