<svg width="50" height="50" viewBox="0 0 50 50" fill="none" xmlns="http://www.w3.org/2000/svg">
<path d="M25.7812 36.8625V35.1562H24.2188V36.7188H22.6562V39.0625C22.6562 40.3547 23.7078 41.4062 25 41.4062C25.4305 41.4062 25.7812 41.7562 25.7812 42.1875V42.9688H25C24.5695 42.9688 24.2188 42.6188 24.2188 42.1875V41.4062H22.6562V42.1875C22.6562 43.2047 23.3117 44.0641 24.2188 44.3875V46.0938H25.7812V44.5312H27.3438V42.1875C27.3438 40.8953 26.2922 39.8438 25 39.8438C24.5695 39.8438 24.2188 39.4938 24.2188 39.0625V38.2812H25C25.4305 38.2812 25.7812 38.6312 25.7812 39.0625V39.8438H27.3438V39.0625C27.3438 38.0453 26.6883 37.1859 25.7812 36.8625Z" fill="#2D313A"/>
<path d="M27.4409 4.0571C26.9019 3.98992 26.3534 3.9446 25.8136 3.92273L25.7495 5.48445C26.2464 5.50476 26.7503 5.54617 27.2472 5.60789L27.4409 4.0571Z" fill="#2D313A"/>
<path d="M24.2507 5.48428L24.1874 3.92334C23.6476 3.94521 23.0991 3.99053 22.5601 4.05771L22.753 5.60771C23.2491 5.546 23.753 5.50459 24.2507 5.48428Z" fill="#2D313A"/>
<path d="M33.4758 39.2656C33.3047 38.1969 32.9391 37.1953 32.4117 36.2961C37.0156 33.6461 39.8438 28.7977 39.8438 23.4375C39.8438 15.2523 33.1852 8.59375 25 8.59375C21.8992 8.59375 18.907 9.56719 16.4062 11.3461V7.66641C17.9312 6.83359 19.5578 6.21875 21.2555 5.85938L20.932 4.33047C19.3609 4.66328 17.8453 5.19453 16.4062 5.90156V2.34375C16.4062 1.48203 15.7055 0.78125 14.8438 0.78125H3.90625C3.04453 0.78125 2.34375 1.48203 2.34375 2.34375V13.2812C2.34375 14.143 3.04453 14.8438 3.90625 14.8438H7.03125V27.3438C7.03125 27.775 6.68047 28.125 6.25 28.125C5.81953 28.125 5.46875 27.775 5.46875 27.3438V22.6562C5.46875 20.9328 4.06719 19.5312 2.34375 19.5312C1.48203 19.5312 0.78125 20.232 0.78125 21.0938V28.5914C0.78125 31.9016 1.88906 35.1508 3.90625 37.7703V49.2188H19.5312V47.2578C21.0523 48.5195 22.9641 49.2188 25 49.2188C29.6219 49.2188 33.393 45.5484 33.5766 40.9711C37.9141 38.8477 41.2953 35.2484 43.1117 30.7617L41.6633 30.1758C40.075 34.0984 37.1836 37.2805 33.4758 39.2656ZM31.4969 35.0164C30.9125 34.3406 30.2242 33.7594 29.4578 33.2914C29.9797 32.3812 30.4273 31.4414 30.7906 30.4688H36.2797C35.1188 32.3312 33.4875 33.9 31.4969 35.0164ZM17.8781 21.2656C17.6086 20.2695 16.7055 19.5312 15.625 19.5312C15.3164 19.5312 15.0234 19.5945 14.7531 19.7031C14.5148 18.8258 13.7867 18.1555 12.8766 18.0063C12.882 17.9937 12.8875 17.9805 12.893 17.968H18.7094C18.4336 18.9625 18.2242 20.0383 18.1008 21.1961C18.0258 21.2188 17.95 21.2367 17.8781 21.2656ZM16.4016 13.3297C18.2547 11.7531 20.4859 10.7258 22.8633 10.3391C21.7219 11.6008 20.2445 13.6164 19.2094 16.407H13.7477C14.0898 15.8602 14.4711 15.3367 14.8953 14.8391C15.7156 14.8117 16.3758 14.1508 16.4016 13.3297ZM38.2414 22.6562H31.9992C31.9367 20.932 31.6805 19.3695 31.2922 17.9688H37.0891C37.7453 19.4133 38.1445 20.993 38.2414 22.6562ZM21.0938 27.8719V24.2188H30.443C30.3797 25.8477 30.1211 27.4133 29.6656 28.9062H21.0734C21.0844 28.5617 21.0938 28.2172 21.0938 27.8719ZM32.0055 24.2188H38.2539C38.1586 25.8672 37.7664 27.4508 37.1117 28.9062H31.3016C31.718 27.4062 31.9477 25.8398 32.0055 24.2188ZM30.4367 22.6562H20.95C20.7297 22.0375 20.2648 21.5344 19.6633 21.2789C19.7977 20.0852 20.0258 18.975 20.3352 17.9688H29.6523C30.0781 19.3523 30.3664 20.9172 30.4367 22.6562ZM20.9039 16.4062C22.2203 13.2234 24.1258 11.2102 24.9992 10.4062C25.8703 11.207 27.782 13.2094 29.1016 16.4062H20.9039ZM11.7188 16.8391V14.8438H12.9023C12.4516 15.4766 12.0633 16.1461 11.7188 16.8391ZM20.9836 30.4688H29.1055C28.8047 31.2 28.4531 31.9109 28.0523 32.6016C27.1023 32.2391 26.0766 32.0312 25 32.0312C23.432 32.0312 21.9359 32.4562 20.625 33.2359C20.7844 32.3195 20.907 31.3969 20.9836 30.4688ZM36.2469 16.4062H30.7891C29.7586 13.6313 28.2891 11.6086 27.1492 10.3461C30.9805 10.9742 34.2594 13.2391 36.2469 16.4062ZM8.59375 2.34375H10.1562V3.90625H8.59375V2.34375ZM3.90625 13.2812V2.34375H7.03125V5.46875H11.7188V2.34375H14.8438V13.2812H11.7188V12.5C11.7188 11.2078 10.6672 10.1562 9.375 10.1562C8.08281 10.1562 7.03125 11.2078 7.03125 12.5V13.2812H3.90625ZM2.34375 28.5914V21.0938C3.20547 21.0938 3.90625 21.7945 3.90625 22.6562V27.3438C3.90625 28.6359 4.95781 29.6875 6.25 29.6875C7.54219 29.6875 8.59375 28.6359 8.59375 27.3438V12.5C8.59375 12.0688 8.94453 11.7188 9.375 11.7188C9.80547 11.7188 10.1562 12.0688 10.1562 12.5V28.125H11.7188V20.3125C11.7188 19.8813 12.0695 19.5312 12.5 19.5312C12.9305 19.5312 13.2812 19.8813 13.2812 20.3125V28.125H14.8438V21.875C14.8438 21.4438 15.1945 21.0938 15.625 21.0938C16.0555 21.0938 16.4062 21.4438 16.4062 21.875V28.125H17.9688V23.4375C17.9688 23.0063 18.3195 22.6562 18.75 22.6562C19.1805 22.6562 19.5312 23.0063 19.5312 23.4375V27.8719C19.5312 30.8797 19.0711 33.8523 18.175 36.7188H5.08281C3.31953 34.3875 2.34375 31.5195 2.34375 28.5914ZM5.46875 47.6562V38.2812H17.9688V47.6562H5.46875ZM25 47.6562C22.85 47.6562 20.8742 46.6969 19.5312 45.0297V37.6258C19.7547 36.9453 19.95 36.2578 20.1266 35.5664C21.443 34.2969 23.1633 33.5938 25 33.5938C28.8766 33.5938 32.0312 36.7477 32.0312 40.625C32.0312 44.5023 28.8766 47.6562 25 47.6562Z" fill="#2D313A"/>
<path d="M42.1921 28.6781L43.6867 29.1344C43.8492 28.5992 43.9906 28.0515 44.107 27.5054L42.5781 27.182C42.4718 27.6836 42.3421 28.1867 42.1921 28.6781Z" fill="#2D313A"/>
<path d="M42.8298 25.6851L44.3798 25.8773C44.447 25.3383 44.4923 24.7898 44.5142 24.2508L42.9533 24.1867C42.9337 24.6844 42.8916 25.1875 42.8298 25.6851Z" fill="#2D313A"/>
<path d="M46.0938 7.03125C46.0938 5.30781 44.6922 3.90625 42.9688 3.90625C41.2453 3.90625 39.8438 5.30781 39.8438 7.03125C39.8438 8.75469 41.2453 10.1562 42.9688 10.1562C44.6922 10.1562 46.0938 8.75469 46.0938 7.03125ZM41.4062 7.03125C41.4062 6.16953 42.107 5.46875 42.9688 5.46875C43.8305 5.46875 44.5312 6.16953 44.5312 7.03125C44.5312 7.89297 43.8305 8.59375 42.9688 8.59375C42.107 8.59375 41.4062 7.89297 41.4062 7.03125Z" fill="#2D313A"/>
<path d="M49.2189 7.03125C49.2189 3.58516 46.415 0.78125 42.9689 0.78125C39.5228 0.78125 36.7189 3.58516 36.7189 7.03125C36.7189 7.29609 36.7439 7.57734 36.7845 7.86797C34.5056 6.13906 31.8814 4.92656 29.0689 4.33047L28.7439 5.85938C32.0673 6.56406 35.1087 8.19844 37.5517 10.5844C38.6376 13.3313 40.5556 16.2078 41.9228 17.3961C42.5291 19.0938 42.8791 20.8734 42.9533 22.6883L44.5142 22.6242C44.4455 20.9375 44.1486 19.282 43.6556 17.682C45.6064 16.3375 49.2189 10.475 49.2189 7.03125ZM38.2814 7.03125C38.2814 4.44609 40.3837 2.34375 42.9689 2.34375C45.5541 2.34375 47.6564 4.44609 47.6564 7.03125C47.6564 10.1734 44.14 15.2297 42.9689 16.2852C41.7978 15.2297 38.2814 10.1734 38.2814 7.03125Z" fill="#2D313A"/>
</svg>
