<svg width="20" height="20" viewBox="0 0 20 20" fill="none" xmlns="http://www.w3.org/2000/svg">
<g clip-path="url(#clip0)">
<path d="M1.76145 4.33325C1.11659 5.26924 0.626508 6.32021 0.329346 7.44979H4.87816L1.76145 4.33325Z" fill="#29337A"/>
<path d="M7.19938 0.39978C6.0472 0.735324 4.98015 1.27075 4.04053 1.96911L7.19938 5.12796V0.39978Z" fill="#29337A"/>
<path d="M4.27588 18.1966C5.15723 18.8133 6.14191 19.2908 7.19979 19.5988V15.2731L4.27588 18.1966Z" fill="#29337A"/>
<path d="M0.444336 12.9521C0.774981 14.0232 1.28165 15.0168 1.92918 15.9007L4.87771 12.9521H0.444336Z" fill="#29337A"/>
<path d="M1.92583 4.10168C1.86993 4.17811 1.81483 4.25563 1.76083 4.33395L4.87753 7.45049H0.328721C0.255 7.73106 0.194833 8.01703 0.145264 8.30693H6.13141L1.92583 4.10168Z" fill="white"/>
<path d="M4.04321 18.0321C4.1193 18.0888 4.19749 18.1427 4.27514 18.1971L7.19906 15.2735V19.5992C7.47996 19.6813 7.76526 19.7522 8.0555 19.8092V14.0199L4.04321 18.0321Z" fill="white"/>
<path d="M0.221191 12.0964C0.283259 12.3866 0.356515 12.6724 0.443198 12.9528H4.87661L1.92808 15.9013C2.24876 16.3395 2.60436 16.7507 2.99074 17.1309L8.02519 12.0964H0.221191Z" fill="white"/>
<path d="M7.19868 0.400262V5.12843L4.03979 1.96976C3.60431 2.29361 3.19724 2.65313 2.82007 3.04234L8.05495 8.27723V0.190247C7.76488 0.247585 7.47959 0.318646 7.19868 0.400262Z" fill="white"/>
<path d="M7.19945 12.9224L7.16943 12.9526H7.19945V12.9224Z" fill="#D32030"/>
<path d="M8.02588 12.0959H8.05586V12.0657L8.02588 12.0959Z" fill="#D32030"/>
<path d="M11.8741 8.30658H11.8452V8.33563L11.8741 8.30658Z" fill="#D32030"/>
<path d="M7.22898 7.45046L7.19946 7.42078V7.45046H7.22898Z" fill="#D32030"/>
<path d="M8.05591 8.27667V8.30623H8.08546L8.05591 8.27667Z" fill="#D32030"/>
<path d="M12.7017 17.3853V19.627C13.7733 19.327 14.7725 18.8541 15.6662 18.238L13.2373 15.8091C13.0432 16.491 12.9721 16.8436 12.7017 17.3853Z" fill="#252F6C"/>
<path d="M13.25 4.57968L15.9016 1.92814C14.949 1.23054 13.8684 0.698915 12.7017 0.37207V2.67481C13.0135 3.29928 13.0397 3.77378 13.25 4.57968Z" fill="#252F6C"/>
<path d="M18.0302 15.9593C18.698 15.061 19.2184 14.0471 19.5565 12.9525H15.0234L18.0302 15.9593Z" fill="#252F6C"/>
<path d="M19.6711 7.4505C19.3676 6.29706 18.8628 5.22638 18.1976 4.2757L15.0225 7.4505H19.6711Z" fill="#252F6C"/>
<path d="M13.8337 12.2656L14.5209 12.9528L17.8102 16.2421C17.8849 16.1486 17.9591 16.0555 18.0305 15.9596L15.0237 12.9528H19.5567C19.6431 12.6725 19.7164 12.3866 19.7783 12.0964H13.898C13.8884 12.2178 13.8453 12.145 13.8337 12.2656Z" fill="#E7E7E7"/>
<path d="M13.1459 5.08105L16.1271 2.09951C16.0524 2.04158 15.9776 1.98394 15.9013 1.92804L13.2498 4.57958C13.2773 4.68442 13.1203 4.97368 13.1459 5.08105Z" fill="#E7E7E7"/>
<path d="M12.7017 2.49059V0.37195C12.4211 0.293331 12.1355 0.226704 11.8452 0.172363V1.2058C12.1639 1.55127 12.4495 1.98519 12.7017 2.49059Z" fill="#E7E7E7"/>
<path d="M13.7662 8.30657H19.8545C19.8051 8.01667 19.7448 7.73087 19.6711 7.45013H15.0225L18.1976 4.27533C17.8854 3.82941 17.5385 3.41006 17.1596 3.02148L13.5833 6.59749C13.6796 7.24615 13.7227 7.62286 13.7662 8.30657Z" fill="#E7E7E7"/>
<path d="M13.0928 15.6647L15.6663 18.2385C16.0944 17.9437 16.4975 17.6156 16.8736 17.2594L13.4885 13.8741C13.3804 14.5002 13.2522 15.1049 13.0928 15.6647Z" fill="#E7E7E7"/>
<path d="M11.8455 18.6751V19.8269C12.1357 19.7729 12.4212 19.7059 12.7019 19.6273V17.3857C12.4496 17.8913 12.1639 18.3301 11.8455 18.6751Z" fill="#E7E7E7"/>
<path d="M13.583 6.5976L17.159 3.0216C16.837 2.69095 16.4919 2.38323 16.1268 2.09979L13.3169 4.91017C13.4418 5.43217 13.4985 6.02966 13.583 6.5976Z" fill="#D71F28"/>
<path d="M9.50122 0.012329C9.66783 0.00426448 9.83394 0 10.0002 0C9.83296 0 9.66656 0.00426448 9.50122 0.012329Z" fill="#D32030"/>
<path d="M10.0004 19.9999C9.83409 19.9999 9.66798 19.9953 9.50171 19.9872C9.66705 19.9956 9.83316 19.9999 10.0004 19.9999Z" fill="#D32030"/>
<path d="M9.99976 20.0002C10.6307 20.0002 11.2468 19.9391 11.8452 19.8271V18.6753C11.3199 19.2447 10.7054 20.0002 9.99976 20.0002Z" fill="#D32030"/>
<path d="M19.8541 8.30688H13.8449C13.9245 9.56106 13.9149 10.8508 13.8162 12.0964H19.778C19.9223 11.4201 19.9997 10.7194 19.9997 10.0003C19.9997 9.4227 19.9482 8.85776 19.8541 8.30688Z" fill="#D71F28"/>
<path d="M13.8337 12.2656C13.7782 12.8565 13.5846 13.3169 13.4883 13.8743L16.8734 17.2594C17.2083 16.942 17.5214 16.6025 17.81 16.2421L14.5209 12.9526L13.8337 12.2656Z" fill="#D71F28"/>
<path d="M11.8453 1.28036V0.172733C11.247 0.0610962 10.6309 0 9.99976 0C10.7054 0 11.3199 0.711156 11.8453 1.28036Z" fill="#D32030"/>
<path d="M12.7014 17.8186C12.9719 17.2767 13.2038 16.6529 13.398 15.971L12.7014 15.2744V17.8186Z" fill="#29337A"/>
<path d="M13.4847 4.34527C13.2741 3.53937 13.0133 2.80672 12.7014 2.18225V5.12825L13.4847 4.34527Z" fill="#29337A"/>
<path d="M14.0276 12.4596C14.039 12.3389 14.0493 12.2179 14.059 12.0963H13.6643L14.0276 12.4596Z" fill="white"/>
<path d="M12.7017 5.12805V2.18189C12.4493 1.67648 12.1639 1.24226 11.8452 0.897095V6.38206L13.5652 4.66213C13.5393 4.55475 13.5121 4.44958 13.4849 4.34474L12.7017 5.12805Z" fill="white"/>
<path d="M11.874 8.30688H14.0877C14.0443 7.62321 13.9751 6.95056 13.879 6.30206L11.874 8.30688Z" fill="white"/>
<path d="M11.8455 19.1032C12.1641 18.7577 12.4496 18.3238 12.7019 17.8184V15.2742L13.3985 15.9708C13.5583 15.4108 13.6924 14.8125 13.8007 14.1865L11.8455 12.2314L11.8455 19.1032Z" fill="white"/>
<path d="M11.8453 19.1029V12.2311L13.8004 14.1863C13.8966 13.6287 13.9722 13.0505 14.0276 12.4596L13.6643 12.0962H14.059C14.1577 10.8506 14.1673 9.56088 14.0878 8.30675H11.8741L13.8789 6.30193C13.7944 5.73383 13.6899 5.18434 13.565 4.66218L11.8454 6.38211V0.897146C11.32 0.327774 10.7055 0 9.99983 0C9.83356 0 9.66745 0.00426448 9.50089 0.012329C9.00904 0.0369448 8.52668 0.0974498 8.05582 0.190297V8.27723L2.82081 3.04235C2.49916 3.37426 2.19997 3.72792 1.92615 4.10167L5.27495 7.45047L6.13169 8.30692H0.145584C0.0518071 8.85763 0 9.42256 0 10.0002C0 10.7194 0.0776896 11.4199 0.221669 12.0962H8.02584L2.99134 17.1307C3.32102 17.4546 3.67201 17.7562 4.04357 18.0321L8.05569 14.02V19.8094C8.52652 19.9023 9.0092 19.9627 9.50105 19.9874C9.66733 19.9954 9.83343 20 9.9997 20C10.7055 20 11.32 19.6722 11.8453 19.1029Z" fill="#E51D35"/>
</g>
<defs>
<clipPath id="clip0">
<rect width="20" height="20" fill="white"/>
</clipPath>
</defs>
</svg>
