<svg width="50" height="50" viewBox="0 0 50 50" fill="none" xmlns="http://www.w3.org/2000/svg">
<path d="M47.6562 40.625H32.8125V16.4062C32.8125 16.199 32.7302 16.0003 32.5837 15.8538C32.4372 15.7073 32.2385 15.625 32.0312 15.625H3.90625C3.69905 15.625 3.50034 15.7073 3.35382 15.8538C3.20731 16.0003 3.125 16.199 3.125 16.4062V40.625H2.34375C2.13655 40.625 1.93784 40.7073 1.79132 40.8538C1.64481 41.0003 1.5625 41.199 1.5625 41.4062V44.5312C1.5625 44.7385 1.64481 44.9372 1.79132 45.0837C1.93784 45.2302 2.13655 45.3125 2.34375 45.3125H4.6875V47.6562C4.6875 47.8634 4.76981 48.0622 4.91632 48.2087C5.06284 48.3552 5.26155 48.4375 5.46875 48.4375H10.1562C10.3635 48.4375 10.5622 48.3552 10.7087 48.2087C10.8552 48.0622 10.9375 47.8634 10.9375 47.6562V45.3125H21.875V47.6562C21.875 47.8634 21.9573 48.0622 22.1038 48.2087C22.2503 48.3552 22.449 48.4375 22.6562 48.4375H27.3438C27.551 48.4375 27.7497 48.3552 27.8962 48.2087C28.0427 48.0622 28.125 47.8634 28.125 47.6562V45.3125H39.0625V47.6562C39.0625 47.8634 39.1448 48.0622 39.2913 48.2087C39.4378 48.3552 39.6366 48.4375 39.8438 48.4375H44.5312C44.7384 48.4375 44.9372 48.3552 45.0837 48.2087C45.2302 48.0622 45.3125 47.8634 45.3125 47.6562V45.3125H47.6562C47.8634 45.3125 48.0622 45.2302 48.2087 45.0837C48.3552 44.9372 48.4375 44.7385 48.4375 44.5312V41.4062C48.4375 41.199 48.3552 41.0003 48.2087 40.8538C48.0622 40.7073 47.8634 40.625 47.6562 40.625ZM18.75 29.6875H21.875V33.5938C21.875 33.801 21.9573 33.9997 22.1038 34.1462C22.2503 34.2927 22.449 34.375 22.6562 34.375H27.3438C27.551 34.375 27.7497 34.2927 27.8962 34.1462C28.0427 33.9997 28.125 33.801 28.125 33.5938V29.6875H31.25V40.625H18.75V29.6875ZM23.4375 29.6875H26.5625V32.8125H23.4375V29.6875ZM31.25 28.125H18.75V17.1875H21.875V21.0938C21.875 21.301 21.9573 21.4997 22.1038 21.6462C22.2503 21.7927 22.449 21.875 22.6562 21.875H27.3438C27.551 21.875 27.7497 21.7927 27.8962 21.6462C28.0427 21.4997 28.125 21.301 28.125 21.0938V17.1875H31.25V28.125ZM23.4375 17.1875H26.5625V20.3125H23.4375V17.1875ZM9.375 17.1875H12.5V20.3125H9.375V17.1875ZM4.6875 17.1875H7.8125V21.0938C7.8125 21.301 7.89481 21.4997 8.04132 21.6462C8.18784 21.7927 8.38655 21.875 8.59375 21.875H13.2812C13.4885 21.875 13.6872 21.7927 13.8337 21.6462C13.9802 21.4997 14.0625 21.301 14.0625 21.0938V17.1875H17.1875V28.125H4.6875V17.1875ZM9.375 29.6875H12.5V32.8125H9.375V29.6875ZM4.6875 29.6875H7.8125V33.5938C7.8125 33.801 7.89481 33.9997 8.04132 34.1462C8.18784 34.2927 8.38655 34.375 8.59375 34.375H13.2812C13.4885 34.375 13.6872 34.2927 13.8337 34.1462C13.9802 33.9997 14.0625 33.801 14.0625 33.5938V29.6875H17.1875V40.625H4.6875V29.6875ZM9.375 46.875H6.25V45.3125H9.375V46.875ZM26.5625 46.875H23.4375V45.3125H26.5625V46.875ZM43.75 46.875H40.625V45.3125H43.75V46.875ZM46.875 43.75H3.125V42.1875H46.875V43.75Z" fill="#2D313A"/>
<path d="M28.125 37.5H29.6875V39.0625H28.125V37.5Z" fill="#2D313A"/>
<path d="M14.0625 37.5H15.625V39.0625H14.0625V37.5Z" fill="#2D313A"/>
<path d="M28.125 25H29.6875V26.5625H28.125V25Z" fill="#2D313A"/>
<path d="M14.0625 25H15.625V26.5625H14.0625V25Z" fill="#2D313A"/>
<path d="M48.1707 7.22455L41.9207 1.7558C41.7783 1.63118 41.5955 1.5625 41.4062 1.5625C41.217 1.5625 41.0342 1.63118 40.8918 1.7558L34.6418 7.22455C34.558 7.29788 34.4908 7.38828 34.4448 7.48969C34.3988 7.5911 34.375 7.70117 34.375 7.81253V10.1563C34.375 10.3635 34.4573 10.5622 34.6038 10.7087C34.7503 10.8552 34.949 10.9375 35.1562 10.9375H37.5V35.1563H39.0625V10.1563C39.0625 9.94908 38.9802 9.75037 38.8337 9.60386C38.6872 9.45734 38.4885 9.37503 38.2812 9.37503H35.9375V8.16703L41.4062 3.38187L46.875 8.16703V9.37503H44.5312C44.324 9.37503 44.1253 9.45734 43.9788 9.60386C43.8323 9.75037 43.75 9.94908 43.75 10.1563V35.1563H45.3125V10.9375H47.6562C47.8635 10.9375 48.0622 10.8552 48.2087 10.7087C48.3552 10.5622 48.4375 10.3635 48.4375 10.1563V7.81253C48.4375 7.70117 48.4137 7.5911 48.3677 7.48969C48.3217 7.38828 48.2545 7.29788 48.1707 7.22455Z" fill="#2D313A"/>
<path d="M37.5 36.7188H39.0625V38.2812H37.5V36.7188Z" fill="#2D313A"/>
<path d="M43.75 36.7188H45.3125V38.2812H43.75V36.7188Z" fill="#2D313A"/>
<path d="M18.75 10.9375H21.0938V14.0625H22.6562V10.1563C22.6562 9.94909 22.5739 9.75037 22.4274 9.60386C22.2809 9.45735 22.0822 9.37504 21.875 9.37504H19.5312V8.16703L25 3.38187L30.4688 8.16703V9.37504H28.125C27.9178 9.37504 27.7191 9.45735 27.5726 9.60386C27.4261 9.75037 27.3438 9.94909 27.3438 10.1563V14.0625H28.9062V10.9375H31.25C31.4572 10.9375 31.6559 10.8552 31.8024 10.7087C31.9489 10.5622 32.0312 10.3635 32.0312 10.1563V7.81254C32.0313 7.70117 32.0075 7.5911 31.9614 7.48969C31.9154 7.38828 31.8483 7.29788 31.7645 7.22455L25.5145 1.7558C25.372 1.63118 25.1892 1.5625 25 1.5625C24.8108 1.5625 24.628 1.63118 24.4855 1.7558L18.2355 7.22455C18.1517 7.29788 18.0846 7.38828 18.0386 7.48969C17.9925 7.5911 17.9687 7.70117 17.9688 7.81254V10.1563C17.9688 10.3635 18.0511 10.5622 18.1976 10.7087C18.3441 10.8552 18.5428 10.9375 18.75 10.9375Z" fill="#2D313A"/>
<path d="M2.34375 10.9375H4.6875V14.0625H6.25V10.1563C6.25 9.94909 6.16769 9.75037 6.02118 9.60386C5.87466 9.45735 5.67595 9.37504 5.46875 9.37504H3.125V8.16703L8.59375 3.38187L14.0625 8.16703V9.37504H11.7188C11.5115 9.37504 11.3128 9.45735 11.1663 9.60386C11.0198 9.75037 10.9375 9.94909 10.9375 10.1563V14.0625H12.5V10.9375H14.8438C15.051 10.9375 15.2497 10.8552 15.3962 10.7087C15.5427 10.5622 15.625 10.3635 15.625 10.1563V7.81254C15.625 7.70117 15.6012 7.5911 15.5552 7.48969C15.5092 7.38828 15.442 7.29788 15.3582 7.22455L9.1082 1.7558C8.96579 1.63118 8.78299 1.5625 8.59375 1.5625C8.40451 1.5625 8.22171 1.63118 8.0793 1.7558L1.8293 7.22455C1.74549 7.29788 1.67833 7.38828 1.63231 7.48969C1.5863 7.5911 1.5625 7.70117 1.5625 7.81254V10.1563C1.5625 10.3635 1.64481 10.5622 1.79132 10.7087C1.93784 10.8552 2.13655 10.9375 2.34375 10.9375Z" fill="#2D313A"/>
</svg>
