<svg width="25" height="25" viewBox="0 0 25 25" fill="none" xmlns="http://www.w3.org/2000/svg">
<path d="M20.3125 25H4.6875C2.09844 25 0 22.9016 0 20.3125V4.6875C0 2.09844 2.09844 0 4.6875 0H20.3125C22.9016 0 25 2.09844 25 4.6875V20.3125C25 22.9016 22.9016 25 20.3125 25Z" fill="#2D313A"/>
<path d="M14.6307 8.32578H15.7713V6.33828C15.5752 6.31094 14.8979 6.25 14.1096 6.25C12.4643 6.25 11.3377 7.28516 11.3377 9.18672V10.9375H9.52209V13.1594H11.3377V18.75L13.5635 18.7508V13.1602H15.3057L15.5823 10.9383H13.5627V9.40781C13.5635 8.76562 13.7362 8.32578 14.6307 8.32578Z" fill="white"/>
</svg>
