<svg width="42" height="47" viewBox="0 0 42 47" fill="none" xmlns="http://www.w3.org/2000/svg">
<path d="M34.86 20.54L33.5233 22.0277L33.5346 22.0378L33.546 22.0478L34.86 20.54ZM36.96 37.52L35.264 36.46L35.2588 36.4684L36.96 37.52ZM30.6 42.92L31.454 44.7285L31.4642 44.7237L31.4744 44.7187L30.6 42.92ZM10.98 44L10.5518 45.9536L10.5573 45.9548L10.98 44ZM3.3 41.18L1.48286 40.3445L0.713474 42.0179L2.31797 42.9223L3.3 41.18ZM8.1 30.74L9.08802 29.0011L7.19322 27.9245L6.28286 29.9045L8.1 30.74ZM13.62 33.02L13.0972 34.9505L13.1071 34.9531L13.62 33.02ZM23.28 32.96L24.2572 34.705L24.2684 34.6988L24.2794 34.6924L23.28 32.96ZM23.46 28.28L22.4759 30.0211L22.5051 30.0376L22.5349 30.0532L23.46 28.28ZM6.3 27.5L4.30675 27.3358L4.12852 29.5H6.3V27.5ZM8.4 2V-2.86102e-06H6.55794L6.40675 1.83585L8.4 2ZM36.3 2H38.3V-2.86102e-06H36.3V2ZM36.3 12.68V14.68H38.3V12.68H36.3ZM20.04 12.68V10.68H18.1797L18.0452 12.5354L20.04 12.68ZM19.74 16.82L17.7452 16.6755L17.5898 18.82H19.74V16.82ZM21.9 18.82C27.561 18.82 31.2931 20.0238 33.5233 22.0277L36.1967 19.0523C32.9069 16.0962 27.999 14.82 21.9 14.82V18.82ZM33.546 22.0478C35.8736 24.0761 37.06 26.7278 37.06 30.2H41.06C41.06 25.6722 39.4464 21.8839 36.174 19.0322L33.546 22.0478ZM37.06 30.2C37.06 32.4649 36.4655 34.5377 35.264 36.46L38.656 38.58C40.2545 36.0223 41.06 33.2151 41.06 30.2H37.06ZM35.2588 36.4684C34.1407 38.2771 32.3459 39.8475 29.7256 41.1213L31.4744 44.7187C34.6141 43.1925 37.0593 41.1629 38.6612 38.5716L35.2588 36.4684ZM29.746 41.1115C27.2083 42.3098 23.9411 42.96 19.86 42.96V46.96C24.3389 46.96 28.2317 46.2502 31.454 44.7285L29.746 41.1115ZM19.86 42.96C17.0453 42.96 14.227 42.6558 11.4027 42.0452L10.5573 45.9548C13.653 46.6242 16.7547 46.96 19.86 46.96V42.96ZM11.4082 42.0464C8.64768 41.4413 6.28057 40.5641 4.28203 39.4377L2.31797 42.9223C4.71943 44.2759 7.47232 45.2787 10.5518 45.9536L11.4082 42.0464ZM5.11714 42.0155L9.91714 31.5755L6.28286 29.9045L1.48286 40.3445L5.11714 42.0155ZM7.11198 32.4789C9.01576 33.5606 11.0118 34.3857 13.0972 34.9505L14.1428 31.0895C12.3882 30.6143 10.7042 29.9194 9.08802 29.0011L7.11198 32.4789ZM13.1071 34.9531C15.2176 35.513 17.2903 35.8 19.32 35.8V31.8C17.6697 31.8 15.9424 31.567 14.1329 31.0869L13.1071 34.9531ZM19.32 35.8C21.1636 35.8 22.8574 35.4889 24.2572 34.705L22.3028 31.215C21.7026 31.5511 20.7564 31.8 19.32 31.8V35.8ZM24.2794 34.6924C25.8242 33.8011 26.84 32.3776 26.84 30.5H22.84C22.84 30.7024 22.8158 30.9188 22.2806 31.2276L24.2794 34.6924ZM26.84 30.5C26.84 29.6831 26.6483 28.8707 26.1936 28.1391C25.7413 27.4116 25.1016 26.8806 24.3851 26.5068L22.5349 30.0532C22.7384 30.1594 22.7887 30.2384 22.7964 30.2509C22.8017 30.2593 22.84 30.3169 22.84 30.5H26.84ZM24.4441 26.5389C23.0271 25.7379 20.8902 25.5 18.48 25.5V29.5C20.8699 29.5 22.0529 29.7821 22.4759 30.0211L24.4441 26.5389ZM18.48 25.5H6.3V29.5H18.48V25.5ZM8.29325 27.6642L10.3933 2.16415L6.40675 1.83585L4.30675 27.3358L8.29325 27.6642ZM8.4 4H36.3V-2.86102e-06H8.4V4ZM34.3 2V12.68H38.3V2H34.3ZM36.3 10.68H20.04V14.68H36.3V10.68ZM18.0452 12.5354L17.7452 16.6755L21.7348 16.9645L22.0348 12.8245L18.0452 12.5354ZM19.74 18.82H21.9V14.82H19.74V18.82Z" fill="black"/>
</svg>
