<svg width="46" height="46" viewBox="0 0 46 46" fill="none" xmlns="http://www.w3.org/2000/svg">
<path d="M43.48 36.8V38.8H45.48V36.8H43.48ZM37.9 36.8V34.8H35.9V36.8H37.9ZM37.9 44V46H39.9V44H37.9ZM24.16 44H22.16V46H24.16V44ZM24.16 36.8H26.16V34.8H24.16V36.8ZM2.38 36.8H0.38V38.8H2.38V36.8ZM2.38 27.8L0.734377 26.6634L0.38 27.1764V27.8H2.38ZM20.2 2V-2.86102e-06H19.1507L18.5544 0.863369L20.2 2ZM34.72 2L36.3854 3.10746L38.4518 -2.86102e-06H34.72V2ZM18.88 25.82L17.2146 24.7125L15.1482 27.82H18.88V25.82ZM24.58 25.82V27.82H26.58V25.82H24.58ZM24.58 19.4V17.4H22.58V19.4H24.58ZM37.9 19.4H39.9V17.4H37.9V19.4ZM37.9 25.82H35.9V27.82H37.9V25.82ZM43.48 25.82H45.48V23.82H43.48V25.82ZM43.48 34.8H37.9V38.8H43.48V34.8ZM35.9 36.8V44H39.9V36.8H35.9ZM37.9 42H24.16V46H37.9V42ZM26.16 44V36.8H22.16V44H26.16ZM24.16 34.8H2.38V38.8H24.16V34.8ZM4.38 36.8V27.8H0.38V36.8H4.38ZM4.02562 28.9366L21.8456 3.13663L18.5544 0.863369L0.734377 26.6634L4.02562 28.9366ZM20.2 4H34.72V-2.86102e-06H20.2V4ZM33.0546 0.892533L17.2146 24.7125L20.5454 26.9275L36.3854 3.10746L33.0546 0.892533ZM18.88 27.82H24.58V23.82H18.88V27.82ZM26.58 25.82V19.4H22.58V25.82H26.58ZM24.58 21.4H37.9V17.4H24.58V21.4ZM35.9 19.4V25.82H39.9V19.4H35.9ZM37.9 27.82H43.48V23.82H37.9V27.82ZM41.48 25.82V36.8H45.48V25.82H41.48Z" fill="black"/>
</svg>
