<svg width="20" height="20" viewBox="0 0 20 20" fill="none" xmlns="http://www.w3.org/2000/svg">
<path d="M15.1878 9.7247L7.8545 4.7247C7.75216 4.65537 7.62016 4.6477 7.51083 4.70537C7.40183 4.76303 7.3335 4.87637 7.3335 5.00003V15C7.3335 15.1237 7.40183 15.237 7.51116 15.2947C7.55983 15.3207 7.6135 15.3334 7.66683 15.3334C7.7325 15.3334 7.79816 15.3137 7.8545 15.2754L15.1878 10.2754C15.2788 10.2134 15.3335 10.1104 15.3335 10C15.3335 9.8897 15.2788 9.7867 15.1878 9.7247ZM8.00016 14.369V5.63103L14.4085 10L8.00016 14.369Z" fill="#2D313A"/>
<path d="M10 0C4.486 0 0 4.486 0 10C0 15.514 4.486 20 10 20C15.514 20 20 15.514 20 10C20 4.486 15.514 0 10 0ZM10 19.3333C4.85367 19.3333 0.666667 15.1463 0.666667 10C0.666667 4.85367 4.85367 0.666667 10 0.666667C15.1463 0.666667 19.3333 4.85367 19.3333 10C19.3333 15.1463 15.1463 19.3333 10 19.3333Z" fill="#2D313A"/>
</svg>
