<svg width="50" height="50" viewBox="0 0 50 50" fill="none" xmlns="http://www.w3.org/2000/svg">
<path d="M47.6562 40.625H46.875V16.4062C46.875 16.199 46.7927 16.0003 46.6462 15.8538C46.4997 15.7073 46.3009 15.625 46.0938 15.625H17.9688C17.7615 15.625 17.5628 15.7073 17.4163 15.8538C17.2698 16.0003 17.1875 16.199 17.1875 16.4062V40.625H2.34375C2.13655 40.625 1.93784 40.7073 1.79132 40.8538C1.64481 41.0003 1.5625 41.199 1.5625 41.4062V44.5312C1.5625 44.7385 1.64481 44.9372 1.79132 45.0837C1.93784 45.2302 2.13655 45.3125 2.34375 45.3125H4.6875V47.6562C4.6875 47.8634 4.76981 48.0622 4.91632 48.2087C5.06284 48.3552 5.26155 48.4375 5.46875 48.4375H10.1562C10.3635 48.4375 10.5622 48.3552 10.7087 48.2087C10.8552 48.0622 10.9375 47.8634 10.9375 47.6562V45.3125H21.875V47.6562C21.875 47.8634 21.9573 48.0622 22.1038 48.2087C22.2503 48.3552 22.449 48.4375 22.6562 48.4375H27.3438C27.551 48.4375 27.7497 48.3552 27.8962 48.2087C28.0427 48.0622 28.125 47.8634 28.125 47.6562V45.3125H39.0625V47.6562C39.0625 47.8634 39.1448 48.0622 39.2913 48.2087C39.4378 48.3552 39.6366 48.4375 39.8438 48.4375H44.5312C44.7384 48.4375 44.9372 48.3552 45.0837 48.2087C45.2302 48.0622 45.3125 47.8634 45.3125 47.6562V45.3125H47.6562C47.8634 45.3125 48.0622 45.2302 48.2087 45.0837C48.3552 44.9372 48.4375 44.7385 48.4375 44.5312V41.4062C48.4375 41.199 48.3552 41.0003 48.2087 40.8538C48.0622 40.7073 47.8634 40.625 47.6562 40.625ZM32.8125 29.6875H35.9375V33.5938C35.9375 33.801 36.0198 33.9997 36.1663 34.1462C36.3128 34.2927 36.5116 34.375 36.7188 34.375H41.4062C41.6134 34.375 41.8122 34.2927 41.9587 34.1462C42.1052 33.9997 42.1875 33.801 42.1875 33.5938V29.6875H45.3125V40.625H32.8125V29.6875ZM37.5 29.6875H40.625V32.8125H37.5V29.6875ZM45.3125 28.125H32.8125V17.1875H35.9375V21.0938C35.9375 21.301 36.0198 21.4997 36.1663 21.6462C36.3128 21.7927 36.5116 21.875 36.7188 21.875H41.4062C41.6134 21.875 41.8122 21.7927 41.9587 21.6462C42.1052 21.4997 42.1875 21.301 42.1875 21.0938V17.1875H45.3125V28.125ZM37.5 17.1875H40.625V20.3125H37.5V17.1875ZM23.4375 17.1875H26.5625V20.3125H23.4375V17.1875ZM18.75 17.1875H21.875V21.0938C21.875 21.301 21.9573 21.4997 22.1038 21.6462C22.2503 21.7927 22.449 21.875 22.6562 21.875H27.3438C27.551 21.875 27.7497 21.7927 27.8962 21.6462C28.0427 21.4997 28.125 21.301 28.125 21.0938V17.1875H31.25V28.125H18.75V17.1875ZM23.4375 29.6875H26.5625V32.8125H23.4375V29.6875ZM18.75 29.6875H21.875V33.5938C21.875 33.801 21.9573 33.9997 22.1038 34.1462C22.2503 34.2927 22.449 34.375 22.6562 34.375H27.3438C27.551 34.375 27.7497 34.2927 27.8962 34.1462C28.0427 33.9997 28.125 33.801 28.125 33.5938V29.6875H31.25V40.625H18.75V29.6875ZM9.375 46.875H6.25V45.3125H9.375V46.875ZM26.5625 46.875H23.4375V45.3125H26.5625V46.875ZM43.75 46.875H40.625V45.3125H43.75V46.875ZM46.875 43.75H3.125V42.1875H46.875V43.75Z" fill="#2D313A"/>
<path d="M42.1875 37.5H43.75V39.0625H42.1875V37.5Z" fill="#2D313A"/>
<path d="M28.125 37.5H29.6875V39.0625H28.125V37.5Z" fill="#2D313A"/>
<path d="M42.1875 25H43.75V26.5625H42.1875V25Z" fill="#2D313A"/>
<path d="M28.125 25H29.6875V26.5625H28.125V25Z" fill="#2D313A"/>
<path d="M1.8293 32.6192L8.0793 38.088C8.22171 38.2126 8.40451 38.2813 8.59375 38.2813C8.78299 38.2813 8.96579 38.2126 9.1082 38.088L15.3582 32.6192C15.442 32.5459 15.5092 32.4555 15.5552 32.3541C15.6012 32.2527 15.625 32.1426 15.625 32.0312V29.6875C15.625 29.4803 15.5427 29.2816 15.3962 29.1351C15.2497 28.9886 15.051 28.9062 14.8438 28.9062H12.5V4.6875H10.9375V29.6875C10.9375 29.8947 11.0198 30.0934 11.1663 30.2399C11.3128 30.3864 11.5115 30.4687 11.7188 30.4687H14.0625V31.6768L8.59375 36.4619L3.125 31.6768V30.4687H5.46875C5.67595 30.4687 5.87466 30.3864 6.02118 30.2399C6.16769 30.0934 6.25 29.8947 6.25 29.6875V4.6875H4.6875V28.9062H2.34375C2.13655 28.9062 1.93784 28.9886 1.79132 29.1351C1.64481 29.2816 1.5625 29.4803 1.5625 29.6875V32.0312C1.5625 32.1426 1.5863 32.2527 1.63231 32.3541C1.67833 32.4555 1.74549 32.5459 1.8293 32.6192Z" fill="#2D313A"/>
<path d="M10.9375 1.5625H12.5V3.125H10.9375V1.5625Z" fill="#2D313A"/>
<path d="M4.6875 1.5625H6.25V3.125H4.6875V1.5625Z" fill="#2D313A"/>
<path d="M18.2355 8.40049L24.4855 13.8692C24.628 13.9938 24.8108 14.0625 25 14.0625C25.1892 14.0625 25.372 13.9938 25.5145 13.8692L31.7645 8.40049C31.8483 8.32716 31.9154 8.23676 31.9614 8.13535C32.0075 8.03394 32.0313 7.92386 32.0312 7.8125V5.46875C32.0312 5.26155 31.9489 5.06284 31.8024 4.91632C31.6559 4.76981 31.4572 4.6875 31.25 4.6875H28.9062V1.5625H27.3438V5.46875C27.3438 5.67595 27.4261 5.87466 27.5726 6.02118C27.7191 6.16769 27.9178 6.25 28.125 6.25H30.4688V7.45801L25 12.2432L19.5312 7.45801V6.25H21.875C22.0822 6.25 22.2809 6.16769 22.4274 6.02118C22.5739 5.87466 22.6562 5.67595 22.6562 5.46875V1.5625H21.0938V4.6875H18.75C18.5428 4.6875 18.3441 4.76981 18.1976 4.91632C18.0511 5.06284 17.9688 5.26155 17.9688 5.46875V7.8125C17.9687 7.92386 17.9925 8.03394 18.0386 8.13535C18.0846 8.23676 18.1517 8.32716 18.2355 8.40049Z" fill="#2D313A"/>
<path d="M47.6562 4.6875H45.3125V1.5625H43.75V5.46875C43.75 5.67595 43.8323 5.87466 43.9788 6.02118C44.1253 6.16769 44.324 6.25 44.5312 6.25H46.875V7.45801L41.4062 12.2432L35.9375 7.45801V6.25H38.2812C38.4885 6.25 38.6872 6.16769 38.8337 6.02118C38.9802 5.87466 39.0625 5.67595 39.0625 5.46875V1.5625H37.5V4.6875H35.1562C34.949 4.6875 34.7503 4.76981 34.6038 4.91632C34.4573 5.06284 34.375 5.26155 34.375 5.46875V7.8125C34.375 7.92386 34.3988 8.03394 34.4448 8.13535C34.4908 8.23676 34.558 8.32716 34.6418 8.40049L40.8918 13.8692C41.0342 13.9938 41.217 14.0625 41.4062 14.0625C41.5955 14.0625 41.7783 13.9938 41.9207 13.8692L48.1707 8.40049C48.2545 8.32716 48.3217 8.23676 48.3677 8.13535C48.4137 8.03394 48.4375 7.92386 48.4375 7.8125V5.46875C48.4375 5.26155 48.3552 5.06284 48.2087 4.91632C48.0622 4.76981 47.8635 4.6875 47.6562 4.6875Z" fill="#2D313A"/>
</svg>
