<svg width="25" height="25" viewBox="0 0 25 25" fill="none" xmlns="http://www.w3.org/2000/svg">
<path d="M20.3125 25H4.6875C2.09844 25 0 22.9016 0 20.3125V4.6875C0 2.09844 2.09844 0 4.6875 0H20.3125C22.9016 0 25 2.09844 25 4.6875V20.3125C25 22.9016 22.9016 25 20.3125 25Z" fill="#2D313A"/>
<path d="M12.5023 9.29071C10.7297 9.29071 9.29529 10.7274 9.29529 12.4977C9.29529 14.2696 10.732 15.7048 12.5023 15.7048C14.275 15.7048 15.7094 14.2681 15.7094 12.4977C15.7094 10.7251 14.2726 9.29071 12.5023 9.29071ZM12.5023 14.5798C11.3523 14.5798 10.4203 13.6477 10.4203 12.4977C10.4203 11.3477 11.3523 10.4157 12.5023 10.4157C13.6523 10.4157 14.5844 11.347 14.5844 12.4977C14.5844 13.6477 13.6523 14.5798 12.5023 14.5798Z" fill="white"/>
<path d="M15.0772 6.28913C13.9272 6.23522 11.0788 6.23757 9.92724 6.28913C8.91552 6.33678 8.02334 6.58132 7.30459 7.30007C6.10224 8.50241 6.25615 10.1219 6.25615 12.4977C6.25615 14.929 6.12099 16.5118 7.30459 17.6954C8.51084 18.9016 10.1546 18.7438 12.5022 18.7438C15.3796 18.7438 18.528 19.0196 18.7108 15.0727C18.7647 13.9219 18.7624 11.0743 18.7108 9.9235C18.6077 7.72897 17.4296 6.3985 15.0772 6.28913ZM16.8968 16.9001C16.1085 17.6883 15.0155 17.618 12.4858 17.618C9.88193 17.618 8.8374 17.6563 8.0749 16.8923C7.19678 16.0188 7.35615 14.6157 7.35615 12.4899C7.35615 7.2946 7.65381 7.361 12.478 7.361L12.5015 7.37663C17.6749 7.37663 17.6218 7.71178 17.6218 12.4977C17.6226 15.0712 17.6718 16.1219 16.8968 16.9001Z" fill="white"/>
<path d="M15.8365 9.91329C16.2503 9.91329 16.5857 9.57786 16.5857 9.16407C16.5857 8.75029 16.2503 8.41486 15.8365 8.41486C15.4227 8.41486 15.0873 8.75029 15.0873 9.16407C15.0873 9.57786 15.4227 9.91329 15.8365 9.91329Z" fill="white"/>
</svg>
