<svg width="25" height="25" viewBox="0 0 25 25" fill="none" xmlns="http://www.w3.org/2000/svg">
<path d="M20.3125 25H4.6875C2.09844 25 0 22.9016 0 20.3125V4.6875C0 2.09844 2.09844 0 4.6875 0H20.3125C22.9016 0 25 2.09844 25 4.6875V20.3125C25 22.9016 22.9016 25 20.3125 25Z" fill="white"/>
<path d="M12.5023 9.29053C10.7297 9.29053 9.29529 10.7272 9.29529 12.4976C9.29529 14.2694 10.732 15.7046 12.5023 15.7046C14.275 15.7046 15.7094 14.2679 15.7094 12.4976C15.7094 10.7249 14.2726 9.29053 12.5023 9.29053ZM12.5023 14.5796C11.3523 14.5796 10.4203 13.6476 10.4203 12.4976C10.4203 11.3476 11.3523 10.4155 12.5023 10.4155C13.6523 10.4155 14.5844 11.3468 14.5844 12.4976C14.5844 13.6476 13.6523 14.5796 12.5023 14.5796Z" fill="#2D313A"/>
<path d="M15.0772 6.28907C13.9272 6.23516 11.0788 6.2375 9.92724 6.28907C8.91552 6.33672 8.02334 6.58125 7.30459 7.3C6.10224 8.50235 6.25615 10.1219 6.25615 12.4977C6.25615 14.9289 6.12099 16.5117 7.30459 17.6953C8.51084 18.9016 10.1546 18.7438 12.5022 18.7438C15.3796 18.7438 18.528 19.0195 18.7108 15.0727C18.7647 13.9219 18.7624 11.0742 18.7108 9.92344C18.6077 7.72891 17.4296 6.39844 15.0772 6.28907ZM16.8968 16.9C16.1085 17.6883 15.0155 17.618 12.4858 17.618C9.88193 17.618 8.8374 17.6563 8.0749 16.8922C7.19678 16.0188 7.35615 14.6156 7.35615 12.4898C7.35615 7.29454 7.65381 7.36094 12.478 7.36094L12.5015 7.37657C17.6749 7.37657 17.6218 7.71172 17.6218 12.4977C17.6226 15.0711 17.6718 16.1219 16.8968 16.9Z" fill="#2D313A"/>
<path d="M15.8365 9.91348C16.2503 9.91348 16.5857 9.57804 16.5857 9.16426C16.5857 8.75048 16.2503 8.41504 15.8365 8.41504C15.4227 8.41504 15.0873 8.75048 15.0873 9.16426C15.0873 9.57804 15.4227 9.91348 15.8365 9.91348Z" fill="#2D313A"/>
</svg>
