<svg width="50" height="50" viewBox="0 0 50 50" fill="none" xmlns="http://www.w3.org/2000/svg">
<g clip-path="url(#clip0)">
<path d="M47.5 15H45.8333V13.3333C45.8333 11.9526 44.7141 10.8333 43.3333 10.8333H41.6667V9.16666C41.6667 7.78593 40.5474 6.66666 39.1667 6.66666H7.5C7.48417 6.66666 7.46917 6.67416 7.45333 6.675C7.38885 6.67916 7.3251 6.69093 7.26333 6.71C7.23708 6.71614 7.21125 6.72364 7.18583 6.7325C7.10021 6.76573 7.02083 6.81312 6.95083 6.8725L0.284167 12.7058C0.206042 12.7764 0.142083 12.8612 0.0958333 12.9558C0.0839583 12.9808 0.0733333 13.0064 0.0641667 13.0325C0.0333333 13.1125 0.0151042 13.1969 0.01 13.2825C0.01 13.2983 0 13.3125 0 13.3283V32.5C0 33.8807 1.11927 35 2.5 35H4.16667V36.6667C4.16667 38.0474 5.28594 39.1667 6.66667 39.1667H8.33333V40.8333C8.33333 42.2141 9.4526 43.3333 10.8333 43.3333H47.5C48.8807 43.3333 50 42.2141 50 40.8333V17.5C50 16.1193 48.8807 15 47.5 15ZM6.66667 9.33333V11.6667C6.66667 12.1269 6.29354 12.5 5.83333 12.5H3.05167L6.66667 9.33333ZM2.5 33.3333C2.03979 33.3333 1.66667 32.9602 1.66667 32.5V14.1667H5.83333C7.21406 14.1667 8.33333 13.0474 8.33333 11.6667V8.33333H39.1667C39.6269 8.33333 40 8.70646 40 9.16666V32.5C40 32.9602 39.6269 33.3333 39.1667 33.3333H2.5ZM6.66667 37.5C6.20646 37.5 5.83333 37.1269 5.83333 36.6667V35H39.1667C40.5474 35 41.6667 33.8807 41.6667 32.5V12.5H43.3333C43.7935 12.5 44.1667 12.8731 44.1667 13.3333V36.6667C44.1667 37.1269 43.7935 37.5 43.3333 37.5H6.66667ZM48.3333 40.8333C48.3333 41.2935 47.9602 41.6667 47.5 41.6667H10.8333C10.3731 41.6667 10 41.2935 10 40.8333V39.1667H43.3333C44.7141 39.1667 45.8333 38.0474 45.8333 36.6667V16.6667H47.5C47.9602 16.6667 48.3333 17.0398 48.3333 17.5V40.8333Z" fill="#2D313A"/>
<path d="M4.99992 30.8333H3.33325V32.5H4.99992V30.8333Z" fill="#2D313A"/>
<path d="M8.33341 30.8333H6.66675V32.5H8.33341V30.8333Z" fill="#2D313A"/>
<path d="M11.6667 30.8333H10V32.5H11.6667V30.8333Z" fill="#2D313A"/>
<path d="M14.9999 30.8333H13.3333V32.5H14.9999V30.8333Z" fill="#2D313A"/>
<path d="M18.3334 30.8333H16.6667V32.5H18.3334V30.8333Z" fill="#2D313A"/>
<path d="M21.6667 30.8333H20V32.5H21.6667V30.8333Z" fill="#2D313A"/>
<path d="M24.9999 30.8333H23.3333V32.5H24.9999V30.8333Z" fill="#2D313A"/>
<path d="M28.3334 30.8333H26.6667V32.5H28.3334V30.8333Z" fill="#2D313A"/>
<path d="M31.6667 30.8333H30V32.5H31.6667V30.8333Z" fill="#2D313A"/>
<path d="M34.9999 30.8333H33.3333V32.5H34.9999V30.8333Z" fill="#2D313A"/>
<path d="M38.3334 30.8333H36.6667V32.5H38.3334V30.8333Z" fill="#2D313A"/>
<path d="M23.3333 14.1667H10V15.8333H23.3333V14.1667Z" fill="#2D313A"/>
<path d="M31.6667 14.1667H25V15.8333H31.6667V14.1667Z" fill="#2D313A"/>
<path d="M25 17.5H10V19.1667H25V17.5Z" fill="#2D313A"/>
<path d="M31.6667 17.5H26.6667V19.1667H31.6667V17.5Z" fill="#2D313A"/>
<path d="M31.6667 20.8333H10V22.5H31.6667V20.8333Z" fill="#2D313A"/>
<path d="M31.6667 24.1667H10V25.8333H31.6667V24.1667Z" fill="#2D313A"/>
</g>
<defs>
<clipPath id="clip0">
<rect width="50" height="50" fill="white"/>
</clipPath>
</defs>
</svg>
