<svg width="40" height="30" viewBox="0 0 40 30" fill="none" xmlns="http://www.w3.org/2000/svg">
<path d="M38 7H36.6667V5.66667C36.6667 4.56209 35.7713 3.66667 34.6667 3.66667H33.3333V2.33334C33.3333 1.22875 32.4379 0.333336 31.3333 0.333336H6C5.98733 0.333336 5.97533 0.339336 5.96267 0.340003C5.91108 0.343336 5.86008 0.352753 5.81067 0.368003C5.78967 0.372919 5.769 0.37892 5.74867 0.386003C5.68017 0.412586 5.61667 0.450502 5.56067 0.498002L0.227333 5.16467C0.164833 5.22109 0.113667 5.289 0.0766667 5.36467C0.0671667 5.38467 0.0586667 5.40509 0.0513333 5.426C0.0266667 5.49 0.0120833 5.5575 0.008 5.626C0.008 5.63867 0 5.65 0 5.66267V21C0 22.1046 0.895417 23 2 23H3.33333V24.3333C3.33333 25.4379 4.22875 26.3333 5.33333 26.3333H6.66667V27.6667C6.66667 28.7713 7.56208 29.6667 8.66667 29.6667H38C39.1046 29.6667 40 28.7713 40 27.6667V9C40 7.89542 39.1046 7 38 7ZM5.33333 2.46667V4.33334C5.33333 4.7015 5.03483 5 4.66667 5H2.44133L5.33333 2.46667ZM2 21.6667C1.63183 21.6667 1.33333 21.3682 1.33333 21V6.33334H4.66667C5.77125 6.33334 6.66667 5.43792 6.66667 4.33334V1.66667H31.3333C31.7015 1.66667 32 1.96517 32 2.33334V21C32 21.3682 31.7015 21.6667 31.3333 21.6667H2ZM5.33333 25C4.96517 25 4.66667 24.7015 4.66667 24.3333V23H31.3333C32.4379 23 33.3333 22.1046 33.3333 21V5H34.6667C35.0348 5 35.3333 5.2985 35.3333 5.66667V24.3333C35.3333 24.7015 35.0348 25 34.6667 25H5.33333ZM38.6667 27.6667C38.6667 28.0348 38.3682 28.3333 38 28.3333H8.66667C8.2985 28.3333 8 28.0348 8 27.6667V26.3333H34.6667C35.7713 26.3333 36.6667 25.4379 36.6667 24.3333V8.33334H38C38.3682 8.33334 38.6667 8.63184 38.6667 9V27.6667Z" fill="black"/>
<path d="M4.00008 19.6667H2.66675V21H4.00008V19.6667Z" fill="black"/>
<path d="M6.66658 19.6667H5.33325V21H6.66658V19.6667Z" fill="black"/>
<path d="M9.33333 19.6667H8V21H9.33333V19.6667Z" fill="black"/>
<path d="M12.0001 19.6667H10.6667V21H12.0001V19.6667Z" fill="black"/>
<path d="M14.6666 19.6667H13.3333V21H14.6666V19.6667Z" fill="black"/>
<path d="M17.3333 19.6667H16V21H17.3333V19.6667Z" fill="black"/>
<path d="M20 19.6667H18.6666V21H20V19.6667Z" fill="black"/>
<path d="M22.6667 19.6667H21.3334V21H22.6667V19.6667Z" fill="black"/>
<path d="M25.3333 19.6667H24V21H25.3333V19.6667Z" fill="black"/>
<path d="M28 19.6667H26.6666V21H28V19.6667Z" fill="black"/>
<path d="M30.6667 19.6667H29.3334V21H30.6667V19.6667Z" fill="black"/>
<path d="M18.6667 6.33334H8V7.66667H18.6667V6.33334Z" fill="black"/>
<path d="M25.3333 6.33334H20V7.66667H25.3333V6.33334Z" fill="black"/>
<path d="M20 9H8V10.3333H20V9Z" fill="black"/>
<path d="M25.3334 9H21.3334V10.3333H25.3334V9Z" fill="black"/>
<path d="M25.3333 11.6667H8V13H25.3333V11.6667Z" fill="black"/>
<path d="M25.3333 14.3333H8V15.6667H25.3333V14.3333Z" fill="black"/>
</svg>
