<svg width="25" height="25" viewBox="0 0 25 25" fill="none" xmlns="http://www.w3.org/2000/svg">
<path d="M20.3125 25H4.6875C2.09844 25 0 22.9016 0 20.3125V4.6875C0 2.09844 2.09844 0 4.6875 0H20.3125C22.9016 0 25 2.09844 25 4.6875V20.3125C25 22.9016 22.9016 25 20.3125 25Z" fill="white"/>
<path d="M18.7469 18.7498L18.75 18.749V14.1646C18.75 11.9217 18.2672 10.1943 15.6453 10.1943C14.3852 10.1943 13.5391 10.8857 13.1938 11.542H13.1578V10.4037H10.6719V18.749H13.2609V14.617C13.2609 13.5287 13.4672 12.4771 14.8148 12.4771C16.1422 12.4771 16.1625 13.7186 16.1625 14.6873V18.7498H18.7469Z" fill="#2D313A"/>
<path d="M6.45618 10.4048H9.04758V18.7501H6.45618V10.4048Z" fill="#2D313A"/>
<path d="M7.75078 6.25C6.92266 6.25 6.25 6.92266 6.25 7.75078C6.25 8.57969 6.92266 9.26562 7.75078 9.26562C8.57891 9.26562 9.25156 8.57969 9.25156 7.75078C9.25156 6.92266 8.57891 6.25 7.75078 6.25Z" fill="#2D313A"/>
</svg>
