<svg width="43" height="55" viewBox="0 0 43 55" fill="none" xmlns="http://www.w3.org/2000/svg">
<path d="M39.8206 30.5007L31.6084 17.6269C32.7719 17.0154 33.5679 15.7952 33.5679 14.392C33.5679 12.8561 32.6145 11.5395 31.2687 11.0005L33.7565 2.30266C33.8638 1.92742 33.7592 1.52359 33.4833 1.24761C31.8284 -0.407216 29.1358 -0.407216 27.4809 1.24761C27.085 1.64348 26.5587 1.86146 25.9989 1.86146C25.4391 1.86146 24.9128 1.64348 24.5145 1.24503L24.5092 1.23977C22.8602 -0.409472 20.1722 -0.414091 18.5165 1.22999L18.4857 1.26072C17.6685 2.07212 16.3412 2.06976 15.527 1.25545L15.5192 1.24761C13.8642 -0.407216 11.1716 -0.407216 9.51671 1.24761C9.24062 1.52381 9.13609 1.92795 9.24363 2.30342L11.7368 10.9985C10.3882 11.536 9.43217 12.8541 9.43217 14.3921C9.43217 15.7953 10.228 17.0155 11.3917 17.627L3.1793 30.5007C0.00220954 35.4811 -0.199111 41.5471 2.64076 46.7272C5.48063 51.9073 10.7029 54.9999 16.6105 54.9999H26.3893C32.2968 54.9999 37.5191 51.9073 40.3591 46.7272C43.1989 41.5471 42.9977 35.4811 39.8206 30.5007ZM13.9998 2.76686L14.0076 2.77471C15.6569 4.42384 18.3447 4.42835 20.0003 2.78448L20.0312 2.75376C20.8483 1.94235 22.1755 1.94471 22.9923 2.76149L22.9976 2.76676C24.6525 4.42158 27.3451 4.42158 29 2.76676C29.6734 2.09339 30.6947 1.9749 31.4905 2.41127L29.1086 10.7394H13.8979L11.5097 2.41117C12.3056 1.9749 13.3266 2.09361 13.9998 2.76686ZM38.4751 45.6944C36.0182 50.1759 31.5002 52.8515 26.3894 52.8515H16.6106C11.4998 52.8515 6.98183 50.176 4.52494 45.6944C2.06806 41.2129 2.2422 35.965 4.99075 31.6562L13.6737 18.0446H16.6657C17.2591 18.0446 17.74 17.5636 17.74 16.9703C17.74 16.377 17.2591 15.896 16.6657 15.896H13.0847C12.2554 15.896 11.5807 15.2214 11.5807 14.392C11.5807 13.5627 12.2554 12.888 13.0847 12.888H13.0883H29.9152C30.7446 12.888 31.4192 13.5627 31.4192 14.392C31.4192 15.2214 30.7446 15.896 29.9152 15.896H26.3343C25.741 15.896 25.26 16.377 25.26 16.9703C25.26 17.5636 25.741 18.0446 26.3343 18.0446H29.3263L38.0093 31.6562C40.7579 35.9649 40.932 41.2128 38.4751 45.6944Z" fill="#2D313A"/>
<path d="M23.394 35.0839C23.1245 34.9887 22.8494 34.8895 22.5743 34.7865V29.9176C23.3027 30.1319 23.7891 30.4795 23.8098 30.4945C24.2823 30.8485 24.9528 30.7546 25.3099 30.2833C25.6682 29.8104 25.5752 29.1366 25.1023 28.7782C25.0393 28.7304 24.0404 27.9889 22.5743 27.7082V26.6391C22.5743 26.0458 22.0934 25.5648 21.5001 25.5648C20.9067 25.5648 20.4258 26.0458 20.4258 26.6391V27.7005C20.2438 27.7354 20.0593 27.7796 19.8724 27.8357C18.3605 28.2901 17.2303 29.5831 16.923 31.2102C16.6425 32.6959 17.1185 34.1289 18.1653 34.9499C18.7333 35.3954 19.4431 35.8022 20.4258 36.2343V42.4647C19.5798 42.4112 19.0138 42.2187 18.0704 41.6015C17.574 41.2765 16.908 41.4159 16.5833 41.9124C16.2584 42.4089 16.3976 43.0747 16.8942 43.3995C18.2699 44.2995 19.2014 44.5544 20.4258 44.6147V45.7256C20.4258 46.3189 20.9067 46.7999 21.5001 46.7999C22.0934 46.7999 22.5743 46.3189 22.5743 45.7256V44.503C24.8748 43.9992 26.2202 42.0796 26.5221 40.2838C26.9167 37.9361 25.6889 35.895 23.394 35.0839ZM19.4912 33.2592C19.0783 32.9353 18.9032 32.3028 19.0342 31.6087C19.1548 30.9704 19.5843 30.2007 20.4258 29.9159V33.8502C20.0725 33.6619 19.7538 33.4651 19.4912 33.2592ZM24.4032 39.9275C24.2485 40.8476 23.6275 41.8235 22.5742 42.2547V37.0724C22.6093 37.0849 22.6424 37.097 22.6779 37.1096C24.604 37.7904 24.4855 39.4385 24.4032 39.9275Z" fill="#2D313A"/>
<path d="M21.4999 18.0447C21.7825 18.0447 22.0596 17.9297 22.2595 17.7299C22.4593 17.5301 22.5742 17.2529 22.5742 16.9704C22.5742 16.6879 22.4593 16.4107 22.2595 16.2109C22.0596 16.0111 21.7825 15.8961 21.4999 15.8961C21.2174 15.8961 20.9402 16.0111 20.7404 16.2109C20.5406 16.4107 20.4257 16.6879 20.4257 16.9704C20.4257 17.2529 20.5406 17.5301 20.7404 17.7299C20.9402 17.9297 21.2173 18.0447 21.4999 18.0447Z" fill="#2D313A"/>
</svg>
