<svg width="50" height="50" viewBox="0 0 50 50" fill="none" xmlns="http://www.w3.org/2000/svg">
<g clip-path="url(#clip0)">
<path d="M37.4177 33.3143C35.7018 33.3143 34.3057 34.7104 34.3057 36.4263C34.3057 38.1424 35.7018 39.5384 37.4177 39.5384C39.1337 39.5384 40.5298 38.1424 40.5298 36.4263C40.5298 34.7104 39.1337 33.3143 37.4177 33.3143ZM37.4177 38.0736C36.5094 38.0736 35.7705 37.3346 35.7705 36.4263C35.7705 35.518 36.5094 34.7792 37.4177 34.7792C38.326 34.7792 39.0649 35.518 39.0649 36.4263C39.0649 37.3346 38.326 38.0736 37.4177 38.0736Z" fill="#2D313A"/>
<path d="M9.87712 33.3143C8.16111 33.3143 6.76501 34.7104 6.76501 36.4263C6.76501 38.1424 8.16111 39.5384 9.87712 39.5384C11.5931 39.5384 12.9892 38.1424 12.9892 36.4263C12.9892 34.7104 11.5931 33.3143 9.87712 33.3143ZM9.87712 38.0736C8.96882 38.0736 8.22986 37.3346 8.22986 36.4263C8.22986 35.518 8.96882 34.7792 9.87712 34.7792C10.7854 34.7792 11.5244 35.518 11.5244 36.4263C11.5244 37.3346 10.7853 38.0736 9.87712 38.0736Z" fill="#2D313A"/>
<path d="M48.8452 19.5401C48.7481 19.2369 48.4661 19.031 48.1477 19.031H45.7178L45.1423 17.0692C45.1371 17.0519 45.1315 17.0347 45.1251 17.0178C44.5563 15.5034 43.087 14.4858 41.4693 14.4858H31.6425C31.6425 13.6285 31.6425 11.2616 31.6425 10.4025C31.6425 9.12295 30.6015 8.08203 29.322 8.08203H3.08055C1.80097 8.08203 0.760056 9.12295 0.760056 10.4025V11.676V31.3234C0.299413 31.6725 0 32.2237 0 32.845V35.2773C0 36.3147 0.84404 37.1588 1.88144 37.1588H4.43572C4.7951 39.8417 7.09753 41.918 9.87711 41.918C12.6567 41.918 14.9592 39.8416 15.3185 37.1588H31.9762C32.3356 39.8417 34.638 41.918 37.4176 41.918C40.1972 41.918 42.4997 39.8416 42.859 37.1588H46.5199C47.5573 37.1588 48.4014 36.3147 48.4014 35.2773V32.0576V30.2163C48.4014 27.2752 47.7174 25.7658 46.1475 20.4958H47.6132L48.5699 23.4844C48.6935 23.8703 49.1064 24.082 49.4908 23.9585C49.876 23.8352 50.0884 23.423 49.9649 23.0376L48.8452 19.5401ZM41.4694 15.9507C42.4276 15.9507 43.2933 16.5309 43.6747 17.3473C41.4195 17.3473 34.1085 17.3473 31.6425 17.3473V15.9507H41.4694ZM30.1776 35.6939H15.3202C15.1586 34.484 14.5761 33.2978 13.6075 32.3995H30.1776V35.6939ZM2.22489 10.4025C2.22489 9.93075 2.60878 9.54687 3.08055 9.54687H29.322C29.7937 9.54687 30.1776 9.93075 30.1776 10.4025V10.9435H17.9102C17.5056 10.9435 17.1778 11.2714 17.1778 11.676C17.1778 12.0805 17.5056 12.4084 17.9102 12.4084H30.1776V30.9347C28.3102 30.9347 3.34237 30.9347 2.22499 30.9347V12.4084H14.4923C14.8969 12.4084 15.2247 12.0805 15.2247 11.676C15.2247 11.2714 14.8969 10.9435 14.4923 10.9435H2.22489V10.4025ZM1.46484 35.2773V32.845C1.46484 32.5993 1.66474 32.3994 1.91044 32.3994H6.14685C5.18357 33.2924 4.59637 34.4775 4.43406 35.6938H1.88144C1.65556 35.6939 1.46484 35.5032 1.46484 35.2773ZM9.87711 40.4532C7.65671 40.4532 5.85027 38.6468 5.85027 36.4263C5.85027 34.2013 7.661 32.3995 9.87711 32.3995C12.0844 32.3995 13.9039 34.1939 13.9039 36.4263C13.9039 38.6468 12.0975 40.4532 9.87711 40.4532ZM31.6425 18.8122H33.8416V24.4956C33.8416 25.4549 34.6219 26.2354 35.5812 26.2354H36.6827C36.9905 26.2354 37.2921 26.3415 37.532 26.5342L37.8951 26.8258C38.2106 27.0791 38.6715 27.0287 38.9248 26.7135C39.1782 26.3982 39.1278 25.9371 38.8125 25.6837L38.4494 25.3921C37.9503 24.9913 37.3229 24.7706 36.6827 24.7706H35.5812C35.4296 24.7706 35.3064 24.6473 35.3064 24.4957V18.8123H44.1271C46.1233 25.6178 46.6028 26.6079 46.8393 28.5929H42.9119C42.6042 28.5929 42.3026 28.4867 42.0626 28.294L41.4781 27.8243C41.1626 27.5711 40.7016 27.6214 40.4483 27.9366C40.195 28.252 40.2453 28.713 40.5606 28.9664L41.1452 29.436C41.6444 29.8368 42.2718 30.0576 42.9119 30.0576H46.9348C46.9354 30.1106 46.9365 30.1634 46.9365 30.2163V31.3252H45.7911C44.9104 31.3252 44.1939 32.0418 44.1939 32.9225V35.6938H42.8609C42.4976 32.9728 40.1573 30.9346 37.4178 30.9346C34.6414 30.9346 32.333 33.0104 31.9748 35.6938H31.6426C31.6425 32.6411 31.6425 20.5645 31.6425 18.8122ZM37.4176 40.4532C35.1972 40.4532 33.3908 38.6468 33.3908 36.4263C33.3908 34.2059 35.1972 32.3995 37.4176 32.3995C39.638 32.3995 41.4445 34.2059 41.4445 36.4263C41.4445 38.6468 39.6381 40.4532 37.4176 40.4532ZM46.9365 35.2773C46.9365 35.5032 46.7458 35.6939 46.5199 35.6939H45.6586V32.9226C45.6586 32.8508 45.7193 32.7901 45.791 32.7901H46.9364V35.2773H46.9365Z" fill="#2D313A"/>
<path d="M35.6813 28.8723H36.3649C36.7695 28.8723 37.0973 28.5445 37.0973 28.1399C37.0973 27.7353 36.7695 27.4075 36.3649 27.4075H35.6813C35.2767 27.4075 34.9489 27.7353 34.9489 28.1399C34.9489 28.5445 35.2767 28.8723 35.6813 28.8723Z" fill="#2D313A"/>
</g>
<defs>
<clipPath id="clip0">
<rect width="50" height="50" fill="white"/>
</clipPath>
</defs>
</svg>
