<svg width="51" height="50" viewBox="0 0 51 50" fill="none" xmlns="http://www.w3.org/2000/svg">
<path d="M33.2996 8.65625H33.3852C33.7884 8.65625 34.1151 8.32832 34.1151 7.92383C34.1151 7.51934 33.7884 7.19141 33.3852 7.19141H33.2996C32.8964 7.19141 32.5697 7.51934 32.5697 7.92383C32.5697 8.32832 32.8965 8.65625 33.2996 8.65625Z" fill="#2D313A"/>
<path d="M35.6354 8.65625H35.721C36.1242 8.65625 36.4509 8.32832 36.4509 7.92383C36.4509 7.51934 36.1242 7.19141 35.721 7.19141H35.6354C35.2322 7.19141 34.9055 7.51934 34.9055 7.92383C34.9055 8.32832 35.2323 8.65625 35.6354 8.65625Z" fill="#2D313A"/>
<path d="M11.5579 8.65625H11.4724C11.0691 8.65625 10.7424 8.98418 10.7424 9.38867C10.7424 9.79316 11.0691 10.1211 11.4724 10.1211H11.5579C11.9611 10.1211 12.2878 9.79316 12.2878 9.38867C12.2878 8.98418 11.961 8.65625 11.5579 8.65625Z" fill="#2D313A"/>
<path d="M11.5579 10.7441H11.4724C11.0691 10.7441 10.7424 11.0721 10.7424 11.4766C10.7424 11.8811 11.0691 12.209 11.4724 12.209H11.5579C11.9611 12.209 12.2878 11.8811 12.2878 11.4766C12.2878 11.0721 11.961 10.7441 11.5579 10.7441Z" fill="#2D313A"/>
<path d="M25.4577 11.5498C25.8609 11.5498 26.1876 11.2219 26.1876 10.8174V6.56934C26.1876 6.16484 25.8609 5.83691 25.4577 5.83691C25.0545 5.83691 24.7278 6.16484 24.7278 6.56934V10.8174C24.7278 11.222 25.0545 11.5498 25.4577 11.5498Z" fill="#2D313A"/>
<path d="M23.1895 8.62012C23.5927 8.62012 23.9194 8.29219 23.9194 7.8877V6.56934C23.9194 6.16484 23.5927 5.83691 23.1895 5.83691C22.7863 5.83691 22.4596 6.16484 22.4596 6.56934V7.8877C22.4596 8.29229 22.7864 8.62012 23.1895 8.62012Z" fill="#2D313A"/>
<path d="M48.9463 0H44.9702C44.567 0 44.2402 0.32793 44.2402 0.732422V14.3057H42.6329V10.8844C42.6329 10.2112 42.0872 9.66367 41.4164 9.66367H40.2735V6.18613C40.2735 5.54678 39.7552 5.02666 39.118 5.02666H29.0924V3.62959C29.0924 2.98467 28.5695 2.45986 27.9267 2.45986H16.9926C16.3498 2.45986 15.8267 2.98467 15.8267 3.62959V6.4915H9.18635C8.54917 6.4915 8.03083 7.01162 8.03083 7.65098V14.3058H6.65925V0.732422C6.65925 0.32793 6.33253 0 5.92932 0H1.95307C1.54986 0 1.22314 0.32793 1.22314 0.732422V49.2676C1.22314 49.6721 1.54986 50 1.95307 50H5.92922C6.33243 50 6.65915 49.6721 6.65915 49.2676V46.9382H44.2401V49.2676C44.2401 49.6721 44.5669 50 44.9701 50H48.9462C49.3494 50 49.6761 49.6721 49.6761 49.2676V0.732422C49.6762 0.32793 49.3494 0 48.9463 0ZM6.65925 40.4065H44.2402V41.4978H6.65925V40.4065ZM18.0628 29.7852H20.6638C21.2809 29.7852 21.783 29.2813 21.783 28.6621V27.1973H23.0227V31.127H19.5543C18.9171 31.127 18.3988 31.6471 18.3988 32.2864V34.0494C18.3988 34.4539 18.7255 34.7818 19.1287 34.7818C19.5319 34.7818 19.8587 34.4539 19.8587 34.0494V32.5918H27.6466V33.9472H25.4566C24.8194 33.9472 24.3011 34.4673 24.3011 35.1066V36.6868C24.3011 37.3262 24.8194 37.8464 25.4566 37.8464H27.6466V38.9416H19.8587V37.3698C19.8587 36.9653 19.5319 36.6374 19.1287 36.6374C18.7255 36.6374 18.3988 36.9653 18.3988 37.3698V38.9414H15.9942V30.0228C15.9942 29.3776 15.4712 28.8528 14.8283 28.8528H13.2448V27.1973H16.9436V28.6621C16.9436 29.2813 17.4457 29.7852 18.0628 29.7852ZM18.4035 28.3203V27.1973H20.3232V28.3203H18.4035ZM41.5715 38.9416H35.0215V35.7641H41.5716V38.9416H41.5715ZM38.0006 34.2992H36.5556V31.2054C36.5556 30.8009 36.2289 30.4729 35.8256 30.4729C35.4224 30.4729 35.0957 30.8009 35.0957 31.2054V34.2992H34.7781C34.1072 34.2992 33.5615 34.8468 33.5615 35.5199V38.9416H29.1064V32.2865C29.1064 31.6472 28.5881 31.1271 27.9509 31.1271H27.6547V28.5604H38.0006V34.2992ZM27.6466 36.3815H25.7609V35.412H27.6466V36.3815ZM11.931 34.0618C12.3342 34.0618 12.6609 33.7339 12.6609 33.3294V30.3177H14.5344V38.9417H9.32757V30.3177H11.201V33.3294C11.201 33.7339 11.5278 34.0618 11.931 34.0618ZM6.65925 18.3271H44.2402V20.8378H6.65925V18.3271ZM38.8136 6.49141V9.66357H34.3795C33.7087 9.66357 33.163 10.2111 33.163 10.8843V14.3056H29.0923V6.49141H38.8136ZM17.2866 3.92461H27.6326V14.3057H18.7385V7.65088C18.7385 7.01152 18.2201 6.49141 17.5829 6.49141H17.2866V3.92461ZM17.2786 11.7459H15.393V10.7764H17.2786V11.7459ZM9.49068 7.95625H17.2786V9.31152H15.0886C14.4515 9.31152 13.9331 9.83174 13.9331 10.4711V12.0513C13.9331 12.6906 14.4515 13.2107 15.0886 13.2107H17.2786V14.3056H9.49068V7.95625ZM35.5064 15.7705C35.9096 15.7705 36.2364 15.4426 36.2364 15.0381C36.2364 14.6336 35.9096 14.3057 35.5064 14.3057H34.6229V11.1285H41.1731V14.3057H38.8155C38.4123 14.3057 38.0856 14.6336 38.0856 15.0381C38.0856 15.4426 38.4123 15.7705 38.8155 15.7705H44.2401V16.8623H6.65925V15.7705H35.5064ZM5.19939 48.5352H2.683V1.46484H5.1993V23.8933C5.1993 24.2978 5.52601 24.6257 5.92922 24.6257C6.33243 24.6257 6.65915 24.2978 6.65915 23.8933V22.3027H44.2401V38.9417H43.0314V35.5199C43.0314 34.8468 42.4857 34.2992 41.8148 34.2992H39.4605V28.2651C39.4605 27.6202 38.9375 27.0954 38.2946 27.0954H27.3605C26.7178 27.0954 26.1948 27.6202 26.1948 28.2651V31.127H24.4825V26.9531C24.4825 26.28 23.9368 25.7324 23.2659 25.7324H13.0015C12.3307 25.7324 11.785 26.28 11.785 26.9531V28.8528H9.03355C8.39073 28.8528 7.86771 29.3776 7.86771 30.0228V38.9417H6.65925V27.2136C6.65925 26.8091 6.33253 26.4812 5.92932 26.4812C5.52611 26.4812 5.19939 26.8091 5.19939 27.2136V48.5352ZM6.65925 45.4733V42.9627H44.2402V45.4733H6.65925ZM48.2164 48.5352H45.7001V1.46484H48.2164V48.5352Z" fill="#2D313A"/>
<path d="M21.8404 34.7568H21.9259C22.3292 34.7568 22.6559 34.4289 22.6559 34.0244C22.6559 33.6199 22.3292 33.292 21.9259 33.292H21.8404C21.4372 33.292 21.1105 33.6199 21.1105 34.0244C21.1105 34.4289 21.4372 34.7568 21.8404 34.7568Z" fill="#2D313A"/>
<path d="M21.8404 36.8438H21.9259C22.3292 36.8438 22.6559 36.5158 22.6559 36.1113C22.6559 35.7068 22.3292 35.3789 21.9259 35.3789H21.8404C21.4372 35.3789 21.1105 35.7068 21.1105 36.1113C21.1105 36.5158 21.4372 36.8438 21.8404 36.8438Z" fill="#2D313A"/>
<path d="M33.5576 33.2559C33.9608 33.2559 34.2875 32.9279 34.2875 32.5234V31.2051C34.2875 30.8006 33.9608 30.4727 33.5576 30.4727C33.1544 30.4727 32.8276 30.8006 32.8276 31.2051V32.5234C32.8276 32.9279 33.1544 33.2559 33.5576 33.2559Z" fill="#2D313A"/>
</svg>
