<svg width="50" height="50" viewBox="0 0 50 50" fill="none" xmlns="http://www.w3.org/2000/svg">
<g clip-path="url(#clip0)">
<path d="M16.4038 34.2259C18.463 37.1293 20.5188 39.726 21.8813 41.3984C22.0797 41.6418 22.2655 41.8676 22.4455 42.0851H18.3339C17.8736 42.0851 17.5006 42.4581 17.5006 42.9184C17.5006 43.3786 17.8736 43.7517 18.3339 43.7517H31.6671C32.1274 43.7517 32.5004 43.3786 32.5004 42.9184C32.5004 42.4581 32.1274 42.0851 31.6671 42.0851H27.5555C27.7355 41.8676 27.9213 41.6417 28.1205 41.3984C29.4822 39.7317 31.5372 37.1293 33.5972 34.2259C35.6411 31.4032 37.4807 28.4381 39.1022 25.3535C40.8039 22.0117 41.6673 19.2376 41.6673 17.1076C41.6729 12.6817 39.9167 8.43561 36.7864 5.30669C36.5773 5.0899 36.2675 5.00279 35.9761 5.07886C35.6847 5.15494 35.457 5.38228 35.3805 5.67359C35.3041 5.9649 35.3907 6.27477 35.6072 6.48414C38.4248 9.30095 40.0055 13.1233 40.0006 17.1075C40.0006 18.9726 39.1989 21.4925 37.6172 24.5967C36.0324 27.6099 34.2344 30.5062 32.2372 33.2634C30.2056 36.1293 28.1747 38.6968 26.8289 40.3468C26.3815 40.8951 25.9789 41.3801 25.6356 41.7901C25.4753 41.9731 25.2439 42.078 25.0006 42.078C24.7573 42.078 24.5259 41.9731 24.3656 41.7901C24.0223 41.3802 23.6198 40.8951 23.1723 40.3468C21.8265 38.6976 19.7956 36.1301 17.7639 33.2634C15.7668 30.5062 13.9688 27.6099 12.3839 24.5967C10.8006 21.4925 10.0006 18.9726 10.0006 17.1075C10.0001 11.0715 13.6099 5.62047 19.1674 3.26499C22.9016 1.69916 27.1082 1.69916 30.8424 3.26499C31.1166 3.3812 31.432 3.34243 31.6698 3.16303C31.9076 2.98374 32.0316 2.69116 31.9951 2.39555C31.9587 2.09994 31.7674 1.84623 31.4932 1.73002C23.007 -1.84929 13.2259 2.1267 9.64398 10.6117C8.77532 12.667 8.32981 14.8763 8.33401 17.1075C8.33401 19.2375 9.1974 22.0117 10.8991 25.3576C12.5204 28.4409 14.3601 31.4046 16.4038 34.2259Z" fill="#2D313A"/>
<path d="M25.0004 9.58507C25.4606 9.58507 25.8337 9.21202 25.8337 8.75176C25.8337 8.29151 25.4606 7.91846 25.0004 7.91846C21.0248 7.91836 17.6027 10.7268 16.827 14.626C16.0513 18.5252 18.1381 22.4294 21.8111 23.9508C25.4841 25.4723 29.7203 24.1873 31.9291 20.8817C34.1379 17.5761 33.704 13.1705 30.8929 10.3593C30.6836 10.1427 30.3738 10.0558 30.0824 10.132C29.7911 10.2083 29.5636 10.4359 29.4873 10.7272C29.411 11.0186 29.4979 11.3283 29.7145 11.5376C31.9636 13.7865 32.3107 17.3109 30.5438 19.9554C28.7769 22.6 25.388 23.6281 22.4496 22.4111C19.5112 21.1941 17.8416 18.0708 18.462 14.9514C19.0823 11.8319 21.8199 9.58516 25.0004 9.58507Z" fill="#2D313A"/>
<path d="M49.6863 45.8943L44.5613 36.7276C44.0979 35.9131 43.2308 35.4125 42.2938 35.4184H36.3546C35.8943 35.4184 35.5213 35.7914 35.5213 36.2517C35.5213 36.712 35.8943 37.085 36.3546 37.085H42.2938C42.6274 37.0786 42.9386 37.2525 43.1079 37.54L48.2313 46.7067C48.3708 46.9452 48.3679 47.241 48.2238 47.4767C48.0536 47.758 47.7457 47.9264 47.4171 47.9184H2.58367C2.25535 47.9262 1.94792 47.7577 1.77781 47.4767C1.63366 47.241 1.63083 46.9452 1.77029 46.7067L6.89364 37.54C7.06269 37.2526 7.37363 37.0787 7.70693 37.085H13.6461C14.1064 37.085 14.4794 36.712 14.4794 36.2517C14.4794 35.7914 14.1064 35.4184 13.6461 35.4184H7.70703C6.76952 35.4122 5.90175 35.9128 5.43788 36.7276L0.31364 45.8943C-0.113608 46.649 -0.103745 47.5748 0.339519 48.3202C0.806513 49.1139 1.66286 49.5967 2.58367 49.5852H47.4171C48.3376 49.5964 49.1937 49.1138 49.6605 48.3202C50.1038 47.5747 50.1136 46.649 49.6863 45.8943Z" fill="#2D313A"/>
<path d="M40.8337 39.5852H37.5004C37.3358 39.5855 37.175 39.6341 37.0379 39.7252L34.5379 41.3919C34.155 41.6474 34.0517 42.1649 34.307 42.5478C34.5625 42.9307 35.08 43.034 35.4629 42.7787L37.7504 41.252H40.8337C41.294 41.252 41.667 40.8789 41.667 40.4187C41.667 39.9583 41.294 39.5852 40.8337 39.5852Z" fill="#2D313A"/>
<path d="M35.8339 45.4185C35.8339 45.8788 36.2069 46.2518 36.6672 46.2518H43.3339C43.7941 46.2518 44.1672 45.8788 44.1672 45.4185C44.1672 44.9583 43.7941 44.5852 43.3339 44.5852H36.6672C36.2069 44.5852 35.8339 44.9583 35.8339 45.4185Z" fill="#2D313A"/>
<path d="M15.0004 42.9185C15.3678 42.919 15.6921 42.6788 15.7988 42.3272C15.9055 41.9756 15.7694 41.5956 15.4637 41.3918L12.9637 39.7251C12.8264 39.6339 12.6652 39.5852 12.5004 39.5851H9.16704C8.70679 39.5851 8.33374 39.9582 8.33374 40.4184C8.33374 40.8786 8.70689 41.2517 9.16704 41.2517H12.2504L14.5404 42.7784C14.6766 42.8694 14.8367 42.9181 15.0004 42.9185Z" fill="#2D313A"/>
<path d="M6.66692 44.5852C6.20667 44.5852 5.83362 44.9583 5.83362 45.4185C5.83362 45.8788 6.20667 46.2518 6.66692 46.2518H13.3336C13.7939 46.2518 14.167 45.8788 14.167 45.4185C14.167 44.9583 13.7939 44.5852 13.3336 44.5852H6.66692Z" fill="#2D313A"/>
</g>
<defs>
<clipPath id="clip0">
<rect width="50" height="50" fill="white"/>
</clipPath>
</defs>
</svg>
