<svg width="65" height="65" viewBox="0 0 65 65" fill="none" xmlns="http://www.w3.org/2000/svg">
<path d="M34.1074 30.8943C33.611 30.3979 32.8074 30.3979 32.311 30.8943C31.8159 31.3894 31.8159 32.193 32.311 32.6894C32.8074 33.1845 33.611 33.1845 34.1074 32.6894C34.6025 32.193 34.6025 31.3894 34.1074 30.8943Z" fill="#2D313A"/>
<path d="M50.265 14.7352C47.7843 12.2547 43.7686 12.2545 41.2878 14.7352C38.8136 17.2094 38.8135 21.2364 41.2882 23.7126C43.7632 26.1861 47.7902 26.1871 50.265 23.7123C52.7454 21.2319 52.7459 17.216 50.265 14.7352ZM48.4696 21.9168C46.9852 23.4014 44.5687 23.4014 43.0835 21.9171C41.5988 20.4315 41.5987 18.015 43.0833 16.5306C44.5715 15.0423 46.9811 15.0421 48.4696 16.5306C49.9579 18.0187 49.9582 20.4284 48.4696 21.9168Z" fill="#2D313A"/>
<path d="M64.6279 0.371736C64.3786 0.122527 64.0384 -0.012551 63.6847 0.000779043C63.3976 0.0110622 56.5631 0.285789 48.4387 3.15734C41.9286 5.45596 36.5022 8.74696 32.3104 12.939C31.371 13.8783 30.457 14.8744 29.5824 15.9091C25.4376 13.4694 22.1163 14.2344 20.0166 15.358C15.1821 17.9453 12.1897 24.9704 12.1897 29.9952C12.1901 30.5086 12.4995 30.9716 12.9738 31.168C13.1308 31.2332 13.2958 31.2648 13.4594 31.2648C13.7898 31.2648 14.1144 31.1357 14.3573 30.8929C16.9069 28.3433 20.0516 28.5028 21.079 28.6378L21.5235 29.0824C20.6486 31.1645 19.9437 33.2348 19.4268 35.2484C19.2402 35.9771 19.3031 36.7482 19.5805 37.4536C18.3582 38.0169 17.179 38.844 16.1522 39.8708C12.8843 43.1388 12.2207 51.1031 12.194 51.4405C12.1648 51.8109 12.2991 52.1755 12.5618 52.4381C12.8008 52.6771 13.1242 52.81 13.4594 52.81C13.4926 52.81 13.526 52.8087 13.5594 52.806C13.8968 52.7795 21.8614 52.1159 25.1293 48.848C26.1557 47.8216 26.9827 46.6425 27.5459 45.4204C28.2927 45.7141 29.0613 45.7502 29.7524 45.5731C31.7651 45.0563 33.8352 44.3517 35.9175 43.4766L36.3621 43.9212C36.497 44.9487 36.6565 48.0934 34.107 50.6428C33.744 51.0058 33.6354 51.5519 33.8319 52.0262C34.0283 52.5006 34.4912 52.8099 35.0047 52.8099C40.0295 52.8099 47.0544 49.8174 49.6418 44.9829C50.7654 42.8835 51.5304 39.5622 49.0906 35.4173C50.1249 34.5431 51.1211 33.629 52.0608 32.6893C56.2528 28.4973 59.5437 23.071 61.8423 16.5613C64.714 8.43656 64.9886 1.60191 64.9989 1.315C65.0116 0.962703 64.8771 0.621072 64.6279 0.371736ZM15.0281 27.2646C15.8167 23.448 18.1074 19.2599 21.2152 17.5966C23.292 16.4853 25.5621 16.5942 27.9757 17.9154C25.9194 20.6197 24.1318 23.5333 22.6417 26.61C22.6228 26.5983 22.3943 26.3111 21.9698 26.2153C21.7952 26.1758 18.4362 25.4534 15.0281 27.2646ZM23.3339 47.0525C21.5883 48.7981 17.4934 49.7188 14.9052 50.0947C15.2813 47.5064 16.202 43.4116 17.9475 41.6662C18.9251 40.6886 20.0585 39.9475 21.1978 39.53L25.47 43.8023C25.0526 44.9416 24.3116 46.075 23.3339 47.0525ZM29.1217 43.1136C28.7543 43.2076 28.3287 43.0695 28.0124 42.7536C26.37 41.1112 25.7275 40.4687 25.5259 40.2673C25.1562 39.8976 24.2496 38.991 22.2472 36.9884C21.9306 36.6712 21.7924 36.2458 21.8862 35.879C22.2929 34.2954 22.8247 32.6706 23.4714 31.0303L33.9698 41.5287C32.3292 42.1755 30.7047 42.7072 29.1217 43.1136ZM47.4034 43.7849C45.7401 46.8926 41.5522 49.1833 37.7357 49.9718C38.9526 47.682 39.2208 44.767 38.7762 42.9994C38.673 42.5889 38.4051 42.3824 38.3902 42.3582C41.4666 40.8681 44.3801 39.0805 47.0847 37.0242C48.4059 39.4381 48.5147 41.7084 47.4034 43.7849ZM50.2657 30.8939C49.1218 32.0378 47.8899 33.1429 46.6044 34.1785C43.5141 36.6667 40.1128 38.7744 36.4839 40.4522L24.5478 28.5164C26.2256 24.8873 28.3333 21.4859 30.8213 18.396C31.8578 17.1096 32.9628 15.8777 34.1062 14.7343C37.8672 10.9732 42.7212 7.97991 48.5371 5.82526L59.1748 16.4629C57.0204 22.2788 54.0271 27.1327 50.2657 30.8939ZM60.0882 13.7853L51.2147 4.91183C56.0492 3.41023 60.255 2.84796 62.3543 2.64585C62.1521 4.74552 61.5897 8.95135 60.0882 13.7853Z" fill="#2D313A"/>
<path d="M30.5159 52.4379C30.0199 51.9421 29.216 51.9423 28.7204 52.4381L25.1302 56.0296C24.6346 56.5255 24.6347 57.3294 25.1304 57.825C25.6264 58.3206 26.4303 58.3206 26.9259 57.8247L30.5162 54.2332C31.0118 53.7373 31.0117 52.9335 30.5159 52.4379Z" fill="#2D313A"/>
<path d="M12.5626 34.4842C12.067 33.9884 11.2632 33.9884 10.7672 34.484L7.17572 38.0742C6.67984 38.5698 6.67971 39.3737 7.17533 39.8696C7.67083 40.3652 8.47457 40.3657 8.97071 39.8698L12.5622 36.2796C13.0581 35.784 13.0582 34.9801 12.5626 34.4842Z" fill="#2D313A"/>
<path d="M21.5393 54.2344C21.0438 53.7386 20.2398 53.7386 19.7439 54.2343L11.1441 62.8328C10.6483 63.3285 10.6483 64.1324 11.144 64.6282C11.6395 65.1239 12.4435 65.1242 12.9394 64.6283L21.5392 56.0298C22.0351 55.534 22.0351 54.7301 21.5393 54.2344Z" fill="#2D313A"/>
<path d="M11.3831 54.2344C10.8874 53.7386 10.0834 53.7386 9.5877 54.2343L0.987892 62.8328C0.492013 63.3285 0.492013 64.1324 0.987765 64.6282C1.48326 65.1239 2.28726 65.1242 2.78314 64.6283L11.3829 56.0298C11.8788 55.534 11.8788 54.7301 11.3831 54.2344Z" fill="#2D313A"/>
<path d="M10.7659 43.4609C10.2703 42.9653 9.46633 42.9653 8.97058 43.4611L0.372042 52.0609C-0.12371 52.5568 -0.12371 53.3605 0.372169 53.8564C0.867921 54.3521 1.67179 54.3521 2.16754 53.8562L10.7661 45.2564C11.2618 44.7606 11.2618 43.9568 10.7659 43.4609Z" fill="#2D313A"/>
<path d="M39.493 25.5072C38.9971 25.0114 38.1935 25.0114 37.6975 25.5072L35.9023 27.3023C35.4066 27.7981 35.4066 28.6019 35.9023 29.0978C36.3982 29.5936 37.202 29.5936 37.6978 29.0978L39.493 27.3027C39.9887 26.8069 39.9887 26.0031 39.493 25.5072Z" fill="#2D313A"/>
</svg>
