<svg width="41" height="47" viewBox="0 0 41 47" fill="none" xmlns="http://www.w3.org/2000/svg">
<path d="M28.32 18.62L26.895 17.2166L24.43 19.7196L27.8406 20.5617L28.32 18.62ZM35.76 23L34.2069 24.2601L34.2199 24.2761L34.2332 24.2919L35.76 23ZM36.3 37.64L34.6127 36.5662L34.6075 36.5744L36.3 37.64ZM29.94 42.92L30.794 44.7285L29.94 42.92ZM10.32 44L9.89181 45.9536L9.89734 45.9548L10.32 44ZM2.64 41.18L0.82286 40.3445L0.0534737 42.0179L1.65797 42.9223L2.64 41.18ZM7.44 30.74L8.44524 29.011L6.54235 27.9047L5.62286 29.9045L7.44 30.74ZM12.96 33.02L12.4471 34.9531L12.4567 34.9556L12.96 33.02ZM22.68 32.96L21.7028 31.215L22.68 32.96ZM13.62 27.68H11.62V29.68H13.62V27.68ZM13.62 18.98L12.1923 17.5794L11.62 18.1628V18.98H13.62ZM19.8 12.68L21.2277 14.0805L24.5635 10.68H19.8V12.68ZM4.8 12.68H2.8V14.68H4.8V12.68ZM4.8 2V-2.86102e-06H2.8V2H4.8ZM36.12 2H38.12V-2.86102e-06H36.12V2ZM36.12 10.7L37.545 12.1034L38.12 11.5195V10.7H36.12ZM27.8406 20.5617C30.7542 21.2811 32.8176 22.5477 34.2069 24.2601L37.3131 21.7399C35.2624 19.2123 32.3658 17.5589 28.7994 16.6783L27.8406 20.5617ZM34.2332 24.2919C35.6604 25.9786 36.4 28.0291 36.4 30.56H40.4C40.4 27.1709 39.3796 24.1814 37.2868 21.7081L34.2332 24.2919ZM36.4 30.56C36.4 32.6859 35.816 34.6754 34.6127 36.5662L37.9873 38.7138C39.584 36.2046 40.4 33.4741 40.4 30.56H36.4ZM34.6075 36.5744C33.4955 38.3405 31.7066 39.874 29.086 41.1115L30.794 44.7285C33.9334 43.246 36.3845 41.2595 37.9925 38.7056L34.6075 36.5744ZM29.086 41.1115C26.5483 42.3098 23.2811 42.96 19.2 42.96V46.96C23.6789 46.96 27.5717 46.2502 30.794 44.7285L29.086 41.1115ZM19.2 42.96C16.3853 42.96 13.567 42.6558 10.7427 42.0452L9.89734 45.9548C12.993 46.6242 16.0947 46.96 19.2 46.96V42.96ZM10.7482 42.0464C7.98768 41.4413 5.62057 40.5641 3.62203 39.4377L1.65797 42.9223C4.05943 44.2759 6.81232 45.2787 9.89181 45.9536L10.7482 42.0464ZM4.45714 42.0155L9.25714 31.5755L5.62286 29.9045L0.82286 40.3445L4.45714 42.0155ZM6.43476 32.469C8.312 33.5604 10.318 34.3882 12.4471 34.9531L13.4729 31.0869C11.682 30.6118 10.008 29.9196 8.44524 29.011L6.43476 32.469ZM12.4567 34.9556C14.6012 35.5132 16.6908 35.8 18.72 35.8V31.8C17.0692 31.8 15.3188 31.5668 13.4633 31.0844L12.4567 34.9556ZM18.72 35.8C20.5636 35.8 22.2574 35.4889 23.6572 34.705L21.7028 31.215C21.1026 31.5511 20.1564 31.8 18.72 31.8V35.8ZM23.6572 34.705C25.2103 33.8353 26.18 32.4097 26.18 30.56H22.18C22.18 30.7903 22.1497 30.9647 21.7028 31.215L23.6572 34.705ZM26.18 30.56C26.18 28.8871 25.3853 27.5067 23.9363 26.6687C22.6535 25.9269 20.9872 25.68 19.2 25.68V29.68C20.7328 29.68 21.5565 29.9131 21.9338 30.1313C22.0922 30.2229 22.1292 30.287 22.136 30.2987C22.1428 30.3106 22.18 30.3755 22.18 30.56H26.18ZM19.2 25.68H13.62V29.68H19.2V25.68ZM15.62 27.68V18.98H11.62V27.68H15.62ZM15.0477 20.3806L21.2277 14.0805L18.3723 11.2794L12.1923 17.5794L15.0477 20.3806ZM19.8 10.68H4.8V14.68H19.8V10.68ZM6.8 12.68V2H2.8V12.68H6.8ZM4.8 4H36.12V-2.86102e-06H4.8V4ZM34.12 2V10.7H38.12V2H34.12ZM34.695 9.29662L26.895 17.2166L29.745 20.0234L37.545 12.1034L34.695 9.29662Z" fill="black"/>
</svg>
