<svg width="50" height="50" viewBox="0 0 50 50" fill="none" xmlns="http://www.w3.org/2000/svg">
<g clip-path="url(#clip0)">
<path d="M43.0177 40.2581C43.0119 40.2486 43.0063 40.2391 43.0005 40.2295C42.9585 40.1608 42.9154 40.0928 42.8714 40.0252C42.8472 39.9879 42.8228 39.9507 42.798 39.9138C42.7678 39.8689 42.7373 39.8243 42.7062 39.78C42.666 39.7225 42.6251 39.6656 42.5836 39.6092C42.5712 39.5924 42.5597 39.5752 42.5473 39.5585C42.5384 39.5467 42.529 39.5354 42.5201 39.5236C42.4701 39.4573 42.419 39.392 42.3672 39.3273C42.349 39.3047 42.3311 39.2819 42.3128 39.2596C42.2611 39.1965 42.2083 39.1344 42.1549 39.0729C42.1326 39.0472 42.1106 39.0213 42.0882 38.9959C42.0437 38.9457 41.9979 38.8966 41.9522 38.8476C41.9182 38.8108 41.8844 38.7739 41.8497 38.7379C41.8237 38.7109 41.7969 38.6848 41.7705 38.6582C40.7592 37.6346 39.513 36.887 38.1099 36.4739C38.0858 36.4668 38.0614 36.4609 38.0367 36.4563C38.0364 36.4563 31.4159 35.2265 31.4156 35.2264C31.4039 35.2242 31.3922 35.2236 31.3805 35.2218C31.0707 35.1714 30.7542 35.2129 30.4701 35.3373C30.2396 35.0543 30.0878 34.6655 30.0878 34.3063V33.1077C30.5062 32.8405 30.9126 32.5402 31.3048 32.2025C32.9455 30.7898 33.9788 28.7507 34.2018 26.5262C35.4064 26.4705 36.3692 25.473 36.3692 24.2549V22.5471C36.3692 21.8564 36.0598 21.2174 35.5388 20.7908V16.8648C37.9327 15.6851 38.4529 14.3096 38.4529 13.3391C38.4529 11.6738 36.902 9.58945 34.4053 7.89922C32.8058 6.8165 29.4569 5 24.9999 5C20.5429 5 17.1941 6.8165 15.5946 7.89922C13.0979 9.58936 11.547 11.6737 11.547 13.3391C11.547 14.3096 12.0672 15.6851 14.4611 16.8648V20.7908C13.9402 21.2174 13.6307 21.8564 13.6307 22.5471V24.2549C13.6307 25.473 14.5935 26.4705 15.7981 26.5262C16.021 28.7507 17.0544 30.7899 18.6951 32.2025C19.0873 32.5402 19.4937 32.8405 19.9121 33.1077V34.3063C19.9121 34.6655 19.7603 35.0542 19.5298 35.3372C19.235 35.208 18.9051 35.1666 18.5843 35.2264L11.9633 36.4563C11.9386 36.4609 11.9142 36.4668 11.8901 36.4739C10.4877 36.8868 9.24209 37.6338 8.23096 38.6566C8.20391 38.6839 8.17656 38.7107 8.1499 38.7383C8.11572 38.7737 8.08242 38.8103 8.04883 38.8464C8.00264 38.896 7.95654 38.9456 7.91143 38.9963C7.88926 39.0213 7.86758 39.0469 7.84561 39.0722C7.79189 39.134 7.73887 39.1964 7.68701 39.2598C7.66875 39.282 7.65098 39.3047 7.63291 39.3271C7.58096 39.392 7.52979 39.4573 7.47979 39.5236C7.4709 39.5354 7.46152 39.5466 7.45264 39.5585C7.44014 39.5752 7.42861 39.5924 7.41631 39.6092C7.3748 39.6656 7.33389 39.7225 7.29375 39.78C7.2626 39.8244 7.23203 39.8691 7.20186 39.914C7.17715 39.9508 7.15283 39.9878 7.12871 40.025C7.08467 40.0927 7.0415 40.1608 6.99941 40.2295C6.99365 40.239 6.98789 40.2485 6.98223 40.258C6.17275 41.5919 5.74707 43.1065 5.74707 44.6863V45.5793C5.74707 45.984 6.0751 46.3119 6.47969 46.3119C6.88428 46.3119 7.2123 45.9839 7.2123 45.5793V44.6863C7.2123 43.9723 7.31816 43.2745 7.52207 42.6079C7.95322 42.9508 8.47646 43.1334 9.02031 43.1334C9.10723 43.1334 9.19482 43.1287 9.28242 43.1192C9.92393 43.0505 10.5003 42.7359 10.9053 42.2337L11.7025 41.2449C12.1075 40.7427 12.2927 40.1127 12.2239 39.4712C12.1692 38.9614 11.9589 38.4931 11.6229 38.1188C11.8335 38.0332 12.0485 37.956 12.2689 37.8898L16.4937 37.1051L19.846 41.7962C20.1815 42.2655 20.7069 42.5243 21.2519 42.5243C21.4805 42.5243 21.7125 42.4788 21.9354 42.3842L22.1585 42.2894L23.1341 43.4235L21.727 53.5347H12.5205V47.5939C12.5205 47.1893 12.1925 46.8613 11.7879 46.8613C11.3833 46.8613 11.0553 47.1893 11.0553 47.5939V53.5347H8.12461C7.62158 53.5347 7.2125 53.1255 7.2125 52.6226V48.9884C7.2125 48.5837 6.88447 48.2558 6.47988 48.2558C6.07529 48.2558 5.74727 48.5838 5.74727 48.9884V52.6226C5.74727 53.9334 6.81377 55 8.12471 55H41.8755C43.1864 55 44.2529 53.9334 44.2529 52.6226V44.6865C44.2527 43.1066 43.8271 41.592 43.0177 40.2581ZM10.5618 40.3254L9.76455 41.3143C9.60527 41.5118 9.37861 41.6354 9.12627 41.6626C8.87432 41.6895 8.62617 41.6169 8.42861 41.4575L8.12285 41.211C8.18848 41.094 8.25723 40.9792 8.32891 40.8666C8.32969 40.8653 8.33066 40.8641 8.33145 40.8627C8.39297 40.7662 8.45771 40.6723 8.52363 40.5792C8.54365 40.5511 8.56357 40.5229 8.58398 40.495C8.64277 40.4146 8.70322 40.3355 8.76523 40.2578C8.78125 40.2377 8.79697 40.2173 8.81318 40.1974C8.8832 40.1115 8.95547 40.0277 9.02939 39.9454C9.05098 39.9213 9.07295 39.8977 9.09482 39.8739C9.16807 39.7945 9.24248 39.7163 9.31934 39.6404C9.32588 39.6339 9.33232 39.6272 9.33896 39.6206C9.62227 39.3428 9.92939 39.0883 10.2582 38.86L10.4188 38.9895C10.6163 39.1487 10.74 39.3754 10.7671 39.6277C10.7939 39.88 10.7212 40.1276 10.5618 40.3254ZM39.5812 38.9893L39.7418 38.8598C40.0707 39.0881 40.3777 39.3426 40.661 39.6204C40.6677 39.627 40.674 39.6337 40.6807 39.6402C40.7575 39.7162 40.8319 39.7944 40.9052 39.8737C40.927 39.8975 40.949 39.9211 40.9706 39.9452C41.0445 40.0275 41.1168 40.1114 41.1868 40.1972C41.203 40.2171 41.2188 40.2375 41.2348 40.2576C41.2968 40.3354 41.3572 40.4145 41.416 40.4948C41.4364 40.5227 41.4564 40.5509 41.4764 40.579C41.5423 40.6721 41.607 40.7661 41.6686 40.8625C41.6694 40.8638 41.6703 40.865 41.6711 40.8664C41.7429 40.979 41.8116 41.0938 41.8771 41.2108L41.5714 41.4573C41.3737 41.6166 41.1258 41.6893 40.8737 41.6624C40.6214 41.6354 40.3947 41.5116 40.2354 41.314L39.4381 40.3252C39.1092 39.9174 39.1735 39.3182 39.5812 38.9893ZM30.8339 36.8405C30.8349 36.8398 30.8358 36.8391 30.8368 36.8383L31.0285 36.6949C31.0626 36.6694 31.1063 36.6596 31.1479 36.6671L31.9163 36.8099L28.9618 40.9442C28.8879 41.0478 28.7545 41.0853 28.6374 41.0355L26.4593 40.1103L30.8339 36.8405ZM24.9999 39.3716L20.7307 36.1806C21.134 35.6511 21.3774 34.9771 21.3774 34.3063V33.8774C22.5075 34.3509 23.715 34.5984 24.9918 34.6127C24.9945 34.6127 24.9973 34.6127 25 34.6127C25.0027 34.6127 25.0055 34.6127 25.0082 34.6127C26.285 34.5983 27.4925 34.3508 28.6226 33.8774V34.3063C28.6226 34.9772 28.866 35.6511 29.2692 36.1806L24.9999 39.3716ZM26.4261 41.6882L25.7587 42.4641H24.2414L23.574 41.6882L25 41.0824L26.4261 41.6882ZM14.4611 15.1947C13.5195 14.6143 13.0123 13.973 13.0123 13.339C13.0123 12.0183 14.7767 10.2224 16.416 9.1126C17.8766 8.12402 20.9338 6.46533 24.9999 6.46533C29.066 6.46533 32.1232 8.12402 33.5838 9.1127C35.2231 10.2225 36.9875 12.0184 36.9875 13.3391C36.9875 13.973 36.4803 14.6144 35.5387 15.1948V13.8625C35.5387 12.8278 34.8384 11.9262 33.8355 11.6698C31.9388 11.1851 28.209 10.3718 24.5412 10.3703C24.5379 10.3703 24.5352 10.3703 24.5318 10.3703C21.3558 10.3703 18.2003 11.0696 16.1121 11.6565C15.14 11.9298 14.4611 12.8257 14.4611 13.8352V15.1947ZM17.0021 17.767C16.9918 17.7604 16.9813 17.754 16.9712 17.7475C16.9237 17.7171 16.878 17.6865 16.8336 17.6559C16.8155 17.6434 16.7977 17.6309 16.7801 17.6183C16.7438 17.5925 16.7085 17.5665 16.6743 17.5405C16.6508 17.5226 16.628 17.5046 16.6056 17.4866C16.5786 17.4651 16.5521 17.4437 16.5268 17.4221C16.4997 17.399 16.474 17.3761 16.4488 17.353C16.4299 17.3357 16.4107 17.3186 16.3928 17.3013C16.3641 17.2735 16.3372 17.2459 16.3111 17.2183C16.2986 17.2051 16.2855 17.1918 16.2736 17.1786C16.2724 17.1771 16.2713 17.1757 16.27 17.1743H28.5702C28.9748 17.1743 29.3028 16.8463 29.3028 16.4417C29.3028 16.037 28.9748 15.7091 28.5702 15.7091H15.9265V13.8353C15.9265 13.4794 16.1658 13.1636 16.5086 13.0673C18.5083 12.5052 21.5224 11.8356 24.5318 11.8356C24.5346 11.8356 24.5378 11.8356 24.5405 11.8356C28.0482 11.8371 31.6425 12.6218 33.4727 13.0896C33.8263 13.1799 34.0732 13.4978 34.0732 13.8625V15.709H32.1084C31.7038 15.709 31.3758 16.037 31.3758 16.4416C31.3758 16.8464 31.7038 17.1743 32.1085 17.1743H33.7302C33.7289 17.1758 33.7278 17.1772 33.7266 17.1786C33.7146 17.1918 33.7016 17.2051 33.6891 17.2183C33.6629 17.2459 33.6361 17.2735 33.6074 17.3013C33.5895 17.3186 33.5703 17.3357 33.5514 17.353C33.5262 17.3761 33.5005 17.399 33.4734 17.4221C33.448 17.4437 33.4216 17.4651 33.3946 17.4866C33.3722 17.5046 33.3494 17.5226 33.3259 17.5405C33.2917 17.5665 33.2564 17.5925 33.2201 17.6183C33.2025 17.6308 33.1847 17.6434 33.1666 17.6559C33.1221 17.6865 33.0765 17.7171 33.029 17.7475C33.0188 17.754 33.0085 17.7604 32.9981 17.767C32.6937 17.9586 32.3309 18.1435 31.9162 18.3149C31.9075 18.3186 31.8997 18.3236 31.8912 18.3275C30.3215 18.9746 27.9626 19.4636 25.0001 19.4636C22.0376 19.4636 19.6787 18.9746 18.109 18.3275C18.1005 18.3236 18.0927 18.3186 18.084 18.3149C17.6693 18.1435 17.3065 17.9586 17.0021 17.767ZM17.0712 19.4695V20.8969C16.6684 20.6881 16.2607 20.5758 15.9266 20.5157V18.8132C16.2408 19.0365 16.6188 19.257 17.0712 19.4695ZM32.9287 19.4694C33.3812 19.257 33.759 19.0365 34.0733 18.8132V20.5155C33.7392 20.5756 33.3315 20.688 32.9287 20.8968V19.4694ZM19.6512 31.0921C18.1507 29.8002 17.2645 27.8641 17.2197 25.7802C17.2112 25.3818 16.8857 25.0633 16.4873 25.0633H15.9044C15.4587 25.0633 15.096 24.7007 15.096 24.2549V22.5471C15.096 22.3013 15.2068 22.0735 15.3933 21.9218C15.6516 21.9446 16.1338 22.0221 16.5428 22.2818C16.5469 22.2845 16.5509 22.287 16.555 22.2896C16.6127 22.327 16.6687 22.3681 16.7226 22.4131C16.7288 22.4183 16.7351 22.4235 16.7412 22.4289C16.7674 22.4515 16.7931 22.4747 16.818 22.4993C16.8397 22.5208 16.8625 22.5408 16.8857 22.56C16.8926 22.5656 16.8995 22.5709 16.9064 22.5764C16.924 22.5901 16.9419 22.6032 16.9602 22.6156C16.9674 22.6205 16.9744 22.6255 16.9817 22.6302C17.0065 22.6462 17.0316 22.6613 17.0575 22.6749C17.0576 22.675 17.0578 22.6751 17.0579 22.6752C17.0842 22.689 17.111 22.7013 17.1383 22.7126C17.1458 22.7157 17.1534 22.7186 17.161 22.7215C17.1817 22.7296 17.2025 22.7369 17.2236 22.7436C17.2315 22.7461 17.2394 22.7486 17.2474 22.7509C17.275 22.7589 17.3028 22.7659 17.331 22.7715C17.3314 22.7716 17.3318 22.7717 17.3323 22.7718C17.3612 22.7774 17.3904 22.7814 17.4197 22.7846C17.4276 22.7854 17.4355 22.7859 17.4434 22.7865C17.4655 22.7884 17.4878 22.7895 17.5102 22.7897C17.5152 22.7898 17.5202 22.7904 17.5252 22.7904C17.5284 22.7904 17.5317 22.7899 17.535 22.7899C17.5638 22.7896 17.5927 22.7885 17.6216 22.7857C17.6224 22.7856 17.6231 22.7856 17.6238 22.7856C17.6534 22.7827 17.683 22.7781 17.7125 22.7725C17.7208 22.7709 17.7291 22.7689 17.7374 22.7672C17.7593 22.7624 17.7811 22.7569 17.8028 22.7508C17.8114 22.7483 17.82 22.746 17.8286 22.7433C17.8575 22.7341 17.8862 22.7241 17.9146 22.7123C18.2924 22.5546 18.5364 22.1886 18.5364 21.7796V20.0274C20.423 20.6216 22.7426 20.9288 24.9999 20.9288C27.2572 20.9288 29.5769 20.6216 31.4634 20.0274V21.7796C31.4634 22.1886 31.7074 22.5547 32.0852 22.7123C32.1137 22.7242 32.1426 22.7343 32.1716 22.7435C32.1798 22.746 32.188 22.7482 32.1962 22.7507C32.2185 22.757 32.2408 22.7627 32.2633 22.7675C32.2711 22.7691 32.2789 22.771 32.2868 22.7725C32.3461 22.7838 32.4059 22.7896 32.4654 22.79C32.4685 22.79 32.4716 22.7905 32.4746 22.7905C32.4793 22.7905 32.484 22.7899 32.4888 22.7898C32.5117 22.7896 32.5346 22.7884 32.5574 22.7865C32.5648 22.7859 32.5723 22.7854 32.5797 22.7847C32.6383 22.7785 32.6962 22.7672 32.7528 22.7508C32.7605 22.7485 32.7682 22.7461 32.7759 22.7437C32.7972 22.737 32.8182 22.7295 32.8391 22.7214C32.8466 22.7185 32.8542 22.7156 32.8616 22.7125C32.8889 22.7012 32.9158 22.6889 32.9421 22.6751C32.9423 22.675 32.9425 22.6749 32.9427 22.6748C32.9685 22.6612 32.9936 22.6461 33.0183 22.6302C33.0256 22.6255 33.0327 22.6204 33.04 22.6155C33.0582 22.6031 33.0761 22.59 33.0936 22.5764C33.1006 22.5709 33.1076 22.5655 33.1145 22.5599C33.1377 22.5406 33.1604 22.5207 33.1821 22.4992C33.2067 22.4748 33.2323 22.4519 33.2582 22.4295C33.2649 22.4236 33.2718 22.4179 33.2786 22.4121C33.3026 22.392 33.327 22.3726 33.3519 22.3541C33.3542 22.3523 33.3563 22.3506 33.3587 22.3488C33.3856 22.329 33.4131 22.3104 33.4408 22.2924C33.4482 22.2875 33.4558 22.2828 33.4633 22.278C33.488 22.2625 33.513 22.2475 33.5381 22.2332C33.5417 22.2312 33.5453 22.2289 33.549 22.2269C33.5776 22.2109 33.6064 22.1959 33.6354 22.1815C33.6427 22.1779 33.6499 22.1745 33.6571 22.171C33.6831 22.1585 33.7092 22.1464 33.7353 22.1351C33.7389 22.1335 33.7424 22.1318 33.746 22.1303C33.7761 22.1174 33.8062 22.1054 33.8361 22.0939C33.8415 22.0919 33.8468 22.0899 33.8521 22.088C33.8807 22.0773 33.9091 22.0673 33.9374 22.0579C33.939 22.0574 33.9405 22.0568 33.9421 22.0563C33.9738 22.0459 34.0054 22.0362 34.0365 22.0272C34.0377 22.027 34.0389 22.0266 34.04 22.0263C34.2632 21.9622 34.4677 21.934 34.6067 21.9216C34.7933 22.0734 34.9041 22.3011 34.9041 22.547V24.2548C34.9041 24.7006 34.5414 25.0632 34.0957 25.0632H33.5128C33.1143 25.0632 32.7889 25.3817 32.7804 25.7801C32.7356 27.864 31.8494 29.8001 30.3489 31.092C28.793 32.4317 26.9936 33.1232 25.0002 33.1473C23.0066 33.1233 21.2073 32.4319 19.6512 31.0921ZM21.3624 41.0355C21.2451 41.0852 21.1118 41.0476 21.038 40.9443L18.0835 36.81L18.852 36.6672C18.8938 36.6596 18.9372 36.6695 18.9713 36.695L19.163 36.8383C19.1641 36.8391 19.165 36.8398 19.1661 36.8406L23.5404 40.1103L21.3624 41.0355ZM23.2063 53.5347L24.5429 43.9294H25.4569L26.7936 53.5347H23.2063ZM41.8754 53.5347H38.9449V47.5939C38.9449 47.1893 38.6169 46.8613 38.2123 46.8613C37.8077 46.8613 37.4797 47.1893 37.4797 47.5939V53.5347H28.2731L26.866 43.4235L27.8416 42.2894L28.0647 42.3842C28.2876 42.4788 28.5195 42.5243 28.7481 42.5243C29.293 42.5243 29.8187 42.2656 30.1541 41.7961L33.5063 37.1051L37.7311 37.8898C37.9515 37.956 38.1666 38.0332 38.3771 38.1188C37.6023 38.9845 37.5448 40.3117 38.2972 41.2448L39.0945 42.2337C39.4995 42.7359 40.0758 43.0504 40.7173 43.1191C40.805 43.1286 40.8925 43.1333 40.9795 43.1333C41.5231 43.1333 42.0465 42.9506 42.4776 42.6078C42.6815 43.2744 42.7874 43.9722 42.7874 44.6862V52.6226H42.7875C42.7876 53.1255 42.3783 53.5347 41.8754 53.5347Z" fill="#2D313A"/>
<path d="M35.0007 41.8613H31.1424C30.4825 41.8613 29.9456 42.3982 29.9456 43.0582V45.1137C29.9456 45.7737 30.4825 46.3106 31.1424 46.3106H35.0007C35.6607 46.3106 36.1975 45.7737 36.1975 45.1137V43.0582C36.1975 42.3981 35.6606 41.8613 35.0007 41.8613ZM31.4107 44.8452V43.3265H34.7321V44.8452H31.4107Z" fill="#2D313A"/>
<path d="M18.8576 41.8612H14.9993C14.3393 41.8612 13.8025 42.3982 13.8025 43.0581V45.1137C13.8025 45.7736 14.3394 46.3106 14.9993 46.3106H18.8576C19.5175 46.3106 20.0544 45.7736 20.0544 45.1137V43.0581C20.0545 42.3982 19.5175 41.8612 18.8576 41.8612ZM18.5892 44.8452H15.2678V43.3266H18.5892V44.8452Z" fill="#2D313A"/>
</g>
<defs>
<clipPath id="clip0">
<rect width="50" height="50" fill="white"/>
</clipPath>
</defs>
</svg>
