<svg width="40" height="45" viewBox="0 0 40 45" fill="none" xmlns="http://www.w3.org/2000/svg">
<path d="M38.0177 35.2581C38.0119 35.2486 38.0063 35.2391 38.0005 35.2295C37.9585 35.1608 37.9154 35.0928 37.8714 35.0252C37.8472 34.9879 37.8228 34.9507 37.798 34.9138C37.7678 34.8689 37.7373 34.8243 37.7062 34.78C37.666 34.7225 37.6251 34.6656 37.5836 34.6092C37.5712 34.5924 37.5597 34.5752 37.5473 34.5585C37.5384 34.5467 37.529 34.5354 37.5201 34.5236C37.4701 34.4573 37.419 34.392 37.3672 34.3273C37.349 34.3047 37.3311 34.2819 37.3128 34.2596C37.2611 34.1965 37.2083 34.1344 37.1549 34.0729C37.1326 34.0472 37.1106 34.0213 37.0882 33.9959C37.0437 33.9457 36.9979 33.8966 36.9522 33.8476C36.9182 33.8108 36.8844 33.7739 36.8497 33.7379C36.8237 33.7109 36.7969 33.6848 36.7705 33.6582C35.7592 32.6346 34.513 31.887 33.1099 31.4739C33.0858 31.4668 33.0614 31.4609 33.0367 31.4563C33.0364 31.4563 26.4159 30.2265 26.4156 30.2264C26.4039 30.2242 26.3922 30.2236 26.3805 30.2218C26.0707 30.1714 25.7542 30.2129 25.4701 30.3373C25.2396 30.0543 25.0878 29.6655 25.0878 29.3063V28.1077C25.5062 27.8405 25.9126 27.5402 26.3048 27.2025C27.9455 25.7898 28.9788 23.7507 29.2018 21.5262C30.4064 21.4705 31.3692 20.473 31.3692 19.2549V17.5471C31.3692 16.8564 31.0598 16.2174 30.5388 15.7908V11.8648C32.9327 10.6851 33.4529 9.30957 33.4529 8.33906C33.4529 6.67383 31.902 4.58945 29.4053 2.89922C27.8058 1.8165 24.4569 0 19.9999 0C15.5429 0 12.1941 1.8165 10.5946 2.89922C8.09795 4.58936 6.54697 6.67373 6.54697 8.33906C6.54697 9.30957 7.06719 10.6851 9.46113 11.8648V15.7908C8.94023 16.2174 8.63066 16.8564 8.63066 17.5471V19.2549C8.63066 20.473 9.59346 21.4705 10.7981 21.5262C11.021 23.7507 12.0544 25.7899 13.6951 27.2025C14.0873 27.5402 14.4937 27.8405 14.9121 28.1077V29.3063C14.9121 29.6655 14.7603 30.0542 14.5298 30.3372C14.235 30.208 13.9051 30.1666 13.5843 30.2264L6.96328 31.4563C6.93857 31.4609 6.91416 31.4668 6.89014 31.4739C5.4877 31.8868 4.24209 32.6338 3.23096 33.6566C3.20391 33.6839 3.17656 33.7107 3.1499 33.7383C3.11572 33.7737 3.08242 33.8103 3.04883 33.8464C3.00264 33.896 2.95654 33.9456 2.91143 33.9963C2.88926 34.0213 2.86758 34.0469 2.84561 34.0722C2.79189 34.134 2.73887 34.1964 2.68701 34.2598C2.66875 34.282 2.65098 34.3047 2.63291 34.3271C2.58096 34.392 2.52979 34.4573 2.47979 34.5236C2.4709 34.5354 2.46152 34.5466 2.45264 34.5585C2.44014 34.5752 2.42861 34.5924 2.41631 34.6092C2.3748 34.6656 2.33389 34.7225 2.29375 34.78C2.2626 34.8244 2.23203 34.8691 2.20186 34.914C2.17715 34.9508 2.15283 34.9878 2.12871 35.025C2.08467 35.0927 2.0415 35.1608 1.99941 35.2295C1.99365 35.239 1.98789 35.2485 1.98223 35.258C1.17275 36.5919 0.74707 38.1065 0.74707 39.6863V40.5793C0.74707 40.984 1.0751 41.3119 1.47969 41.3119C1.88428 41.3119 2.2123 40.9839 2.2123 40.5793V39.6863C2.2123 38.9723 2.31816 38.2745 2.52207 37.6079C2.95322 37.9508 3.47646 38.1334 4.02031 38.1334C4.10723 38.1334 4.19482 38.1287 4.28242 38.1192C4.92393 38.0505 5.50029 37.7359 5.90527 37.2337L6.70254 36.2449C7.10752 35.7427 7.29268 35.1127 7.22393 34.4712C7.16924 33.9614 6.95889 33.4931 6.62295 33.1188C6.8335 33.0332 7.04854 32.956 7.26895 32.8898L11.4937 32.1051L14.846 36.7962C15.1815 37.2655 15.7069 37.5243 16.2519 37.5243C16.4805 37.5243 16.7125 37.4788 16.9354 37.3842L17.1585 37.2894L18.1341 38.4235L16.727 48.5347H7.52051V42.5939C7.52051 42.1893 7.19248 41.8613 6.78789 41.8613C6.3833 41.8613 6.05527 42.1893 6.05527 42.5939V48.5347H3.12461C2.62158 48.5347 2.2125 48.1255 2.2125 47.6226V43.9884C2.2125 43.5837 1.88447 43.2558 1.47988 43.2558C1.07529 43.2558 0.747266 43.5838 0.747266 43.9884V47.6226C0.747266 48.9334 1.81377 50 3.12471 50H36.8755C38.1864 50 39.2529 48.9334 39.2529 47.6226V39.6865C39.2527 38.1066 38.8271 36.592 38.0177 35.2581ZM5.56182 35.3254L4.76455 36.3143C4.60527 36.5118 4.37861 36.6354 4.12627 36.6626C3.87432 36.6895 3.62617 36.6169 3.42861 36.4575L3.12285 36.211C3.18848 36.094 3.25723 35.9792 3.32891 35.8666C3.32969 35.8653 3.33066 35.8641 3.33145 35.8627C3.39297 35.7662 3.45771 35.6723 3.52363 35.5792C3.54365 35.5511 3.56357 35.5229 3.58398 35.495C3.64277 35.4146 3.70322 35.3355 3.76523 35.2578C3.78125 35.2377 3.79697 35.2173 3.81318 35.1974C3.8832 35.1115 3.95547 35.0277 4.02939 34.9454C4.05098 34.9213 4.07295 34.8977 4.09482 34.8739C4.16807 34.7945 4.24248 34.7163 4.31934 34.6404C4.32588 34.6339 4.33232 34.6272 4.33896 34.6206C4.62227 34.3428 4.92939 34.0883 5.2582 33.86L5.41875 33.9895C5.61631 34.1487 5.74004 34.3754 5.76709 34.6277C5.79395 34.88 5.72119 35.1276 5.56182 35.3254ZM34.5812 33.9893L34.7418 33.8598C35.0707 34.0881 35.3777 34.3426 35.661 34.6204C35.6677 34.627 35.674 34.6337 35.6807 34.6402C35.7575 34.7162 35.8319 34.7944 35.9052 34.8737C35.927 34.8975 35.949 34.9211 35.9706 34.9452C36.0445 35.0275 36.1168 35.1114 36.1868 35.1972C36.203 35.2171 36.2188 35.2375 36.2348 35.2576C36.2968 35.3354 36.3572 35.4145 36.416 35.4948C36.4364 35.5227 36.4564 35.5509 36.4764 35.579C36.5423 35.6721 36.607 35.7661 36.6686 35.8625C36.6694 35.8638 36.6703 35.865 36.6711 35.8664C36.7429 35.979 36.8116 36.0938 36.8771 36.2108L36.5714 36.4573C36.3737 36.6166 36.1258 36.6893 35.8737 36.6624C35.6214 36.6354 35.3947 36.5116 35.2354 36.314L34.4381 35.3252C34.1092 34.9174 34.1735 34.3182 34.5812 33.9893ZM25.8339 31.8405C25.8349 31.8398 25.8358 31.8391 25.8368 31.8383L26.0285 31.6949C26.0626 31.6694 26.1063 31.6596 26.1479 31.6671L26.9163 31.8099L23.9618 35.9442C23.8879 36.0478 23.7545 36.0853 23.6374 36.0355L21.4593 35.1103L25.8339 31.8405ZM19.9999 34.3716L15.7307 31.1806C16.134 30.6511 16.3774 29.9771 16.3774 29.3063V28.8774C17.5075 29.3509 18.715 29.5984 19.9918 29.6127C19.9945 29.6127 19.9973 29.6127 20 29.6127C20.0027 29.6127 20.0055 29.6127 20.0082 29.6127C21.285 29.5983 22.4925 29.3508 23.6226 28.8774V29.3063C23.6226 29.9772 23.866 30.6511 24.2692 31.1806L19.9999 34.3716ZM21.4261 36.6882L20.7587 37.4641H19.2414L18.574 36.6882L20 36.0824L21.4261 36.6882ZM9.46113 10.1947C8.51953 9.61426 8.01231 8.97305 8.01231 8.33896C8.01231 7.01826 9.77666 5.22236 11.416 4.1126C12.8766 3.12402 15.9338 1.46533 19.9999 1.46533C24.066 1.46533 27.1232 3.12402 28.5838 4.1127C30.2231 5.22246 31.9875 7.01836 31.9875 8.33906C31.9875 8.97305 31.4803 9.61436 30.5387 10.1948V8.8625C30.5387 7.82783 29.8384 6.92617 28.8355 6.66982C26.9388 6.18506 23.209 5.37178 19.5412 5.37031C19.5379 5.37031 19.5352 5.37031 19.5318 5.37031C16.3558 5.37031 13.2003 6.06963 11.1121 6.65654C10.14 6.92979 9.46113 7.82568 9.46113 8.83516V10.1947ZM12.0021 12.767C11.9918 12.7604 11.9813 12.754 11.9712 12.7475C11.9237 12.7171 11.878 12.6865 11.8336 12.6559C11.8155 12.6434 11.7977 12.6309 11.7801 12.6183C11.7438 12.5925 11.7085 12.5665 11.6743 12.5405C11.6508 12.5226 11.628 12.5046 11.6056 12.4866C11.5786 12.4651 11.5521 12.4437 11.5268 12.4221C11.4997 12.399 11.474 12.3761 11.4488 12.353C11.4299 12.3357 11.4107 12.3186 11.3928 12.3013C11.3641 12.2735 11.3372 12.2459 11.3111 12.2183C11.2986 12.2051 11.2855 12.1918 11.2736 12.1786C11.2724 12.1771 11.2713 12.1757 11.27 12.1743H23.5702C23.9748 12.1743 24.3028 11.8463 24.3028 11.4417C24.3028 11.037 23.9748 10.7091 23.5702 10.7091H10.9265V8.83525C10.9265 8.47939 11.1658 8.16357 11.5086 8.06729C13.5083 7.50518 16.5224 6.83564 19.5318 6.83564C19.5346 6.83564 19.5378 6.83564 19.5405 6.83564C23.0482 6.83711 26.6425 7.62178 28.4727 8.08955C28.8263 8.17988 29.0732 8.49775 29.0732 8.8625V10.709H27.1084C26.7038 10.709 26.3758 11.037 26.3758 11.4416C26.3758 11.8464 26.7038 12.1743 27.1085 12.1743H28.7302C28.7289 12.1758 28.7278 12.1772 28.7266 12.1786C28.7146 12.1918 28.7016 12.2051 28.6891 12.2183C28.6629 12.2459 28.6361 12.2735 28.6074 12.3013C28.5895 12.3186 28.5703 12.3357 28.5514 12.353C28.5262 12.3761 28.5005 12.399 28.4734 12.4221C28.448 12.4437 28.4216 12.4651 28.3946 12.4866C28.3722 12.5046 28.3494 12.5226 28.3259 12.5405C28.2917 12.5665 28.2564 12.5925 28.2201 12.6183C28.2025 12.6308 28.1847 12.6434 28.1666 12.6559C28.1221 12.6865 28.0765 12.7171 28.029 12.7475C28.0188 12.754 28.0085 12.7604 27.9981 12.767C27.6937 12.9586 27.3309 13.1435 26.9162 13.3149C26.9075 13.3186 26.8997 13.3236 26.8912 13.3275C25.3215 13.9746 22.9626 14.4636 20.0001 14.4636C17.0376 14.4636 14.6787 13.9746 13.109 13.3275C13.1005 13.3236 13.0927 13.3186 13.084 13.3149C12.6693 13.1435 12.3065 12.9586 12.0021 12.767ZM12.0712 14.4695V15.8969C11.6684 15.6881 11.2607 15.5758 10.9266 15.5157V13.8132C11.2408 14.0365 11.6188 14.257 12.0712 14.4695ZM27.9287 14.4694C28.3812 14.257 28.759 14.0365 29.0733 13.8132V15.5155C28.7392 15.5756 28.3315 15.688 27.9287 15.8968V14.4694ZM14.6512 26.0921C13.1507 24.8002 12.2645 22.8641 12.2197 20.7802C12.2112 20.3818 11.8857 20.0633 11.4873 20.0633H10.9044C10.4587 20.0633 10.096 19.7007 10.096 19.2549V17.5471C10.096 17.3013 10.2068 17.0735 10.3933 16.9218C10.6516 16.9446 11.1338 17.0221 11.5428 17.2818C11.5469 17.2845 11.5509 17.287 11.555 17.2896C11.6127 17.327 11.6687 17.3681 11.7226 17.4131C11.7288 17.4183 11.7351 17.4235 11.7412 17.4289C11.7674 17.4515 11.7931 17.4747 11.818 17.4993C11.8397 17.5208 11.8625 17.5408 11.8857 17.56C11.8926 17.5656 11.8995 17.5709 11.9064 17.5764C11.924 17.5901 11.9419 17.6032 11.9602 17.6156C11.9674 17.6205 11.9744 17.6255 11.9817 17.6302C12.0065 17.6462 12.0316 17.6613 12.0575 17.6749C12.0576 17.675 12.0578 17.6751 12.0579 17.6752C12.0842 17.689 12.111 17.7013 12.1383 17.7126C12.1458 17.7157 12.1534 17.7186 12.161 17.7215C12.1817 17.7296 12.2025 17.7369 12.2236 17.7436C12.2315 17.7461 12.2394 17.7486 12.2474 17.7509C12.275 17.7589 12.3028 17.7659 12.331 17.7715C12.3314 17.7716 12.3318 17.7717 12.3323 17.7718C12.3612 17.7774 12.3904 17.7814 12.4197 17.7846C12.4276 17.7854 12.4355 17.7859 12.4434 17.7865C12.4655 17.7884 12.4878 17.7895 12.5102 17.7897C12.5152 17.7898 12.5202 17.7904 12.5252 17.7904C12.5284 17.7904 12.5317 17.7899 12.535 17.7899C12.5638 17.7896 12.5927 17.7885 12.6216 17.7857C12.6224 17.7856 12.6231 17.7856 12.6238 17.7856C12.6534 17.7827 12.683 17.7781 12.7125 17.7725C12.7208 17.7709 12.7291 17.7689 12.7374 17.7672C12.7593 17.7624 12.7811 17.7569 12.8028 17.7508C12.8114 17.7483 12.82 17.746 12.8286 17.7433C12.8575 17.7341 12.8862 17.7241 12.9146 17.7123C13.2924 17.5546 13.5364 17.1886 13.5364 16.7796V15.0274C15.423 15.6216 17.7426 15.9288 19.9999 15.9288C22.2572 15.9288 24.5769 15.6216 26.4634 15.0274V16.7796C26.4634 17.1886 26.7074 17.5547 27.0852 17.7123C27.1137 17.7242 27.1426 17.7343 27.1716 17.7435C27.1798 17.746 27.188 17.7482 27.1962 17.7507C27.2185 17.757 27.2408 17.7627 27.2633 17.7675C27.2711 17.7691 27.2789 17.771 27.2868 17.7725C27.3461 17.7838 27.4059 17.7896 27.4654 17.79C27.4685 17.79 27.4716 17.7905 27.4746 17.7905C27.4793 17.7905 27.484 17.7899 27.4888 17.7898C27.5117 17.7896 27.5346 17.7884 27.5574 17.7865C27.5648 17.7859 27.5723 17.7854 27.5797 17.7847C27.6383 17.7785 27.6962 17.7672 27.7528 17.7508C27.7605 17.7485 27.7682 17.7461 27.7759 17.7437C27.7972 17.737 27.8182 17.7295 27.8391 17.7214C27.8466 17.7185 27.8542 17.7156 27.8616 17.7125C27.8889 17.7012 27.9158 17.6889 27.9421 17.6751C27.9423 17.675 27.9425 17.6749 27.9427 17.6748C27.9685 17.6612 27.9936 17.6461 28.0183 17.6302C28.0256 17.6255 28.0327 17.6204 28.04 17.6155C28.0582 17.6031 28.0761 17.59 28.0936 17.5764C28.1006 17.5709 28.1076 17.5655 28.1145 17.5599C28.1377 17.5406 28.1604 17.5207 28.1821 17.4992C28.2067 17.4748 28.2323 17.4519 28.2582 17.4295C28.2649 17.4236 28.2718 17.4179 28.2786 17.4121C28.3026 17.392 28.327 17.3726 28.3519 17.3541C28.3542 17.3523 28.3563 17.3506 28.3587 17.3488C28.3856 17.329 28.4131 17.3104 28.4408 17.2924C28.4482 17.2875 28.4558 17.2828 28.4633 17.278C28.488 17.2625 28.513 17.2475 28.5381 17.2332C28.5417 17.2312 28.5453 17.2289 28.549 17.2269C28.5776 17.2109 28.6064 17.1959 28.6354 17.1815C28.6427 17.1779 28.6499 17.1745 28.6571 17.171C28.6831 17.1585 28.7092 17.1464 28.7353 17.1351C28.7389 17.1335 28.7424 17.1318 28.746 17.1303C28.7761 17.1174 28.8062 17.1054 28.8361 17.0939C28.8415 17.0919 28.8468 17.0899 28.8521 17.088C28.8807 17.0773 28.9091 17.0673 28.9374 17.0579C28.939 17.0574 28.9405 17.0568 28.9421 17.0563C28.9738 17.0459 29.0054 17.0362 29.0365 17.0272C29.0377 17.027 29.0389 17.0266 29.04 17.0263C29.2632 16.9622 29.4677 16.934 29.6067 16.9216C29.7933 17.0734 29.9041 17.3011 29.9041 17.547V19.2548C29.9041 19.7006 29.5414 20.0632 29.0957 20.0632H28.5128C28.1143 20.0632 27.7889 20.3817 27.7804 20.7801C27.7356 22.864 26.8494 24.8001 25.3489 26.092C23.793 27.4317 21.9936 28.1232 20.0002 28.1473C18.0066 28.1233 16.2073 27.4319 14.6512 26.0921ZM16.3624 36.0355C16.2451 36.0852 16.1118 36.0476 16.038 35.9443L13.0835 31.81L13.852 31.6672C13.8938 31.6596 13.9372 31.6695 13.9713 31.695L14.163 31.8383C14.1641 31.8391 14.165 31.8398 14.1661 31.8406L18.5404 35.1103L16.3624 36.0355ZM18.2063 48.5347L19.5429 38.9294H20.4569L21.7936 48.5347H18.2063ZM36.8754 48.5347H33.9449V42.5939C33.9449 42.1893 33.6169 41.8613 33.2123 41.8613C32.8077 41.8613 32.4797 42.1893 32.4797 42.5939V48.5347H23.2731L21.866 38.4235L22.8416 37.2894L23.0647 37.3842C23.2876 37.4788 23.5195 37.5243 23.7481 37.5243C24.293 37.5243 24.8187 37.2656 25.1541 36.7961L28.5063 32.1051L32.7311 32.8898C32.9515 32.956 33.1666 33.0332 33.3771 33.1188C32.6023 33.9845 32.5448 35.3117 33.2972 36.2448L34.0945 37.2337C34.4995 37.7359 35.0758 38.0504 35.7173 38.1191C35.805 38.1286 35.8925 38.1333 35.9795 38.1333C36.5231 38.1333 37.0465 37.9506 37.4776 37.6078C37.6815 38.2744 37.7874 38.9722 37.7874 39.6862V47.6226H37.7875C37.7876 48.1255 37.3783 48.5347 36.8754 48.5347Z" fill="#2D313A"/>
</svg>
