<svg width="42" height="47" viewBox="0 0 42 47" fill="none" xmlns="http://www.w3.org/2000/svg">
<path d="M39.34 34.02H41.34V32.02H39.34V34.02ZM39.34 45V47H41.34V45H39.34ZM5.68 45H3.68V47H5.68V45ZM5.68 36.3L4.32199 34.8317L3.68 35.4255V36.3H5.68ZM20.86 22.26L22.218 23.7283L22.2237 23.723L22.2294 23.7177L20.86 22.26ZM23.5 19.08L25.2889 19.9744L23.5 19.08ZM23.08 14.1L21.7568 15.5997L21.8032 15.6407L21.8521 15.6787L23.08 14.1ZM16.48 14.22L17.518 15.9296L17.518 15.9296L16.48 14.22ZM13.9 17.1L13.0056 18.8889L14.8178 19.795L15.7003 17.9711L13.9 17.1ZM3.22 11.76L1.45529 10.8188L0.489024 12.6306L2.32557 13.5489L3.22 11.76ZM10.24 4.68L11.2151 6.42617L11.2237 6.42137L11.2323 6.41648L10.24 4.68ZM30.22 3.66L29.4426 5.50273H29.4426L30.22 3.66ZM36.22 8.28L34.5969 9.4486L34.5969 9.44861L36.22 8.28ZM36.88 21.72L35.0842 20.8397L35.0805 20.8471L35.077 20.8545L36.88 21.72ZM31.18 28.56L29.8409 27.0744L29.8339 27.0808L31.18 28.56ZM25.18 34.02L23.8339 32.5408L20.0106 36.02H25.18V34.02ZM37.34 34.02V45H41.34V34.02H37.34ZM39.34 43H5.68V47H39.34V43ZM7.68 45V36.3H3.68V45H7.68ZM7.03801 37.7683L22.218 23.7283L19.502 20.7917L4.32199 34.8317L7.03801 37.7683ZM22.2294 23.7177C23.6019 22.4284 24.6889 21.1743 25.2889 19.9744L21.7111 18.1856C21.4311 18.7457 20.7581 19.6116 19.4906 20.8023L22.2294 23.7177ZM25.2889 19.9744C25.844 18.8641 26.16 17.6995 26.16 16.5H22.16C22.16 16.9805 22.036 17.5359 21.7111 18.1856L25.2889 19.9744ZM26.16 16.5C26.16 14.941 25.5876 13.5166 24.3079 12.5213L21.8521 15.6787C22.0124 15.8033 22.16 15.979 22.16 16.5H26.16ZM24.4032 12.6003C23.2221 11.5581 21.6693 11.2 20.08 11.2V15.2C21.1307 15.2 21.5779 15.4418 21.7568 15.5997L24.4032 12.6003ZM20.08 11.2C18.425 11.2 16.8671 11.6452 15.442 12.5104L17.518 15.9296C18.3329 15.4348 19.175 15.2 20.08 15.2V11.2ZM15.442 12.5104C13.9751 13.4011 12.8586 14.6605 12.0997 16.2289L15.7003 17.9711C16.1414 17.0595 16.745 16.3989 17.518 15.9296L15.442 12.5104ZM14.7944 15.3111L4.11443 9.97114L2.32557 13.5489L13.0056 18.8889L14.7944 15.3111ZM4.98471 12.7012C6.39715 10.0528 8.45682 7.96653 11.2151 6.42617L9.26486 2.93383C5.86318 4.83347 3.24285 7.46716 1.45529 10.8188L4.98471 12.7012ZM11.2323 6.41648C13.9481 4.86459 17.3089 4.04 21.4 4.04V0.039999C16.7711 0.039999 12.6919 0.975403 9.24772 2.94351L11.2323 6.41648ZM21.4 4.04C24.504 4.04 27.1717 4.54467 29.4426 5.50273L30.9974 1.81727C28.1483 0.615323 24.936 0.039999 21.4 0.039999V4.04ZM29.4426 5.50273C31.7084 6.45859 33.398 7.78338 34.5969 9.4486L37.8431 7.11139C36.162 4.77661 33.8516 3.0214 30.9974 1.81727L29.4426 5.50273ZM34.5969 9.44861C35.7779 11.0889 36.38 12.9749 36.38 15.18H40.38C40.38 12.1851 39.5421 9.47113 37.8431 7.11139L34.5969 9.44861ZM36.38 15.18C36.38 17.2015 35.9469 19.0796 35.0842 20.8397L38.6758 22.6003C39.8131 20.2804 40.38 17.7985 40.38 15.18H36.38ZM35.077 20.8545C34.2831 22.5083 32.6071 24.581 29.8409 27.0745L32.5191 30.0455C35.4329 27.419 37.5569 24.9317 38.683 22.5855L35.077 20.8545ZM29.8339 27.0808L23.8339 32.5408L26.5261 35.4992L32.5261 30.0392L29.8339 27.0808ZM25.18 36.02H39.34V32.02H25.18V36.02Z" fill="black"/>
</svg>
