<svg width="60" height="46" viewBox="0 0 60 46" fill="none" xmlns="http://www.w3.org/2000/svg">
<path d="M59.1194 39.4971H45.0294C44.9969 39.4971 44.9706 39.4708 44.9706 39.4384V23.4697C44.9706 22.4661 44.1542 21.6497 43.1507 21.6497H41.2133V2.80434C41.2133 1.80077 40.3969 0.984375 39.3933 0.984375H33.7573C33.271 0.984375 32.8767 1.37866 32.8767 1.865C32.8767 2.35134 33.271 2.74563 33.7573 2.74563H35.6947V27.3351C35.3649 27.3035 35.0322 27.2857 34.6967 27.2857C34.3599 27.2857 34.0272 27.3025 33.6986 27.3344V22.5978C33.6986 21.7849 33.4838 20.983 33.0773 20.2789L26.1614 8.29956C25.3913 6.70762 23.7566 5.68105 21.9863 5.68105H8.3953C6.87382 5.68105 5.63601 6.91886 5.63601 8.44034V24.4677H4.63796C2.59855 24.4677 0.939335 26.127 0.939335 28.1664V34.7417C0.939335 34.8486 0.959296 34.9506 0.994286 35.0453C0.365284 36.0475 0 37.2311 0 38.4991C0 42.0924 2.92333 45.0157 6.51663 45.0157C9.47824 45.0157 11.983 43.0291 12.7727 40.319H25.4844C25.4864 40.319 25.4883 40.3192 25.4903 40.3192C25.492 40.3192 25.4937 40.319 25.4954 40.319H27.7721C28.8715 43.0679 31.56 45.0157 34.6966 45.0157C38.8078 45.0157 42.1525 41.6709 42.1525 37.5597C42.1525 36.2409 41.8068 35.0018 41.2036 33.9258C41.2092 33.8854 41.2132 33.8444 41.2132 33.8024V30.0912C41.2147 30.0616 41.2146 30.0319 41.2132 30.0024V23.411H43.1506C43.183 23.411 43.2093 23.4373 43.2093 23.4697V39.4384C43.2093 40.4419 44.0257 41.2583 45.0292 41.2583H59.1193C59.6056 41.2583 59.9999 40.8641 59.9999 40.3777C59.9999 39.8914 59.6057 39.4971 59.1194 39.4971ZM39.3933 2.74563C39.4258 2.74563 39.4521 2.77193 39.4521 2.80434V21.6497H37.456V2.74563H39.3933ZM24.586 9.08754C24.5962 9.10903 24.6073 9.13017 24.6193 9.15083L31.2928 20.7104H17.7299V10.319C17.7299 9.83267 17.3357 9.43839 16.8493 9.43839C16.363 9.43839 15.9687 9.83267 15.9687 10.319V20.7104H14.0313C12.9631 20.7104 12.0939 19.8413 12.0939 18.773V7.4423H21.9863C23.0921 7.4423 24.1126 8.08809 24.586 9.08754ZM7.39726 8.44034C7.39726 7.89001 7.84497 7.4423 8.3953 7.4423H10.3327V18.773C10.3327 20.8124 11.9919 22.4717 14.0313 22.4717H31.8787C31.8971 22.4717 31.9151 22.47 31.9331 22.469C31.935 22.5118 31.9374 22.5548 31.9374 22.5978V27.6625C30.7232 28.0015 29.5991 28.5584 28.6099 29.2883L25.6981 26.3764C24.4672 25.1456 22.8308 24.4677 21.0902 24.4677H7.39726V8.44034ZM6.51663 43.2544C3.89448 43.2544 1.76125 41.1212 1.76125 38.4991C1.76125 35.8769 3.89448 33.7437 6.51663 33.7437C9.13879 33.7437 11.272 35.8769 11.272 38.4991C11.272 41.1212 9.13879 43.2544 6.51663 43.2544ZM6.51663 31.9824C5.09225 31.9824 3.77413 32.443 2.70059 33.2214V28.1664C2.70059 27.0981 3.56971 26.229 4.63796 26.229H21.0902C22.3604 26.229 23.5545 26.7237 24.4528 27.6218L27.2841 30.4532C25.5128 32.2999 24.4227 34.8049 24.4227 37.5597C24.4227 37.8932 24.4396 38.2265 24.4717 38.5578H13.0319C13.032 38.5382 13.0334 38.5188 13.0334 38.4991C13.0333 34.9057 10.1099 31.9824 6.51663 31.9824ZM26.2443 38.5578C26.2058 38.2272 26.184 37.8938 26.184 37.5597C26.184 32.8657 30.0027 29.047 34.6967 29.047C36.4112 29.047 38.0458 29.5485 39.4521 30.4992V31.8218C38.1605 30.7495 36.5027 30.1037 34.6967 30.1037C30.5854 30.1037 27.2407 33.4485 27.2407 37.5597C27.2407 37.8983 27.2655 38.231 27.3094 38.5578H26.2443ZM34.6967 43.2544C31.5566 43.2544 29.002 40.6998 29.002 37.5597C29.002 34.4196 31.5566 31.865 34.6967 31.865C37.8368 31.865 40.3914 34.4196 40.3914 37.5597C40.3914 40.6998 37.8368 43.2544 34.6967 43.2544ZM39.4521 28.4488C38.8146 28.1145 38.1463 27.8516 37.456 27.66V23.411H39.4521V28.4488Z" fill="#284C7D"/>
</svg>
