<svg width="25" height="25" viewBox="0 0 25 25" fill="none" xmlns="http://www.w3.org/2000/svg">
<path d="M20.3125 25H4.6875C2.09844 25 0 22.9016 0 20.3125V4.6875C0 2.09844 2.09844 0 4.6875 0H20.3125C22.9016 0 25 2.09844 25 4.6875V20.3125C25 22.9016 22.9016 25 20.3125 25Z" fill="white"/>
<path d="M18.4733 9.33789L18.4889 9.43946C18.3381 8.90352 17.9296 8.49024 17.4116 8.33946L17.4006 8.33711C16.4264 8.07227 12.5053 8.07227 12.5053 8.07227C12.5053 8.07227 8.59361 8.06758 7.61001 8.33711C7.08111 8.49024 6.67329 8.90352 6.52485 9.42852L6.52251 9.43946C6.15845 11.341 6.1561 13.6254 6.53892 15.6621L6.52251 15.559C6.67329 16.0949 7.08189 16.5082 7.59986 16.659L7.61079 16.6613C8.58423 16.9262 12.5061 16.9262 12.5061 16.9262C12.5061 16.9262 16.4171 16.9262 17.4014 16.6613C17.9303 16.5082 18.3381 16.0949 18.4866 15.5699L18.4889 15.559C18.6553 14.6746 18.7499 13.6574 18.7499 12.6176C18.7499 12.5793 18.7499 12.541 18.7491 12.5027C18.7499 12.4668 18.7499 12.4246 18.7499 12.3824C18.7499 11.3418 18.6553 10.3246 18.4733 9.33789ZM11.2538 14.4012V10.6027L14.5178 12.5051L11.2538 14.4012Z" fill="#2D313A"/>
</svg>
