<svg width="25" height="25" viewBox="0 0 25 25" fill="none" xmlns="http://www.w3.org/2000/svg">
<path d="M20.3125 25H4.6875C2.09844 25 0 22.9016 0 20.3125V4.6875C0 2.09844 2.09844 0 4.6875 0H20.3125C22.9016 0 25 2.09844 25 4.6875V20.3125C25 22.9016 22.9016 25 20.3125 25Z" fill="#2D313A"/>
<path d="M18.4733 9.33808L18.4889 9.43964C18.3381 8.9037 17.9296 8.49042 17.4116 8.33964L17.4006 8.3373C16.4264 8.07245 12.5053 8.07245 12.5053 8.07245C12.5053 8.07245 8.59361 8.06777 7.61001 8.3373C7.08111 8.49042 6.67329 8.9037 6.52485 9.4287L6.52251 9.43964C6.15845 11.3412 6.1561 13.6256 6.53892 15.6623L6.52251 15.5592C6.67329 16.0951 7.08189 16.5084 7.59986 16.6592L7.61079 16.6615C8.58423 16.9263 12.5061 16.9263 12.5061 16.9263C12.5061 16.9263 16.4171 16.9263 17.4014 16.6615C17.9303 16.5084 18.3381 16.0951 18.4866 15.5701L18.4889 15.5592C18.6553 14.6748 18.7499 13.6576 18.7499 12.6178C18.7499 12.5795 18.7499 12.5412 18.7491 12.5029C18.7499 12.467 18.7499 12.4248 18.7499 12.3826C18.7499 11.342 18.6553 10.3248 18.4733 9.33808ZM11.2538 14.4014V10.6029L14.5178 12.5053L11.2538 14.4014Z" fill="white"/>
</svg>
